<svg id="guias" xmlns="http://www.w3.org/2000/svg" viewBox="0 0 30 30"><title>iconos</title><path d="M3.655,7.358A.428.428,0,0,0,4.3,7.1a.85.85,0,0,1,1.27-.539.427.427,0,0,0,.443-.731,1.7,1.7,0,0,0-2.372.627,1.239,1.239,0,0,0-.221-.019A1.282,1.282,0,0,0,3.424,9H4.708a.427.427,0,0,0,0-.854H3.424A.428.428,0,0,1,3,7.716a.435.435,0,0,1,.658-.357Zm0,0" fill="#5e5f5e"/><path d="M23.385,4.6a1.061,1.061,0,0,1,.554-.3.391.391,0,0,1,.427.427v0h0v0a.428.428,0,0,0,.856,0,.39.39,0,0,1,.426-.431,1.061,1.061,0,0,1,.554.3.428.428,0,1,0,.6-.605,1.889,1.889,0,0,0-1.158-.552,1.244,1.244,0,0,0-.855.3,1.246,1.246,0,0,0-.854-.3,1.892,1.892,0,0,0-1.157.552.428.428,0,0,0,.6.607Zm0,0" fill="#5e5f5e"/><path d="M26.8,17.578a2.575,2.575,0,0,0-2.429-1.742.428.428,0,1,0,0,.855,1.714,1.714,0,0,1,1.676,1.37.43.43,0,0,0,.443.342c.015,0,.031,0,.023,0a.427.427,0,0,1,0,.855H21.8a.427.427,0,1,0,0,.854h4.7a1.283,1.283,0,0,0,.291-2.532Zm0,0" fill="#5e5f5e"/><path d="M14.964,2.16l-.044,0h0a9.193,9.193,0,0,0-9.359,9.4c0,2.609,1.68,4.88,3.3,7.075,1.379,1.867,2.683,3.633,2.683,5.319v2.563A1.284,1.284,0,0,0,12.826,27.8H17.1a1.284,1.284,0,0,0,1.281-1.282V23.957a.426.426,0,0,0-.427-.428H13.682a.427.427,0,0,0,0,.855h3.847v2.137a.428.428,0,0,1-.428.428H12.826a.427.427,0,0,1-.427-.428V23.957c0-1.969-1.385-3.843-2.851-5.827-1.538-2.085-3.132-4.24-3.132-6.567a8.319,8.319,0,0,1,7.068-8.422,10.859,10.859,0,0,0-3.649,8.422A16.41,16.41,0,0,0,11.8,19.119a7.889,7.889,0,0,1,1.03,3.128.428.428,0,0,0,.855,0,8.523,8.523,0,0,0-1.114-3.493,15.7,15.7,0,0,1-1.878-7.191,9.939,9.939,0,0,1,3.849-8.178V22.247a.427.427,0,1,0,.854,0V3.385a9.95,9.95,0,0,1,3.845,8.178,15.676,15.676,0,0,1-1.878,7.191,8.535,8.535,0,0,0-1.113,3.493.428.428,0,0,0,.855,0,7.877,7.877,0,0,1,1.031-3.128,16.423,16.423,0,0,0,1.96-7.557,10.859,10.859,0,0,0-3.649-8.422,8.319,8.319,0,0,1,7.068,8.422c0,2.578-1.682,4.675-3.165,6.523-1.126,1.4-2.189,2.73-2.387,4.1a.428.428,0,1,0,.847.122c.163-1.139,1.155-2.376,2.206-3.687,1.571-1.96,3.354-4.18,3.354-7.059a9.2,9.2,0,0,0-9.4-9.4Zm0,0" fill="#5e5f5e"/></svg>