<svg id="guias" xmlns="http://www.w3.org/2000/svg" viewBox="0 0 30 30"><title>iconos</title><path d="M15.93,26.391A1.968,1.968,0,0,0,16,25.826q0-6.995,0-13.989V6.324a.27.27,0,0,0,.026.029q2.827,2.833,5.659,5.658a1.861,1.861,0,0,0,.356.292A.936.936,0,0,0,23.05,12.3a.853.853,0,0,0,.446-.914,1.52,1.52,0,0,0-.385-.73q-2.773-2.793-5.562-5.573L15.821,3.351a1.014,1.014,0,0,0-1.632,0L6.876,10.661a1.751,1.751,0,0,0-.192.217.988.988,0,0,0-.2.579,1.013,1.013,0,0,0,.113.452.942.942,0,0,0,.916.531,1.134,1.134,0,0,0,.79-.4l5.672-5.686c.012-.011.021-.021.032-.033v.029q0,9.734,0,19.468a2.005,2.005,0,0,0,.059.534.978.978,0,0,0,.932.707.966.966,0,0,0,.928-.672" fill="#5e5e5e"/></svg>