<svg id="guias" xmlns="http://www.w3.org/2000/svg" viewBox="0 0 30 30"><title>iconos</title><path d="M26.391,13.862a1.968,1.968,0,0,0-.564-.068q-6.995,0-13.989,0H6.324a.27.27,0,0,0,.029-.026q2.833-2.827,5.658-5.659A1.861,1.861,0,0,0,12.3,7.75.936.936,0,0,0,12.3,6.742a.853.853,0,0,0-.914-.446,1.52,1.52,0,0,0-.73.385Q7.859,9.454,5.079,12.243L3.351,13.971a1.014,1.014,0,0,0,0,1.632l7.313,7.314a1.751,1.751,0,0,0,.217.192.988.988,0,0,0,.579.2,1.013,1.013,0,0,0,.452-.113.942.942,0,0,0,.531-.916,1.134,1.134,0,0,0-.4-.79L6.357,15.815c-.011-.012-.021-.021-.033-.032h.029q9.734,0,19.468,0a2.005,2.005,0,0,0,.534-.059.978.978,0,0,0,.707-.932.966.966,0,0,0-.672-.928" fill="#5e5e5e"/></svg>