<svg id="guias" xmlns="http://www.w3.org/2000/svg" viewBox="0 0 30 30"><title>iconos</title><path d="M3.6,15.723a1.967,1.967,0,0,0,.563.067q7,0,14,0H23.68a.34.34,0,0,0-.028.026q-2.835,2.829-5.662,5.661a1.976,1.976,0,0,0-.292.357.942.942,0,0,0,.007,1.01.854.854,0,0,0,.915.445,1.516,1.516,0,0,0,.728-.387q2.8-2.775,5.579-5.565l1.729-1.728a1.015,1.015,0,0,0,0-1.632L19.341,6.663a1.741,1.741,0,0,0-.217-.193.99.99,0,0,0-.579-.2,1.012,1.012,0,0,0-.453.113.945.945,0,0,0-.531.917,1.141,1.141,0,0,0,.4.79l5.689,5.676a.391.391,0,0,0,.032.032h-.028q-9.74,0-19.479,0a1.993,1.993,0,0,0-.535.06A.973.973,0,0,0,3.6,15.723" fill="#5e5e5e"/></svg>