<svg id="guias" xmlns="http://www.w3.org/2000/svg" viewBox="0 0 30 30"><title>iconos</title><path d="M25.049,7.93a2.072,2.072,0,0,0-2.17-2.142q-7.882,0-15.765,0a2.356,2.356,0,0,0-.527.047,2.079,2.079,0,0,0-1.64,2.151q0,4.263,0,8.527a1.632,1.632,0,0,0,0,.2.381.381,0,0,0,.357.367.375.375,0,0,0,.447-.291,1.291,1.291,0,0,0,.029-.332q0-4.25,0-8.5A1.233,1.233,0,0,1,7.117,6.63q7.882,0,15.764,0a1.234,1.234,0,0,1,1.327,1.33q0,5.371,0,10.742a1.551,1.551,0,0,1-.039.389,1.251,1.251,0,0,1-1.331.93H7.186A2.7,2.7,0,0,1,6.877,20,1.22,1.22,0,0,1,5.9,19.3a.4.4,0,0,1,.142-.584A5.712,5.712,0,0,1,9.4,17.637a11.555,11.555,0,0,1,4.072.648.561.561,0,0,0,.671-.17,3.816,3.816,0,0,1,.707-.59,5.878,5.878,0,0,1,4.231-.754,8.306,8.306,0,0,1,3.572,1.457.429.429,0,0,0,.624-.035.44.44,0,0,0-.143-.65,8.767,8.767,0,0,0-3.057-1.414c-.559-.138-1.132-.215-1.714-.321v-.853a1.574,1.574,0,0,0,1.226-1.644,15.843,15.843,0,0,0-.236-2.335A3.819,3.819,0,0,0,18.8,9.62a1.016,1.016,0,0,0-1.726-.031,2.088,2.088,0,0,0-.31.529,7.905,7.905,0,0,0-.477,3.5,1.436,1.436,0,0,0,.932,1.234c.093.042.188.077.28.115v.873c-.157.021-.286.039-.416.053A5.725,5.725,0,0,0,13.769,17.3a.335.335,0,0,1-.376.07,12.283,12.283,0,0,0-3.835-.588,6.311,6.311,0,0,0-4.4,1.594.618.618,0,0,0-.211.518A2.093,2.093,0,0,0,7.1,20.861q7.9,0,15.793,0a2.071,2.071,0,0,0,2.153-2.133Q25.061,13.329,25.049,7.93Zm-7.963,5.324c0-.149.016-.3.023-.447l-.075-.015c.142-.721.277-1.443.432-2.161a1.4,1.4,0,0,1,.211-.454c.17-.262.385-.275.506,0a5.809,5.809,0,0,1,.436,1.318,12.526,12.526,0,0,1,.142,1.785.763.763,0,0,1-.828.873A.805.805,0,0,1,17.086,13.254Z" fill="#5b5b5b" fill-rule="evenodd"/><path d="M20.734,26.8q-.973-1.954-1.951-3.908l-.143-.293c.038-.025.053-.043.068-.043.271,0,.543,0,.813-.012.331-.014.51-.18.5-.443s-.189-.394-.511-.394q-4.5,0-9,0c-.338,0-.518.146-.524.41s.174.416.512.428c.278.008.558,0,.89,0-.072.15-.113.244-.159.334q-.976,1.954-1.952,3.906a1.244,1.244,0,0,0-.111.258.388.388,0,0,0,.232.482.381.381,0,0,0,.5-.137,1.472,1.472,0,0,0,.134-.244c.727-1.453,1.456-2.906,2.177-4.363a.361.361,0,0,1,.383-.24c.57.014,1.141,0,1.711.006.09,0,.18.01.288.018v.363q0,1.992,0,3.982a1.6,1.6,0,0,0,.023.336.347.347,0,0,0,.4.307.778.778,0,0,0,.384-.3c.058-.074.033-.217.033-.326q0-2.022,0-4.041v-.338c.7,0,1.341.008,1.985-.008a.383.383,0,0,1,.4.256c.724,1.467,1.457,2.926,2.188,4.389a1.043,1.043,0,0,0,.143.238.408.408,0,0,0,.707-.34A1.123,1.123,0,0,0,20.734,26.8Z" fill="#5b5b5b" fill-rule="evenodd"/><path d="M8.3,10.383c0,.248.171.4.456.419.158.01.312.048.47.074-.093.122-.18.248-.279.363-.2.225-.213.442-.039.624a.416.416,0,0,0,.623-.023,2.334,2.334,0,0,0,.262-.4l.17.1c.007.157.01.315.016.472.012.294.161.464.41.467s.4-.17.412-.46c0-.1-.008-.207,0-.308a.27.27,0,0,1,.081-.156c.014-.014.1.029.134.062.085.074.158.16.241.234a.431.431,0,0,0,.606.021.419.419,0,0,0-.006-.6c-.074-.085-.163-.156-.233-.242a.639.639,0,0,1-.07-.163.7.7,0,0,1,.172-.061,1.5,1.5,0,0,0,.389-.015.569.569,0,0,0,.324-.257.452.452,0,0,0-.073-.4.853.853,0,0,0-.426-.147,3.18,3.18,0,0,0-.4-.035c-.023-.047-.044-.094-.066-.142a2.541,2.541,0,0,0,.34-.244.429.429,0,0,0,.059-.644c-.188-.2-.412-.17-.662.058a3.85,3.85,0,0,1-.346.247A3.69,3.69,0,0,1,10.8,8.8c-.013-.317-.15-.5-.4-.5s-.415.185-.423.514c0,.14-.015.28-.023.42l-.076.025c-.113-.1-.224-.208-.338-.31a.423.423,0,1,0-.606.583c.1.123.194.256.289.385-.159.021-.319.049-.479.062A.421.421,0,0,0,8.3,10.383Zm2.093-.4a.41.41,0,1,1-.412.4A.4.4,0,0,1,10.392,9.98Z" fill="#5b5b5b" fill-rule="evenodd"/><path d="M12.166,4.945q2.833,0,5.664,0c.324,0,.523-.168.521-.424s-.2-.414-.527-.415c-.691,0-1.385,0-2.075,0h-.33c0-.38,0-.725,0-1.069a1.035,1.035,0,0,0-.035-.332.382.382,0,0,0-.442-.265.391.391,0,0,0-.356.4c-.01.409,0,.819,0,1.262h-.337c-.691,0-1.383,0-2.075,0-.323,0-.524.167-.525.418S11.843,4.945,12.166,4.945Z" fill="#5b5b5b" fill-rule="evenodd"/></svg>