<?xml version="1.0" encoding="utf-8"?>
<!-- Generator: Adobe Illustrator 21.0.2, SVG Export Plug-In . SVG Version: 6.00 Build 0)  -->
<svg version="1.1" id="guias" xmlns="http://www.w3.org/2000/svg" xmlns:xlink="http://www.w3.org/1999/xlink" x="0px" y="0px"
	 viewBox="0 0 30 30" style="enable-background:new 0 0 30 30;" xml:space="preserve">
<style type="text/css">
	.st0{fill:#5E5E5E;}
</style>
<path class="st0" d="M22.7,11h-4.6l4.8-7.5c0.1-0.2,0.1-0.4,0-0.6c-0.1-0.2-0.3-0.3-0.5-0.3h-6.8c-0.2,0-0.4,0.1-0.5,0.3l0,0
	L8.7,15.6c-0.1,0.2-0.1,0.4,0,0.6c0.1,0.2,0.3,0.3,0.5,0.3h4.1l-4.6,11c-0.1,0.2,0,0.5,0.2,0.7c0.1,0.1,0.2,0.1,0.3,0.1
	c0.2,0,0.4-0.1,0.5-0.2l0,0l13.5-16l0,0c0.1-0.2,0.2-0.4,0.1-0.7C23.1,11.1,22.9,11,22.7,11z M14.7,16.1L14.7,16.1
	c0.1-0.2,0-0.4-0.1-0.6l0,0c-0.1-0.1-0.2-0.2-0.5-0.2h-4l5.7-11.4h5.3l-4.8,7.5c-0.1,0.2-0.1,0.4,0,0.6c0.1,0.2,0.3,0.3,0.5,0.3h4.5
	l-10.1,12L14.7,16.1z"/>
</svg>
