<svg id="guias" xmlns="http://www.w3.org/2000/svg" viewBox="0 0 30 30"><title>iconos</title><path d="M15.478,6.308c-.353-.048-.588.1-.631.4-.041.286.138.488.484.55l.1.018a4.155,4.155,0,1,1-4.605,2.731c.122-.363.031-.627-.254-.732s-.529.054-.653.411a4.856,4.856,0,0,0,.074,3.569,4.9,4.9,0,0,0,4.46,3.215,4.867,4.867,0,0,0,4.821-2.722A5.113,5.113,0,0,0,15.478,6.308Z" fill="#5b5b5b" fill-rule="evenodd"/><path d="M11.507,8.584a10.125,10.125,0,0,1,.835-.748,3.481,3.481,0,0,1,1.37-.567.471.471,0,0,0,.382-.553.422.422,0,0,0-.5-.384,4.53,4.53,0,0,0-2.736,1.622.509.509,0,0,0-.015.639A.417.417,0,0,0,11.507,8.584Z" fill="#5b5b5b" fill-rule="evenodd"/><path d="M23.908,22.963c-.138-.234-.277-.468-.414-.7q-1.453-2.454-2.9-4.907c.107-.482.209-.966.327-1.446a.545.545,0,0,1,.2-.3c.485-.327.983-.635,1.477-.953a.546.546,0,0,0,.267-.756c-.172-.551-.355-1.1-.513-1.655a.585.585,0,0,1,.042-.385c.249-.511.521-1.011.78-1.517a.551.551,0,0,0-.145-.811c-.422-.392-.852-.774-1.267-1.175a.548.548,0,0,1-.155-.33c-.04-.575-.058-1.151-.085-1.727-.017-.4-.121-.533-.5-.625-.568-.137-1.144-.253-1.712-.4a.545.545,0,0,1-.3-.206c-.327-.485-.634-.985-.953-1.477a.537.537,0,0,0-.736-.264c-.559.174-1.115.358-1.678.522a.509.509,0,0,1-.339-.028c-.525-.258-1.041-.536-1.565-.8a.548.548,0,0,0-.81.151c-.378.411-.746.833-1.138,1.232a.673.673,0,0,1-.4.187c-.558.043-1.115.057-1.674.083-.425.019-.561.128-.653.536-.128.563-.243,1.129-.38,1.689a.5.5,0,0,1-.193.281c-.479.321-.97.626-1.456.937a.561.561,0,0,0-.286.793c.171.552.351,1.1.512,1.655a.518.518,0,0,1-.033.338c-.256.517-.53,1.024-.794,1.538a.561.561,0,0,0,.154.831c.4.373.8.751,1.221,1.111a.568.568,0,0,1,.206.451c.015.559.037,1.118.071,1.675a.682.682,0,0,0,.122.388.315.315,0,0,1,.05.373c-.373,1.009-.737,2.021-1.1,3.032Q6.6,21.854,6.037,23.395a.607.607,0,0,0,.063.645.568.568,0,0,0,.624.143c1.169-.263,2.34-.511,3.509-.775a.312.312,0,0,1,.371.139c.725.954,1.462,1.9,2.189,2.849a.564.564,0,0,0,.547.288.586.586,0,0,0,.474-.437c.095-.255.187-.511.28-.766q.977-2.688,1.96-5.375a.538.538,0,0,1,.2-.226,3.006,3.006,0,0,0,.41-.252c.4-.413.777-.851,1.178-1.265A.59.59,0,0,1,18.2,18.2c.541-.037,1.081-.052,1.624-.075.917,1.552,1.827,3.092,2.749,4.648-.106,0-.189.007-.273,0-.97-.029-1.939-.053-2.908-.094a.658.658,0,0,0-.685.411c-.436.876-.887,1.744-1.332,2.617-.031.06-.065.119-.111.2L16.242,24.1s-.363-.69-.868-.109c-.336.39.091.972.091.972.557.941.748,1.26,1.3,2.2a.6.6,0,0,0,.538.36.563.563,0,0,0,.5-.391c.541-1.069,1.092-2.133,1.629-3.2a.311.311,0,0,1,.343-.2c1.2.045,2.394.074,3.591.114a.565.565,0,0,0,.57-.237A.588.588,0,0,0,23.908,22.963ZM13.116,25.091c-.069-.082-.126-.143-.177-.209-.594-.767-1.191-1.532-1.774-2.307a.658.658,0,0,0-.753-.269c-.952.221-1.911.423-2.868.632-.065.014-.134.025-.228.042.692-1.9,1.375-3.774,2.066-5.676.346.075.7.143,1.04.232.07.018.135.1.18.172.315.484.621.973.935,1.458a.564.564,0,0,0,.8.284c.544-.168,1.084-.343,1.628-.509a.431.431,0,0,1,.274-.019c.316.149.621.319.947.491C14.488,21.315,13.809,23.188,13.116,25.091Zm6.223-7.983c-.489,0-.979.044-1.467.057a.789.789,0,0,0-.616.286c-.328.375-.676.732-1,1.108a.243.243,0,0,1-.357.062c-.408-.223-.823-.426-1.228-.651a.93.93,0,0,0-.823-.088c-.511.184-1.033.33-1.576.5-.311-.482-.619-.937-.9-1.412a.881.881,0,0,0-.642-.44c-.454-.09-.905-.2-1.36-.288a.283.283,0,0,1-.271-.33c0-.472-.046-.943-.05-1.414a.856.856,0,0,0-.323-.681c-.37-.319-.72-.664-1.086-.987a.214.214,0,0,1-.062-.31c.237-.439.457-.887.7-1.324a.818.818,0,0,0,.072-.7c-.167-.479-.3-.968-.464-1.45a.212.212,0,0,1,.106-.3c.434-.265.853-.55,1.288-.812a.819.819,0,0,0,.4-.583c.1-.488.217-.973.318-1.461.029-.146.1-.195.246-.2.506-.013,1.013-.05,1.519-.061a.77.77,0,0,0,.6-.273c.382-.429.775-.849,1.169-1.279.523.271,1.029.525,1.526.8a.746.746,0,0,0,.627.067c.482-.158.971-.3,1.45-.464a.25.25,0,0,1,.358.127c.256.428.536.84.8,1.266a.786.786,0,0,0,.562.382c.548.106,1.092.24,1.661.367.025.568.059,1.133.072,1.7a.815.815,0,0,0,.3.64c.362.314.7.654,1.071.964a.285.285,0,0,1,.071.421c-.229.413-.435.837-.661,1.253a.806.806,0,0,0-.077.7c.163.471.295.954.455,1.425a.235.235,0,0,1-.114.337c-.434.263-.853.551-1.287.813a.794.794,0,0,0-.378.566c-.1.472-.208.938-.3,1.41A.269.269,0,0,1,19.339,17.107Z" fill="#5b5b5b" fill-rule="evenodd"/></svg>