<?xml version="1.0" encoding="utf-8"?>
<!-- Generator: Adobe Illustrator 21.0.2, SVG Export Plug-In . SVG Version: 6.00 Build 0)  -->
<svg version="1.1" id="guias" xmlns="http://www.w3.org/2000/svg" xmlns:xlink="http://www.w3.org/1999/xlink" x="0px" y="0px"
	 viewBox="0 0 30 30" enable-background="new 0 0 30 30" xml:space="preserve">
<title>bell_outline</title>
<path fill="#5E5E5E" d="M23.219,19.933v-7.504c-0.002-3.818-2.633-7.131-6.35-7.998V3.658l0,0c0-1.067-0.866-1.933-1.933-1.933
	s-1.933,0.866-1.933,1.933l0,0l0,0v0.809c-3.654,0.914-6.219,4.196-6.222,7.962v7.504L3.96,22.723v1.343h22.08v-1.343L23.219,19.933
	z M20.982,21.712H9.019v-9.287c0.001-0.378,0.039-0.755,0.112-1.126c0.019-0.1,0.051-0.194,0.075-0.291
	c0.062-0.261,0.141-0.517,0.238-0.768c0.044-0.112,0.093-0.215,0.142-0.321c0.106-0.228,0.226-0.45,0.36-0.664
	c0.06-0.096,0.12-0.191,0.186-0.283c0.154-0.214,0.322-0.417,0.502-0.609c0.067-0.072,0.128-0.147,0.198-0.215
	c0.224-0.217,0.465-0.415,0.721-0.594c0.041-0.029,0.076-0.065,0.119-0.093c0.301-0.201,0.62-0.374,0.952-0.517
	c0.104-0.045,0.217-0.072,0.324-0.112c1.144-0.444,2.4-0.505,3.58-0.171c0.228,0.06,0.452,0.135,0.671,0.224
	c0.091,0.036,0.185,0.067,0.274,0.112c0.298,0.134,0.584,0.292,0.857,0.471c0.021,0.015,0.04,0.032,0.062,0.047
	c0.284,0.196,0.552,0.416,0.798,0.658c0.036,0.036,0.068,0.074,0.103,0.112c0.222,0.228,0.425,0.474,0.608,0.736
	c0.037,0.054,0.073,0.112,0.112,0.163c0.166,0.256,0.312,0.525,0.436,0.803c0.03,0.068,0.063,0.134,0.092,0.203
	c0.117,0.293,0.21,0.595,0.28,0.904c0.015,0.062,0.035,0.119,0.047,0.18c0.077,0.38,0.117,0.768,0.121,1.156L20.982,21.712z"/>
<path fill="#5E5E5E" d="M14.953,28.236c1.55,0,2.805-1.255,2.805-2.805h-5.61C12.148,26.98,13.403,28.236,14.953,28.236z"/>
</svg>
