<svg id="guias" xmlns="http://www.w3.org/2000/svg" viewBox="0 0 30 30"><title>bell</title><path d="M26.23,23.5a16.49,16.49,0,0,1-2.13-4.44,9.75,9.75,0,0,1-.18-2.94,23.9,23.9,0,0,0-.12-3.9A8.55,8.55,0,0,0,22,8a7.8,7.8,0,0,0-1.39-1.31,8.44,8.44,0,0,0-2.74-1.37,2.87,2.87,0,0,0-1-1.56A2.94,2.94,0,0,0,15,3a3,3,0,0,0-2.87,2.22A8.46,8.46,0,0,0,9.37,6.64,7.78,7.78,0,0,0,8,8a8.51,8.51,0,0,0-1.76,4.27,24.12,24.12,0,0,0-.13,3.88,9.85,9.85,0,0,1-.19,3A16.81,16.81,0,0,1,3.78,23.5.91.91,0,0,0,3.6,24a.85.85,0,0,0,.12.45.9.9,0,0,0,.83.49h7.58a3.08,3.08,0,0,0,.68,1A3,3,0,0,0,15,26.9,2.92,2.92,0,0,0,17.17,26a3.21,3.21,0,0,0,.67-1h7.62a.92.92,0,0,0,.83-.5,1.09,1.09,0,0,0,.1-.44A.89.89,0,0,0,26.23,23.5ZM8,16a17.67,17.67,0,0,1,.07-3.53A6,6,0,0,1,10.63,8a7.24,7.24,0,0,1,2.55-1.1.92.92,0,0,0,.7-.93A1.1,1.1,0,0,1,15,4.92,1.09,1.09,0,0,1,16.1,6a.93.93,0,0,0,.72.9A7.09,7.09,0,0,1,19.36,8a6,6,0,0,1,1.15,1,6.75,6.75,0,0,1,1.42,3.41A18,18,0,0,1,22,16a9.58,9.58,0,0,0,.12,2.88,18.67,18.67,0,0,0,1.69,4.25H6.22A18.18,18.18,0,0,0,7.9,18.84,9.58,9.58,0,0,0,8,16Z" fill="#5e5f5f"/></svg>