<svg id="guias" xmlns="http://www.w3.org/2000/svg" viewBox="0 0 30 30"><title>iconos</title><path d="M25.765,5.089a13.033,13.033,0,0,0-1.312-.052l-.414,0c-.152,0-.3,0-.456-.007H23.3v.748c0,.639,0,1.264,0,1.888a1.535,1.535,0,0,1-.87,1.437,2.609,2.609,0,0,1-1.272.248h-.194A1.925,1.925,0,0,1,19.6,8.735a2,2,0,0,1-.535-1.451c.029-.5.02-1.008.015-1.5,0-.22-.007-.443-.007-.666,0-.023,0-.043,0-.064H11.132l0,.723c0,.55.006,1.1-.012,1.65a2.247,2.247,0,0,1-.2.861A2.1,2.1,0,0,1,8.561,9.355,1.874,1.874,0,0,1,6.915,7.565C6.886,7.009,6.89,6.446,6.893,5.9c0-.245,0-.492,0-.736V5.037l-.638-.009c-.275,0-.547,0-.816,0-.342,0-.684,0-1.021.024A1.292,1.292,0,0,0,3.179,6.334q0,9.333,0,18.664a1.3,1.3,0,0,0,1.338,1.311l10.475,0,10.475,0a1.313,1.313,0,0,0,1.354-1.328q0-9.316,0-18.636a1.234,1.234,0,0,0-1.058-1.256m-.067,20.1H4.3V10.713H25.7Z" fill="#5e5e5e"/><path d="M21.856,3.311a.866.866,0,0,0-.649-.227l-.1,0c-.545.031-.821.3-.825.814,0,.408,0,.817,0,1.226l0,2.237a.668.668,0,0,0,.346.652,1.145,1.145,0,0,0,1.085.009c.26-.127.373-.364.369-.792l0-.666c0-.816-.013-1.657.012-2.485a1.073,1.073,0,0,0-.236-.772" fill="#5e5e5e"/><path d="M8.981,8.153c.642,0,.916-.24.92-.8.011-1.1.019-2.274-.008-3.427a1.22,1.22,0,0,0-.213-.595c-.1-.154-.276-.19-.61-.213-.037,0-.072,0-.1,0a.839.839,0,0,0-.644.228.926.926,0,0,0-.207.712c.02.364.014.727.008,1.091,0,.158,0,.318,0,.479V7.313a.743.743,0,0,0,.838.841Z" fill="#5e5e5e"/><path d="M22.964,15.418a.223.223,0,0,0,.091-.012.329.329,0,0,0,.008-.1q-.018-1.064,0-2.128a.237.237,0,0,0-.012-.1c0,.007-.014-.006-.083-.006-.174,0-.339,0-.507,0l-2.034,0h0a.283.283,0,0,0-.085.01s-.006.025-.006.086q.009,1.077,0,2.153a.252.252,0,0,0,.01.088.476.476,0,0,0,.081.006l1.142,0c.464,0,.931,0,1.394,0Z" fill="#5e5e5e"/><path d="M18.447,15.418a.21.21,0,0,0,.088-.012.339.339,0,0,0,.009-.1q-.018-1.064,0-2.128a.278.278,0,0,0-.012-.1c0,.007-.015-.006-.082-.006-.175,0-.341,0-.508,0l-2.033,0h0a.276.276,0,0,0-.087.01.433.433,0,0,0-.006.086q.009,1.077,0,2.153a.231.231,0,0,0,.011.088.454.454,0,0,0,.082.006l1.141,0c.463,0,.929,0,1.391,0Z" fill="#5e5e5e"/><path d="M22.964,19.346a.274.274,0,0,0,.091-.012.329.329,0,0,0,.008-.1c-.012-.711-.012-1.42,0-2.131a.262.262,0,0,0-.008-.09A.162.162,0,0,0,22.968,17c-.174,0-.339,0-.507,0l-2.034,0h0a.279.279,0,0,0-.085.01s-.006.027-.006.086q.009,1.078,0,2.152a.3.3,0,0,0,.008.084.312.312,0,0,0,.083.01l1.142,0c.464,0,.931,0,1.394.006Z" fill="#5e5e5e"/><path d="M18.447,19.346a.26.26,0,0,0,.082-.01.24.24,0,0,0,.015-.1c-.012-.711-.012-1.42,0-2.131a.27.27,0,0,0-.009-.09A.156.156,0,0,0,18.45,17c-.175,0-.341,0-.508,0l-2.033,0h0a.3.3,0,0,0-.081.008.26.26,0,0,0-.012.088q.009,1.078,0,2.152a.271.271,0,0,0,.009.084.3.3,0,0,0,.084.01l1.141,0c.463,0,.929,0,1.391.006Z" fill="#5e5e5e"/><path d="M22.964,23.273a.271.271,0,0,0,.091-.012.329.329,0,0,0,.008-.1c-.012-.711-.012-1.42,0-2.131a.282.282,0,0,0-.008-.092.162.162,0,0,0-.087-.014c-.174,0-.339,0-.507,0H20.425a.474.474,0,0,0-.085.008s-.006.027-.006.086c.006.721.006,1.438,0,2.156a.27.27,0,0,0,.008.08.231.231,0,0,0,.083.014l1.142,0c.464,0,.931,0,1.394,0Z" fill="#5e5e5e"/><path d="M18.447,23.273a.262.262,0,0,0,.082-.01.241.241,0,0,0,.015-.1c-.012-.711-.012-1.42,0-2.131a.291.291,0,0,0-.009-.092.156.156,0,0,0-.085-.014c-.175,0-.341,0-.508,0H15.908a.3.3,0,0,0-.081.008.24.24,0,0,0-.012.086c.006.721.006,1.438,0,2.156a.241.241,0,0,0,.009.08.221.221,0,0,0,.084.014l1.141,0c.463,0,.929,0,1.391,0Z" fill="#5e5e5e"/><path d="M13.915,19.346a.252.252,0,0,0,.084-.01.233.233,0,0,0,.014-.1c-.011-.711-.011-1.42,0-2.131a.317.317,0,0,0-.006-.09A.164.164,0,0,0,13.919,17c-.174,0-.338,0-.507,0l-2.034,0a.287.287,0,0,0-.08.008.26.26,0,0,0-.012.088q.009,1.078,0,2.152a.3.3,0,0,0,.008.084.308.308,0,0,0,.084.01l1.141,0c.465,0,.93,0,1.393.006Z" fill="#5e5e5e"/><path d="M9.4,19.346a.255.255,0,0,0,.089-.012.339.339,0,0,0,.009-.1c-.012-.711-.012-1.42,0-2.131a.27.27,0,0,0-.009-.09S9.469,17,9.4,17c-.176,0-.341,0-.506,0L6.86,17h0a.245.245,0,0,0-.084.01.349.349,0,0,0-.008.086q.012,1.078,0,2.152a.22.22,0,0,0,.012.088.423.423,0,0,0,.08.006L8,19.34c.463,0,.929,0,1.392.006Z" fill="#5e5e5e"/><path d="M13.915,23.273a.255.255,0,0,0,.084-.01.234.234,0,0,0,.014-.1c-.011-.711-.011-1.42,0-2.131a.341.341,0,0,0-.006-.092.164.164,0,0,0-.088-.014c-.174,0-.338,0-.507,0H11.378a.287.287,0,0,0-.08.008.24.24,0,0,0-.012.086c.006.721.006,1.438,0,2.156a.27.27,0,0,0,.008.08.227.227,0,0,0,.084.014l1.141,0c.465,0,.93,0,1.393,0Z" fill="#5e5e5e"/><path d="M9.4,23.273a.253.253,0,0,0,.089-.012.339.339,0,0,0,.009-.1c-.012-.711-.012-1.42,0-2.131a.291.291,0,0,0-.009-.092s-.018-.014-.085-.014c-.176,0-.341,0-.506,0H6.858a.4.4,0,0,0-.084.008.351.351,0,0,0-.008.086c.008.721.008,1.438,0,2.156a.226.226,0,0,0,.012.086.323.323,0,0,0,.08.008L8,23.27c.463,0,.929,0,1.392,0Z" fill="#5e5e5e"/></svg>