<svg id="guias" xmlns="http://www.w3.org/2000/svg" viewBox="0 0 30 30"><title>iconos</title><path d="M24.929,8.789a2.825,2.825,0,0,1,1.771.768,2.4,2.4,0,0,1,.693,1.772V22.487a2.3,2.3,0,0,1-.693,1.694,2.427,2.427,0,0,1-1.771.769H5.069A2.42,2.42,0,0,1,3.3,24.182a2.3,2.3,0,0,1-.7-1.694V11.329a2.4,2.4,0,0,1,.7-1.772,2.818,2.818,0,0,1,1.767-.768h3a1.141,1.141,0,0,0,1-.693l.691-2.31a1.04,1.04,0,0,1,1-.693h8.469a1.037,1.037,0,0,1,1,.693l.691,2.31a1.14,1.14,0,0,0,1,.693ZM15,22.487a5.982,5.982,0,0,0,4.389-1.848,5.833,5.833,0,0,0,1.847-4.384A6.176,6.176,0,0,0,15,10.1a6.177,6.177,0,0,0-6.233,6.16,5.823,5.823,0,0,0,1.848,4.384A5.974,5.974,0,0,0,15,22.487m0-9.927a4.023,4.023,0,0,1,2.7,1.076,3.712,3.712,0,0,1,1,2.62,3.41,3.41,0,0,1-1.075,2.613A3.415,3.415,0,0,1,15,19.948a3.4,3.4,0,0,1-2.615-1.079,3.391,3.391,0,0,1-1.078-2.613,3.405,3.405,0,0,1,1.078-2.62A3.563,3.563,0,0,1,15,12.56m9.7.154a.742.742,0,0,0,.229-.539,1.313,1.313,0,0,0-.229-.617,1.038,1.038,0,0,0-.615-.23c-.615,0-.926.28-.926.847a.887.887,0,0,0,.311.615.826.826,0,0,0,.615.231.89.89,0,0,0,.615-.307" fill="#5e5e5e"/></svg>