<svg id="guias" xmlns="http://www.w3.org/2000/svg" viewBox="0 0 30 30"><title>iconos</title><path d="M15,3.032a12.031,12.031,0,1,0,12.03,12.03A12.044,12.044,0,0,0,15,3.032m0,22.022a9.991,9.991,0,1,1,9.991-9.992A10,10,0,0,1,15,25.054" fill="#5e5e5e"/><path d="M20.167,18.744,16.56,15.062l3.605-3.682A1.114,1.114,0,0,0,20.15,9.8a1.143,1.143,0,0,0-1.573.017L15,13.472,11.427,9.819a1.143,1.143,0,0,0-1.576-.014,1.114,1.114,0,0,0-.016,1.573l3.607,3.684L9.833,18.745a1.114,1.114,0,0,0,.016,1.569,1.139,1.139,0,0,0,1.578-.013L15,16.652,18.573,20.3a1.112,1.112,0,0,0,1.577.02,1.119,1.119,0,0,0,.017-1.574" fill="#5e5e5e"/></svg>