<?xml version="1.0" encoding="utf-8"?>
<!-- Generator: Adobe Illustrator 21.0.2, SVG Export Plug-In . SVG Version: 6.00 Build 0)  -->
<svg version="1.1" id="guias" xmlns="http://www.w3.org/2000/svg" xmlns:xlink="http://www.w3.org/1999/xlink" x="0px" y="0px"
	 viewBox="0 0 30 30" style="enable-background:new 0 0 30 30;" xml:space="preserve">
<style type="text/css">
	.st0{fill:#5E5E5E;}
</style>
<path class="st0" d="M14.9,3.1C8.3,3.1,2.9,8.5,2.9,15.1C2.9,21.7,8.3,27,14.9,27c6.6,0,11.9-5.3,11.9-11.9
	C26.8,8.5,21.4,3.1,14.9,3.1z M20.5,19.1c0.5,0.5,0.5,1.3,0,1.7s-1.3,0.5-1.7,0l-3.9-4l-3.9,4c-0.5,0.5-1.2,0.5-1.7,0
	c-0.5-0.5-0.5-1.2,0-1.7l4-4l-4-4c-0.5-0.5-0.5-1.3,0-1.7c0.5-0.5,1.2-0.4,1.7,0l3.9,4l3.9-4c0.5-0.5,1.2-0.5,1.7,0
	c0.5,0.5,0.5,1.2,0,1.7l-4,4L20.5,19.1z"/>
</svg>
