<?xml version="1.0" encoding="utf-8"?>
<!-- Generator: Adobe Illustrator 21.0.2, SVG Export Plug-In . SVG Version: 6.00 Build 0)  -->
<svg version="1.1" id="guias" xmlns="http://www.w3.org/2000/svg" xmlns:xlink="http://www.w3.org/1999/xlink" x="0px" y="0px"
	 viewBox="0 0 30 30" style="enable-background:new 0 0 30 30;" xml:space="preserve">
<style type="text/css">
	.st0{fill:#5E5E5E;}
</style>
<g>
	<path class="st0" d="M15,3C8.4,3,3,8.4,3,15.1s5.4,12,12,12s12-5.4,12-12c0,0,0,0,0,0C27,8.4,21.6,3,15,3z M15,25.1
		c-5.5,0-10-4.5-10-10s4.5-10,10-10c5.5,0,10,4.5,10,10C25,20.6,20.5,25,15,25.1z"/>
	<path class="st0" d="M20.2,9.8C20.2,9.8,20.2,9.8,20.2,9.8c-0.5-0.4-1.1-0.4-1.6,0L15,13.5l-3.6-3.7c-0.4-0.4-1.1-0.4-1.6,0
		c-0.4,0.4-0.4,1.1,0,1.6l3.6,3.7l-3.6,3.7c-0.4,0.4-0.4,1.1,0,1.6c0.4,0.4,1.1,0.4,1.6,0l3.6-3.6l3.6,3.6c0.4,0.4,1.1,0.5,1.6,0
		c0,0,0,0,0,0c0.4-0.4,0.4-1.1,0-1.6v0l-3.6-3.7l3.6-3.7C20.6,10.9,20.6,10.2,20.2,9.8z"/>
</g>
</svg>
