<svg id="guias" xmlns="http://www.w3.org/2000/svg" viewBox="0 0 30 30"><title>iconos nuevos</title><path d="M16.794,16.48c-.065-2.5-8.2-2.6-8.9-.3h0v5.882c0,1.321,2.239,2.012,4.451,2.012s4.452-.691,4.452-2.012V16.48ZM12.345,15.4c2.3,0,3.552.734,3.552,1.112s-1.253,1.112-3.552,1.112S8.8,16.886,8.8,16.51,10.048,15.4,12.345,15.4Zm0,7.781c-2.3,0-3.55-.734-3.55-1.112v-.739a7.525,7.525,0,0,0,3.55.755,7.536,7.536,0,0,0,3.552-.755v.739C15.9,22.444,14.644,23.178,12.345,23.178Zm0-2c-2.3,0-3.55-.735-3.55-1.114v-.586a7.547,7.547,0,0,0,3.55.753,7.546,7.546,0,0,0,3.552-.754v.587C15.9,20.446,14.644,21.182,12.345,21.182Zm0-1.847c-2.3,0-3.55-.735-3.55-1.112v-.454a7.547,7.547,0,0,0,3.55.753,7.547,7.547,0,0,0,3.552-.754v.455C15.9,18.6,14.644,19.335,12.345,19.335Z" fill="#5e5f5e"/><circle cx="24.331" cy="12.703" r="0.856" fill="#5e5f5e"/><circle cx="15.198" cy="12.703" r="0.856" fill="#5e5f5e"/><path d="M19.8,9.624A3.079,3.079,0,1,0,22.879,12.7,3.08,3.08,0,0,0,19.8,9.624Zm.288,4.612.016.632H19.5l.011-.61a1.573,1.573,0,0,1-.929-.405L19,13.292a1.215,1.215,0,0,0,.826.357c.232,0,.346-.109.346-.26,0-.167-.13-.238-.5-.4l-.28-.13c-.508-.232-.686-.518-.686-.885a.983.983,0,0,1,.859-.951l-.016-.588h.6l-.011.588a1.214,1.214,0,0,1,.7.346l-.432.545a.846.846,0,0,0-.6-.27c-.238,0-.346.113-.346.27,0,.178.173.281.465.41l.221.092c.557.232.784.454.784.9A.956.956,0,0,1,20.089,14.237Z" fill="#5e5f5e"/><path d="M26.827,7.618H12.979a1.352,1.352,0,0,0-1.351,1.351v4.64h.9V10.231a1.449,1.449,0,0,0,.456.079A1.466,1.466,0,0,0,14.45,8.844a1.423,1.423,0,0,0-.04-.326H25.442a1.418,1.418,0,0,0-.04.326,1.466,1.466,0,0,0,1.466,1.466,1.425,1.425,0,0,0,.408-.065v4.924a1.445,1.445,0,0,0-1.874,1.4,1.5,1.5,0,0,0,.036.317H17.7v.9h9.129a1.352,1.352,0,0,0,1.351-1.351V8.969A1.353,1.353,0,0,0,26.827,7.618Z" fill="#5e5f5e"/><path d="M15.819,15.54v-.07l-.024.011C15.8,15.5,15.819,15.521,15.819,15.54Z" fill="#5e5f5e"/><path d="M6.275,19.66c-2.3,0-3.551-.734-3.551-1.112v-.562a7.543,7.543,0,0,0,3.551.754c.241,0,.48-.018.719-.035V17.81c-.229.017-.465.029-.719.029-2.3,0-3.551-.735-3.551-1.113v-.6a7.554,7.554,0,0,0,3.551.753c.241,0,.48-.018.719-.034v-.894c-.229.016-.465.028-.719.028-2.3,0-3.551-.735-3.551-1.112v-.69a7.542,7.542,0,0,0,3.551.754,9.906,9.906,0,0,0,1.769-.163,6.887,6.887,0,0,1,2.684-.989V9.359c0-2.539-8.263-2.637-8.9-.3h0v9.485c0,1.321,2.239,2.012,4.451,2.012.241,0,.48-.009.719-.026v-.9C6.766,19.649,6.529,19.66,6.275,19.66Zm0-11.413c2.3,0,3.552.734,3.552,1.112S8.572,10.47,6.275,10.47,2.724,9.736,2.724,9.359,3.977,8.247,6.275,8.247ZM2.724,10.618a7.554,7.554,0,0,0,3.551.753,7.56,7.56,0,0,0,3.552-.753v.454c0,.377-1.254,1.112-3.552,1.112s-3.551-.734-3.551-1.112Zm0,1.713a7.554,7.554,0,0,0,3.551.753,7.56,7.56,0,0,0,3.552-.753v.587c0,.377-1.254,1.113-3.552,1.113S2.724,13.3,2.724,12.918Z" fill="#5e5f5e"/></svg>