<?xml version="1.0" encoding="utf-8"?>
<!-- Generator: Adobe Illustrator 21.0.2, SVG Export Plug-In . SVG Version: 6.00 Build 0)  -->
<svg version="1.1" id="guias" xmlns="http://www.w3.org/2000/svg" xmlns:xlink="http://www.w3.org/1999/xlink" x="0px" y="0px"
	 viewBox="0 0 30 30" style="enable-background:new 0 0 30 30;" xml:space="preserve">
<style type="text/css">
	.st0{fill:#5E5E5E;}
</style>
<path class="st0" d="M15,3.2C15,3.2,15,3.2,15,3.2C8.3,3.3,2.9,8.7,3,15.4c0,6.7,5.4,12.1,12.1,12c6.7,0,12-5.4,12-12.1
	C27.1,8.6,21.7,3.2,15,3.2z M22.1,12.1l-8.3,8.3c-0.2,0.2-0.6,0.4-0.9,0.4c-0.3,0-0.6-0.1-0.9-0.3L8,16.6c-0.5-0.5-0.5-1.3,0-1.8
	c0.5-0.5,1.3-0.5,1.8,0l3.2,3l7.3-7.4c0.5-0.5,1.3-0.5,1.8,0c0.2,0.2,0.4,0.6,0.4,0.9C22.5,11.5,22.4,11.8,22.1,12.1z"/>
</svg>
