<?xml version="1.0" encoding="utf-8"?>
<!-- Generator: Adobe Illustrator 21.0.2, SVG Export Plug-In . SVG Version: 6.00 Build 0)  -->
<svg version="1.1" id="guias" xmlns="http://www.w3.org/2000/svg" xmlns:xlink="http://www.w3.org/1999/xlink" x="0px" y="0px"
	 viewBox="0 0 30 30" style="enable-background:new 0 0 30 30;" xml:space="preserve">
<style type="text/css">
	.st0{fill:#5E5E5E;}
</style>
<g>
	<path class="st0" d="M15,3.1C8.4,3.1,3.1,8.4,3.1,15S8.4,26.9,15,26.9c6.6,0,11.9-5.3,11.9-11.9c0,0,0,0,0,0
		C26.9,8.4,21.6,3.1,15,3.1z M15,24.9L15,24.9c-5.5,0-9.9-4.4-9.9-9.9S9.5,5.1,15,5.1s9.9,4.4,9.9,9.9C24.9,20.5,20.5,24.9,15,24.9z
		"/>
	<path class="st0" d="M19.2,10.5C19.2,10.5,19.2,10.5,19.2,10.5L19.2,10.5l-6.1,6.2l-2.2-2.2c-0.5-0.5-1.2-0.5-1.7,0
		c-0.5,0.5-0.5,1.2,0,1.7l3.1,3.1c0.2,0.2,0.5,0.4,0.9,0.4c0.3,0,0.6-0.1,0.9-0.4l6.9-7c0.5-0.5,0.5-1.2,0.1-1.7
		C20.5,10.1,19.7,10,19.2,10.5z"/>
</g>
</svg>
