<?xml version="1.0" encoding="utf-8"?>
<!-- Generator: Adobe Illustrator 21.0.2, SVG Export Plug-In . SVG Version: 6.00 Build 0)  -->
<svg version="1.1" id="guias" xmlns="http://www.w3.org/2000/svg" xmlns:xlink="http://www.w3.org/1999/xlink" x="0px" y="0px"
	 viewBox="0 0 30 30" style="enable-background:new 0 0 30 30;" xml:space="preserve">
<style type="text/css">
	.st0{fill:#5E5F5F;}
</style>
<title>iconos</title>
<path class="st0" d="M15,27.5c6.9,0,12.5-5.6,12.5-12.5S21.9,2.6,15,2.6S2.5,8.2,2.5,15.1v0C2.5,21.9,8.1,27.5,15,27.5z M14.1,9.6
	c0.5-0.5,1.4-0.5,1.9,0l7.2,7c0.5,0.5,0.5,1.4,0,1.9c-0.5,0.5-1.4,0.5-1.9,0c0,0,0,0,0,0l-6.2-6l-6.2,6c-0.3,0.3-0.6,0.4-1,0.4
	c-0.7,0-1.4-0.6-1.4-1.4c0,0,0,0,0,0c0-0.4,0.2-0.8,0.5-1L14.1,9.6z"/>
</svg>
