<?xml version="1.0" encoding="utf-8"?>
<!-- Generator: Adobe Illustrator 21.0.2, SVG Export Plug-In . SVG Version: 6.00 Build 0)  -->
<svg version="1.1" id="guias" xmlns="http://www.w3.org/2000/svg" xmlns:xlink="http://www.w3.org/1999/xlink" x="0px" y="0px"
	 viewBox="0 0 30 30" style="enable-background:new 0 0 30 30;" xml:space="preserve">
<style type="text/css">
	.st0{fill:#5E5F5F;}
</style>
<title>iconos</title>
<path class="st0" d="M27.5,15.1c0-6.9-5.6-12.5-12.5-12.5S2.5,8.2,2.5,15.1S8.1,27.5,15,27.5h0C21.9,27.5,27.5,21.9,27.5,15.1z
	 M9.6,16c-0.5-0.5-0.5-1.4,0-1.9l7-7.2c0.5-0.5,1.4-0.5,1.9,0c0.5,0.5,0.5,1.4,0,1.9c0,0,0,0,0,0l-6,6.2l6,6.2
	c0.3,0.3,0.4,0.6,0.4,1c0,0.7-0.6,1.4-1.3,1.4c0,0,0,0,0,0c-0.4,0-0.8-0.2-1-0.5L9.6,16z"/>
</svg>
