<?xml version="1.0" encoding="utf-8"?>
<!-- Generator: Adobe Illustrator 21.0.2, SVG Export Plug-In . SVG Version: 6.00 Build 0)  -->
<svg version="1.1" id="guias" xmlns="http://www.w3.org/2000/svg" xmlns:xlink="http://www.w3.org/1999/xlink" x="0px" y="0px"
	 viewBox="0 0 30 30" style="enable-background:new 0 0 30 30;" xml:space="preserve">
<style type="text/css">
	.st0{fill:#5E5E5E;}
</style>
<g>
	<path class="st0" d="M23.2,8.5c-1.8-1.8-4.2-3-6.8-3.3V4.5c0.3,0,0.7-0.2,0.9-0.4c0.3-0.3,0.4-0.6,0.4-1c0-0.8-0.6-1.4-1.4-1.4
		h-2.7c-0.4,0-0.8,0.1-1,0.4c-0.3,0.3-0.4,0.6-0.4,1c0,0.8,0.6,1.4,1.3,1.4v0.8C11.8,5.4,10.3,6,8.8,6.8L8.4,6.4
		c0.3-0.6,0.1-1.3-0.5-1.7C7.4,4.3,6.6,4.4,6.1,4.9L4.8,6.1c-0.4,0.4-0.5,1-0.3,1.6c0.2,0.5,0.7,0.9,1.3,0.9c0.2,0,0.4,0,0.5-0.1
		l0.2,0.2c-1.8,1.9-2.9,4.3-3.2,6.8c-0.3,2.6,0.3,5.2,1.7,7.5c1.4,2.2,3.5,3.9,6,4.8c1.2,0.4,2.5,0.6,3.8,0.6c1.3,0,2.6-0.2,3.9-0.7
		c2.5-0.9,4.6-2.6,6-4.8c1.4-2.2,2-4.9,1.7-7.5C26.2,12.9,25,10.4,23.2,8.5z M4.7,14.4c0.5-2.1,1.5-3.9,3.1-5.4l0,0c0,0,0,0,0-0.1
		c0,0,0,0,0-0.1l0,0c0,0,0-0.1,0-0.1c0-0.1,0-0.1,0-0.2c0,0,0-0.1,0-0.1l0,0c0,0,0-0.1,0-0.1c0,0,0,0,0-0.1l0,0L6.9,7.4
		C6.8,7.3,6.7,7.3,6.7,7.2c-0.2-0.1-0.4,0-0.6,0.1C6,7.5,5.9,7.5,5.7,7.5C5.6,7.4,5.5,7.3,5.5,7.1c0-0.1,0-0.2,0.1-0.2l1.3-1.3
		C6.9,5.6,7,5.6,7.1,5.6c0.1,0,0.2,0,0.2,0.1c0.1,0.1,0.1,0.3,0,0.5l0,0c0,0,0,0,0,0.1c0,0,0,0.1-0.1,0.1l0,0l0,0c0,0,0,0,0,0.1
		c0,0,0,0.1,0,0.1l0,0l0,0c0,0,0,0.1,0,0.1c0,0,0,0,0,0.1l0,0l0,0c0,0,0,0.1,0.1,0.1c0,0,0,0,0,0.1l1,1l0,0c0,0,0.1,0.1,0.2,0.1
		c0,0,0,0,0,0c0.1,0,0.1,0,0.2,0l0,0l0,0c0.1,0,0.1,0,0.2,0c0,0,0,0,0,0c0,0,0,0,0.1,0l0,0c1.5-1,3.2-1.6,5-1.7
		c0.3,0,0.5-0.3,0.5-0.6l0-1.8c0-0.3-0.3-0.6-0.6-0.6h-0.4c-0.2,0-0.3-0.1-0.3-0.3c0-0.1,0-0.2,0.1-0.2l0,0c0.1-0.1,0.1-0.1,0.2-0.1
		c0,0,0,0,0,0h2.7c0.2,0,0.3,0.1,0.3,0.3c0,0.1,0,0.2-0.1,0.2c-0.1,0.1-0.1,0.1-0.2,0.1h-0.4c-0.3,0-0.6,0.3-0.6,0.6v1.8
		c0,0.3,0.2,0.6,0.5,0.6c2.7,0.2,5.2,1.5,7,3.5c1.8,2,2.7,4.7,2.6,7.4c-0.1,2.7-1.3,5.3-3.2,7.1c-2,1.9-4.5,2.9-7.3,2.9
		c-2.1,0-4.2-0.6-5.9-1.8c-1.7-1.2-3.1-2.9-3.9-4.8C4.4,18.6,4.2,16.5,4.7,14.4z"/>
	<path class="st0" d="M14.9,11.2c0.3,0,0.6-0.3,0.6-0.6V8.9c0-0.3-0.3-0.6-0.6-0.6c-0.3,0-0.6,0.3-0.6,0.6v1.7
		C14.3,10.9,14.6,11.2,14.9,11.2z"/>
	<path class="st0" d="M7,17.4h1.7c0.3,0,0.6-0.3,0.6-0.6c0-0.3-0.3-0.6-0.6-0.6H7c-0.3,0-0.6,0.3-0.6,0.6C6.4,17.1,6.7,17.4,7,17.4z
		"/>
	<path class="st0" d="M14.9,22.5c-0.3,0-0.6,0.3-0.6,0.6v1.7c0,0.3,0.3,0.6,0.6,0.6c0.3,0,0.6-0.3,0.6-0.6v-1.7
		C15.5,22.7,15.3,22.5,14.9,22.5z"/>
	<path class="st0" d="M20.6,16.8c0,0.3,0.3,0.6,0.6,0.6h1.7c0.3,0,0.6-0.3,0.6-0.6c0-0.3-0.3-0.6-0.6-0.6h-1.7
		C20.9,16.2,20.6,16.5,20.6,16.8z"/>
	<path class="st0" d="M14.4,18.2c0.2,0.1,0.4,0.1,0.5,0.1c0.4,0,0.8-0.2,1.1-0.5c0.4-0.4,0.5-1,0.3-1.5l4.5-4.5
		c0.1-0.1,0.2-0.3,0.2-0.4c0-0.2-0.1-0.3-0.2-0.4l0,0c-0.2-0.2-0.6-0.2-0.9,0l-4.4,4.4v-2.7c0-0.3-0.3-0.6-0.6-0.6
		c-0.3,0-0.6,0.3-0.6,0.6v2.9c-0.5,0.2-0.8,0.7-0.8,1.3C13.5,17.4,13.8,17.9,14.4,18.2z M15.1,16.9c0,0.1-0.1,0.1-0.2,0.1
		c0,0,0,0,0,0c-0.1,0-0.2-0.1-0.2-0.2c0-0.1,0-0.2,0.1-0.3c0,0,0.1,0,0.1,0c0.1,0,0.1,0,0.2,0.1l0,0C15.2,16.7,15.2,16.8,15.1,16.9z
		"/>
</g>
</svg>
