<?xml version="1.0" encoding="utf-8"?>
<!-- Generator: Adobe Illustrator 21.0.2, SVG Export Plug-In . SVG Version: 6.00 Build 0)  -->
<svg version="1.1" id="guias" xmlns="http://www.w3.org/2000/svg" xmlns:xlink="http://www.w3.org/1999/xlink" x="0px" y="0px"
	 viewBox="0 0 30 30" style="enable-background:new 0 0 30 30;" xml:space="preserve">
<style type="text/css">
	.st0{fill:#5E5E5E;}
</style>
<g>
	<path class="st0" d="M25.3,4.5c-0.3-0.2-0.7-0.2-1,0.1L13.5,18.3l-3.6-4.5c-0.2-0.3-0.7-0.3-1-0.1c-0.3,0.2-0.3,0.7-0.1,1l3.9,4.9
		c0.1,0.2,0.3,0.3,0.6,0.3c0,0,0.1,0,0.1,0c0,0,0,0,0.1,0c0.2,0,0.4-0.1,0.6-0.3L25.4,5.5C25.6,5.2,25.6,4.8,25.3,4.5z"/>
	<path class="st0" d="M24,11.4c-0.4,0-0.7,0.3-0.7,0.7v11.4c0,0.4-0.3,0.7-0.7,0.7H6.5c-0.4,0-0.7-0.3-0.7-0.7V7.2
		c0-0.4,0.3-0.7,0.7-0.7h11.1c0.4,0,0.7-0.3,0.7-0.7c0-0.4-0.3-0.7-0.7-0.7H6.5c-1.1,0-2,0.9-2,2.1v16.3c0,1.1,0.9,2.1,2,2.1h16.1
		c1.1,0,2-0.9,2-2.1V12.1C24.6,11.7,24.3,11.4,24,11.4z"/>
</g>
</svg>
