<svg id="guias" xmlns="http://www.w3.org/2000/svg" viewBox="0 0 30 30"><title>clock</title><path d="M23.55,6.49a12,12,0,0,0-8.42-3.54H15A12.1,12.1,0,0,0,2.95,15,12.05,12.05,0,0,0,15,27.06h0A12.07,12.07,0,0,0,23.55,6.49m-9.48,18c0,.17,0,.35,0,.53v.17a10.11,10.11,0,0,1-5.6-2.32l.15-.15c.16-.16.3-.31.44-.47a.91.91,0,0,0-.7-1.5.93.93,0,0,0-.59.2,3.68,3.68,0,0,0-.37.35l-.06.06-.15.18,0,0a10.22,10.22,0,0,1-2.33-5.61h.71a1,1,0,0,0,.82-.43.89.89,0,0,0,.09-.81,1,1,0,0,0-1-.62H4.84a10.16,10.16,0,0,1,2.32-5.6l.14.14L7.72,9a1,1,0,0,0,.64.25A.9.9,0,0,0,9,9,.93.93,0,0,0,9,7.75a4.86,4.86,0,0,0-.36-.37l0,0-.18-.15,0,0a10.18,10.18,0,0,1,5.62-2.34c0,.06,0,.12,0,.17s0,.37,0,.55a.92.92,0,0,0,.56.88.89.89,0,0,0,1-.14,1,1,0,0,0,.34-.83c0-.16,0-.32,0-.49V4.84a10.12,10.12,0,0,1,5.61,2.33l-.09.08-.38.37a1.1,1.1,0,0,0-.35.78A.87.87,0,0,0,21,9a1,1,0,0,0,1.38-.1l.36-.37.09-.1a10.21,10.21,0,0,1,2.33,5.61h-.64a1.11,1.11,0,0,0-.82.35.87.87,0,0,0-.2.69.92.92,0,0,0,1,.82h.69a10.21,10.21,0,0,1-2.33,5.61l-.09-.1-.38-.38a1.08,1.08,0,0,0-.75-.33A.88.88,0,0,0,21,21a1,1,0,0,0,.07,1.36l.36.36.12.12a10.11,10.11,0,0,1-5.6,2.33c0-.05,0-.11,0-.16s0-.34,0-.51a.94.94,0,0,0-.92-1h-.17a.93.93,0,0,0-.78,1" fill="#5e5e5e"/><path d="M17.85,18.72a.76.76,0,0,0,.29.07.64.64,0,0,0,.45-.19.65.65,0,0,0,.12-.76l-.48-1.1-1.37-3.12a.89.89,0,0,0-.48-.48L14,12.07,12.2,11.3,12,11.23l-.06,0h0a.73.73,0,0,0-.59.32.66.66,0,0,0,0,.63l.48,1.08c.46,1,.94,2.14,1.42,3.2a.8.8,0,0,0,.37.38l3.73,1.65Z" fill="#5e5e5e"/></svg>