<svg id="guias" xmlns="http://www.w3.org/2000/svg" viewBox="0 0 30 30"><title>iconos</title><path d="M18.094,16.145l-2.32-.992v-4.2a.949.949,0,1,0-1.9,0V15.78a.948.948,0,0,0,.575.873l2.9,1.238a.937.937,0,0,0,.374.078.951.951,0,0,0,.374-1.824" fill="#5e5e5e"/><path d="M23.926,15.78a9.113,9.113,0,0,0-8.152-9.051V5.764h.865a.792.792,0,1,0,0-1.583H13.008a.792.792,0,0,0,0,1.583h.867v.965A9.09,9.09,0,0,0,9.438,23.1L7.551,24.9a.951.951,0,0,0-.031,1.344.939.939,0,0,0,.687.295.952.952,0,0,0,.656-.266l2.28-2.18a9.01,9.01,0,0,0,7.418-.027l2.31,2.207a.951.951,0,0,0,.657.266.936.936,0,0,0,.685-.295.952.952,0,0,0-.029-1.344l-1.926-1.838a9.091,9.091,0,0,0,3.668-7.285m-9.1,7.2a7.2,7.2,0,1,1,7.2-7.2,7.21,7.21,0,0,1-7.2,7.2" fill="#5e5e5e"/><path d="M25.676,4.623A3.73,3.73,0,0,0,22.981,3.46a5.458,5.458,0,0,0-3.049,1.095.826.826,0,0,0-.072,1.23L24.5,10.427a.824.824,0,0,0,.583.24H25.1a.828.828,0,0,0,.587-.255,4.044,4.044,0,0,0-.009-5.789" fill="#5e5e5e"/><path d="M3.933,10.411a.826.826,0,0,0,.587.259h.012a.832.832,0,0,0,.584-.243L9.756,5.785a.824.824,0,0,0-.072-1.23,5.445,5.445,0,0,0-3.047-1.1,3.726,3.726,0,0,0-2.7,1.164,4.043,4.043,0,0,0-.009,5.788" fill="#5e5e5e"/></svg>