<svg id="guias" xmlns="http://www.w3.org/2000/svg" viewBox="0 0 30 30"><title>iconos</title><path d="M7.382,23.463a.9.9,0,0,1-.637-1.537L21.683,6.988a.9.9,0,0,1,1.273,1.273L8.019,23.2A.9.9,0,0,1,7.382,23.463Z" fill="#5e5e5e"/><path d="M27.756,14.918a15.4,15.4,0,0,0-2.712-3.489,15.053,15.053,0,0,0-2.471-1.9L21.41,10.692c.008,0,.022.007.03.012A13.312,13.312,0,0,1,25.9,14.929a.255.255,0,0,1,.016.329,13.225,13.225,0,0,1-4.628,4.334.37.37,0,0,1-.068.016,7.865,7.865,0,0,0,.1-8.824l-1.162,1.162a6.179,6.179,0,0,1-8.47,8.47l-1.656,1.656a14.352,14.352,0,0,0,7.3.577,14.472,14.472,0,0,0,10.41-7.342A.331.331,0,0,0,27.756,14.918Z" fill="#5e5e5e"/><path d="M6.866,18.572A12.729,12.729,0,0,1,3.827,15.3a.379.379,0,0,1-.041-.321A12.913,12.913,0,0,1,8.451,10.6h.056a7.985,7.985,0,0,0-.167,8.844l1.2-1.2A6.173,6.173,0,0,1,18,9.789l1.625-1.625a17.44,17.44,0,0,0-5.177-.855c-.584.075-1.6.126-2.589.34a14.623,14.623,0,0,0-9.914,7.28.31.31,0,0,0,.006.361,14.531,14.531,0,0,0,3.427,4.127A16.856,16.856,0,0,0,7.126,20.66l1.138-1.138C7.793,19.211,7.314,18.91,6.866,18.572Z" fill="#5e5e5e"/><path d="M12.185,15.049a2.417,2.417,0,0,0,.031.521l3.069-3.07a2.829,2.829,0,0,0-.385-.048A2.637,2.637,0,0,0,12.185,15.049Z" fill="#5e5e5e"/><path d="M14.788,17.759a2.661,2.661,0,0,0,2.721-2.627,2.918,2.918,0,0,0-.051-.486L14.393,17.71A2.6,2.6,0,0,0,14.788,17.759Z" fill="#5e5e5e"/></svg>