<svg id="guias" xmlns="http://www.w3.org/2000/svg" viewBox="0 0 30 30"><title>padlock-closed</title><path d="M24.46,23.89V22.35c0-1.64,0-3.21,0-4.72V15.8s0,0,0-.07a3.52,3.52,0,0,0-.12-.85c0-.08,0-.15-.07-.23a2.89,2.89,0,0,0-.36-.71c0-.07-.1-.12-.15-.19a2.84,2.84,0,0,0-.5-.47l-.2-.13a2.83,2.83,0,0,0-.68-.3c-.05,0-.09-.05-.15-.07l-.17,0-.11,0-.44,0H21V11.57c0-.62,0-1.25,0-1.87a6.77,6.77,0,0,0-.38-2.8c0-.07-.06-.14-.09-.21a5.7,5.7,0,0,0-.34-.7l-.1-.16a5.78,5.78,0,0,0-.5-.68l-.09-.1a6.6,6.6,0,0,0-.63-.61l-.1-.08A6.18,6.18,0,0,0,18,3.84l0,0-.21-.13c-.13-.07-.28-.1-.41-.16s-.34-.14-.52-.2a5.2,5.2,0,0,0-.64-.18,6.4,6.4,0,0,0-.84-.1c-.09,0-.18,0-.27,0H15c-.09,0-.17,0-.27,0a6.34,6.34,0,0,0-.84.1,5.19,5.19,0,0,0-.65.18c-.18.06-.35.13-.52.2s-.28.09-.41.16l-.21.13,0,0a6.14,6.14,0,0,0-.78.54l-.1.08a6.47,6.47,0,0,0-.63.61l-.09.1a5.77,5.77,0,0,0-.5.68L9.83,6a5.7,5.7,0,0,0-.34.7c0,.07-.06.13-.09.21A6.75,6.75,0,0,0,9,9.71c0,.62,0,1.24,0,1.87v1.11H8.49l-.44,0-.11,0-.16,0-.15.07a2.88,2.88,0,0,0-.68.3l-.2.13a2.79,2.79,0,0,0-.5.47l-.15.19a2.89,2.89,0,0,0-.36.71c0,.07,0,.15-.07.23a3.38,3.38,0,0,0-.12.85s0,0,0,.07c0,.61,0,1.22,0,1.84,0,1.51,0,3.08,0,4.72,0,.52,0,1,0,1.54,0,0,0,.05,0,.08a3.47,3.47,0,0,0,.08.66s0,0,0,.05,0,0,0,.07a2.87,2.87,0,0,0,1,1.53l.14.11a3,3,0,0,0,.7.37l.27.08a3.59,3.59,0,0,0,.72.11l.11,0H21.44l.11,0a3.59,3.59,0,0,0,.72-.11l.27-.08a3.05,3.05,0,0,0,.7-.37l.14-.11a2.87,2.87,0,0,0,1-1.53.72.72,0,0,0,0-.07s0,0,0-.05a3.55,3.55,0,0,0,.08-.66s0-.05,0-.08m-3.09,1H8.63a1.44,1.44,0,0,1-.18,0,.94.94,0,0,1-.56-.24,1.06,1.06,0,0,1-.28-.77c0-1.93,0-3.86,0-5.79V15.75a1.39,1.39,0,0,1,0-.28,1.28,1.28,0,0,1,0-.16.82.82,0,0,1,.13-.21A.78.78,0,0,1,7.92,15a.83.83,0,0,1,.18-.11l.15-.07a1.33,1.33,0,0,1,.32,0H21.43a1.32,1.32,0,0,1,.32,0l.15.07a.82.82,0,0,1,.18.11.68.68,0,0,1,.1.12.85.85,0,0,1,.13.21,1.12,1.12,0,0,1,0,.16,1.33,1.33,0,0,1,0,.28v2.37c0,1.93,0,3.85,0,5.79a1.07,1.07,0,0,1-.28.77,1,1,0,0,1-.56.24,1.36,1.36,0,0,1-.18,0M14.84,12.69H11.1c0-.4,0-.8,0-1.19,0-1,0-2,0-3,0-.09,0-.18,0-.28A4,4,0,0,1,12.42,6L12.5,6a4.58,4.58,0,0,1,.39-.27l.14-.1a3.88,3.88,0,0,1,.59-.27h0a4.17,4.17,0,0,1,.59-.16A4.48,4.48,0,0,1,15,5.08h0a4.43,4.43,0,0,1,.74.07,4,4,0,0,1,.59.16h0a3.81,3.81,0,0,1,.59.27l.14.1A4.44,4.44,0,0,1,17.5,6l.08.08a4,4,0,0,1,1.25,2.14c0,.09,0,.18,0,.28.06,1,0,2,0,3,0,.4,0,.79,0,1.19H14.84Z" fill="#5e5e5e"/><path d="M15.89,18.36l-.09-.15a1,1,0,0,0-.78-.42h0a1,1,0,0,0-.78.42l-.09.15a1.23,1.23,0,0,0-.15.55c0,.21,0,.41,0,.62v.68c0,.06,0,.13,0,.18s0,.32,0,.47h0v.05a1.21,1.21,0,0,0,.13.47s0,0,0,.05,0,0,0,0a1,1,0,0,0,.31.33l.06,0a.89.89,0,0,0,.21.09L15,22h0l.25,0a.89.89,0,0,0,.21-.09l.06,0a1,1,0,0,0,.31-.33l0,0s0,0,0-.05a1.26,1.26,0,0,0,.13-.47v-.05h0c0-.15,0-.31,0-.47s0-.12,0-.18v-.68c0-.21,0-.41,0-.62a1.23,1.23,0,0,0-.15-.55" fill="#5e5e5e"/></svg>