<svg id="guias" xmlns="http://www.w3.org/2000/svg" viewBox="0 0 30 30"><title>iconos</title><path d="M23.555,6.489a11.986,11.986,0,0,0-8.42-3.544l-.132,0A12.1,12.1,0,0,0,2.947,14.993,12.053,12.053,0,0,0,14.981,27.059h.007a12.072,12.072,0,0,0,8.566-20.57M14.072,24.473c-.006.172,0,.348,0,.527v.17a10.114,10.114,0,0,1-5.6-2.318c.048-.053.1-.1.145-.149.157-.158.3-.309.439-.473a.908.908,0,0,0-.7-1.5.932.932,0,0,0-.586.2,3.677,3.677,0,0,0-.369.348l-.062.064a1.7,1.7,0,0,0-.152.18l-.018.02a10.218,10.218,0,0,1-2.333-5.614l.166,0c.185,0,.368.006.546,0a1.023,1.023,0,0,0,.822-.433.893.893,0,0,0,.092-.811.992.992,0,0,0-.99-.62c-.086,0-.168,0-.256,0l-.377,0a10.156,10.156,0,0,1,2.318-5.6l.137.138c.144.145.28.281.428.416a.96.96,0,0,0,.638.247A.9.9,0,0,0,9,9.009a.927.927,0,0,0,.043-1.254,4.859,4.859,0,0,0-.355-.372l-.038-.038a2.294,2.294,0,0,0-.18-.152l-.023-.017A10.18,10.18,0,0,1,14.07,4.832c0,.057,0,.115,0,.174,0,.188,0,.367.006.548a.921.921,0,0,0,.561.882.893.893,0,0,0,.958-.138,1.038,1.038,0,0,0,.34-.829c.008-.159.006-.318,0-.489V4.835A10.115,10.115,0,0,1,21.549,7.17l-.086.082c-.133.126-.26.244-.379.366a1.1,1.1,0,0,0-.346.78.875.875,0,0,0,.271.62.971.971,0,0,0,1.379-.1c.119-.119.234-.242.355-.369l.092-.1a10.206,10.206,0,0,1,2.33,5.612l-.143,0-.225,0q-.141,0-.275,0a1.114,1.114,0,0,0-.822.351.866.866,0,0,0-.2.69.925.925,0,0,0,.973.822c.1,0,.2,0,.3,0l.4,0a10.209,10.209,0,0,1-2.328,5.608l-.094-.1c-.129-.135-.25-.262-.377-.385a1.076,1.076,0,0,0-.746-.326.881.881,0,0,0-.635.271.959.959,0,0,0,.066,1.361c.115.119.234.236.357.357l.123.121a10.109,10.109,0,0,1-5.6,2.326c0-.053,0-.109,0-.16,0-.172,0-.34,0-.506a.943.943,0,0,0-.919-1.006.976.976,0,0,0-.167.014.93.93,0,0,0-.775.955" fill="#5e5e5e"/><path d="M17.853,18.723a.758.758,0,0,0,.295.066A.635.635,0,0,0,18.6,18.6a.649.649,0,0,0,.125-.764l-.484-1.1q-.685-1.559-1.367-3.117a.886.886,0,0,0-.482-.48c-.809-.35-1.615-.706-2.423-1.06q-.88-.387-1.767-.773a1.405,1.405,0,0,0-.214-.07l-.057-.016-.009,0h-.01a.727.727,0,0,0-.594.32.661.661,0,0,0-.031.628l.476,1.083c.462,1.05.939,2.138,1.417,3.2a.8.8,0,0,0,.374.381c1.24.555,2.5,1.109,3.731,1.646Z" fill="#5e5e5e"/></svg>