<svg id="guias" xmlns="http://www.w3.org/2000/svg" viewBox="0 0 30 30"><title>iconos</title><path d="M25.821,9.7A1.058,1.058,0,0,0,25.085,9a1.019,1.019,0,0,0-.984.273l-2.9,2.9a1.42,1.42,0,0,1-2.006,0l-1.285-1.286a1.42,1.42,0,0,1,0-2.005L20.782,6a1.029,1.029,0,0,0,.259-1.021,1.05,1.05,0,0,0-.767-.717A8.107,8.107,0,0,0,12.94,6.445,7.71,7.71,0,0,0,10.7,12.423a3.206,3.206,0,0,1-.909,2.495l-5.73,5.732A.75.75,0,1,0,5.125,21.71l5.733-5.733a4.725,4.725,0,0,0,1.347-3.657,6.217,6.217,0,0,1,1.8-4.82,6.718,6.718,0,0,1,5.066-1.908L16.858,7.807a2.916,2.916,0,0,0,0,4.121l1.286,1.286a2.917,2.917,0,0,0,4.121,0l2.3-2.3a6.209,6.209,0,0,1-6.813,7.2,4.721,4.721,0,0,0-3.892,1.338l-5.5,5.5A.751.751,0,1,0,9.43,26.015l5.5-5.5a3.235,3.235,0,0,1,2.667-.908,7.7,7.7,0,0,0,8.225-9.9Z" fill="#5e5f5f"/><path d="M11.042,20.148a.75.75,0,0,0-1.067-1.053L4.753,24.315a.751.751,0,1,0,1.062,1.063Z" fill="#5e5f5f"/></svg>