<?xml version="1.0" encoding="utf-8"?>
<!-- Generator: Adobe Illustrator 21.0.2, SVG Export Plug-In . SVG Version: 6.00 Build 0)  -->
<svg version="1.1" id="guias" xmlns="http://www.w3.org/2000/svg" xmlns:xlink="http://www.w3.org/1999/xlink" x="0px" y="0px"
	 viewBox="0 0 30 30" enable-background="new 0 0 30 30" xml:space="preserve">
<title>iconos</title>
<path fill="#5E5E5E" d="M14.887,4.56h1.889c0.152,0,0.3-0.007,0.454,0c0.235-0.019,0.441,0.157,0.46,0.392
	c0.002,0.028,0.002,0.056-0.002,0.084c0.005,0.219,0,0.439,0,0.659c0.006,0.026,0.014,0.051,0.024,0.075h3.07
	c0.353,0,0.492,0.141,0.492,0.5c0,2.991,0,5.981,0,8.972c0,0.323-0.141,0.5-0.4,0.5s-0.4-0.173-0.4-0.493c0-2.786,0-5.572,0-8.359
	V6.58h-2.785c0,0.223,0,0.447,0,0.67c0,0.374-0.148,0.524-0.526,0.524c-2.983,0-5.967,0-8.95,0c-0.366,0-0.51-0.15-0.513-0.511
	c0-0.225,0-0.45,0-0.687H4.923v19.15h8.964c0.083-0.005,0.166-0.002,0.249,0.007c0.218,0.039,0.363,0.246,0.324,0.464
	c-0.027,0.151-0.138,0.274-0.286,0.315c-0.089,0.018-0.179,0.026-0.27,0.024H4.7c-0.474,0-0.594-0.121-0.594-0.588V6.346
	c0-0.467,0.107-0.575,0.571-0.575H7.7c0-0.247,0-0.472,0-0.7c0-0.363,0.142-0.511,0.509-0.514c0.712-0.005,1.423,0,2.135,0
	c0.037,0,0.074,0,0.149-0.01c0-0.22,0-0.435,0-0.651c0-0.4,0.137-0.527,0.536-0.527h3.339c0.384,0,0.515,0.133,0.517,0.519
	C14.887,4.1,14.887,4.311,14.887,4.56z M14.887,5.38c0,0.258,0,0.491,0,0.725c-0.006,0.315-0.146,0.453-0.462,0.453
	c-1.15,0-2.3,0-3.45,0c-0.333,0-0.468-0.131-0.478-0.464c-0.007-0.233,0-0.466,0-0.712H8.525v1.56h8.347V5.38H14.887z M11.31,5.757
	h2.775v-1.57h-2.776L11.31,5.757z"/>
<path fill="#5E5E5E" d="M26.036,19.409c-1.979,1.982-3.955,3.967-5.95,5.933c-0.208,0.147-0.448,0.243-0.7,0.281
	c-0.77,0.218-1.547,0.416-2.317,0.634c-0.134,0.046-0.256,0.119-0.36,0.215c-0.217,0.186-0.437,0.212-0.606,0.049
	c-0.163-0.182-0.147-0.462,0.035-0.626c0.001-0.001,0.003-0.002,0.004-0.003c0.098-0.111,0.172-0.242,0.217-0.383
	c0.253-0.886,0.488-1.778,0.739-2.665c0.034-0.122,0.098-0.233,0.185-0.325c1.987-1.995,3.978-3.988,5.971-5.977
	c0.438-0.484,1.185-0.523,1.669-0.085c0.002,0.002,0.004,0.004,0.007,0.006c0.446,0.398,0.865,0.824,1.256,1.276
	c0.422,0.478,0.376,1.208-0.102,1.63C26.068,19.383,26.052,19.396,26.036,19.409z M22.161,18.828l-4.019,4.016l1.629,1.627
	l4.019-4.02L22.161,18.828z M22.774,18.156l1.682,1.686c0.352-0.349,0.728-0.711,1.09-1.085c0.154-0.139,0.166-0.376,0.027-0.53
	c-0.007-0.008-0.014-0.015-0.022-0.022c-0.377-0.393-0.763-0.777-1.157-1.153c-0.133-0.142-0.357-0.149-0.499-0.016
	c-0.006,0.005-0.011,0.011-0.016,0.016C23.5,17.413,23.131,17.8,22.774,18.156L22.774,18.156z M17.229,25.385l1.689-0.463
	L17.7,23.671L17.229,25.385z"/>
<path fill="#5E5E5E" d="M12.7,12.148h5.656c0.412,0,0.651,0.3,0.448,0.6c-0.1,0.106-0.232,0.177-0.376,0.2
	c-0.143,0.018-0.287,0.02-0.43,0.005H7.048c-0.43,0-0.682-0.308-0.469-0.6c0.114-0.124,0.273-0.196,0.441-0.2
	c1.893-0.014,3.786-0.009,5.679-0.009L12.7,12.148z"/>
<path fill="#5E5E5E" d="M12.1,17.74H6.989c-0.305-0.006-0.48-0.153-0.477-0.4s0.178-0.39,0.486-0.391c3.4,0,6.798,0,10.193,0
	c0.393,0,0.593,0.273,0.435,0.582c-0.084,0.149-0.251,0.232-0.421,0.208L12.1,17.74L12.1,17.74z"/>
<path fill="#5E5E5E" d="M11.283,20.138c-1.408,0-2.816,0-4.224,0c-0.103,0.013-0.207-0.004-0.3-0.05
	c-0.112-0.089-0.194-0.212-0.232-0.35c-0.026-0.167,0.083-0.325,0.248-0.36c0.087-0.025,0.177-0.037,0.268-0.036
	c2.839,0,5.677,0,8.516,0c0.097-0.013,0.196,0.004,0.283,0.05c0.114,0.086,0.195,0.21,0.227,0.35
	c-0.021,0.136-0.097,0.258-0.209,0.337c-0.101,0.051-0.214,0.071-0.326,0.057C14.115,20.139,12.698,20.14,11.283,20.138z"/>
<path fill="#5E5E5E" d="M9.7,14.548h2.7c0.182,0,0.37,0.031,0.429,0.224c0.047,0.129,0.036,0.272-0.03,0.393
	c-0.127,0.111-0.288,0.174-0.456,0.178c-1.248,0.014-2.5,0.008-3.746,0.008c-0.537,0-1.074,0.005-1.612,0
	c-0.377-0.005-0.584-0.31-0.417-0.6c0.099-0.149,0.275-0.227,0.451-0.2L9.7,14.548z"/>
<path fill="#5E5E5E" d="M9.472,22.539c-0.824,0-1.649,0-2.474,0c-0.388,0-0.619-0.327-0.415-0.6c0.1-0.119,0.245-0.191,0.4-0.2
	c1.679-0.013,3.359-0.009,5.038-0.006c0.226-0.028,0.432,0.132,0.46,0.358c0.003,0.02,0.004,0.041,0.003,0.061
	c-0.01,0.241-0.193,0.388-0.494,0.388C11.151,22.541,10.311,22.54,9.472,22.539z"/>
<path fill="#5E5E5E" d="M9.48,10.554c-0.824,0-1.649,0.009-2.473-0.008c-0.16-0.006-0.312-0.073-0.425-0.187
	c-0.12-0.164-0.084-0.393,0.079-0.513C6.708,9.812,6.762,9.789,6.819,9.78c0.082-0.015,0.165-0.021,0.248-0.018h4.855
	c0.045,0,0.091,0,0.136,0c0.271,0.017,0.433,0.17,0.429,0.4c-0.006,0.221-0.19,0.395-0.411,0.389c-0.011,0-0.022-0.001-0.032-0.002
	C11.189,10.557,10.335,10.554,9.48,10.554z"/>
<path fill="#5E5E5E" d="M17.1,14.549c0.439,0,0.877-0.006,1.316,0c0.376,0.006,0.587,0.332,0.382,0.606
	c-0.091,0.108-0.221,0.174-0.361,0.185c-0.9,0.016-1.8,0.013-2.7,0.006c-0.223,0.023-0.423-0.139-0.446-0.362
	c-0.002-0.017-0.002-0.033-0.002-0.05c0.01-0.236,0.185-0.383,0.473-0.386C16.21,14.546,16.656,14.549,17.1,14.549z"/>
<path fill="#5E5E5E" d="M14.093,14.555c0.218,0.005,0.39,0.185,0.385,0.403s-0.185,0.39-0.403,0.385s-0.39-0.185-0.385-0.403
	S13.875,14.55,14.093,14.555L14.093,14.555z"/>
</svg>
