<svg id="guias" xmlns="http://www.w3.org/2000/svg" viewBox="0 0 30 30"><title>delete</title><path d="M24.57,6.37H20.21V5.9A2.9,2.9,0,0,0,17.42,3Q15,3,12.56,3a2.89,2.89,0,0,0-2.75,2.6,7,7,0,0,0,0,.74H5.49a1.66,1.66,0,0,0-.58.09,1,1,0,0,0,.37,1.9h.85V23.15A3.8,3.8,0,0,0,10,27H20a3.77,3.77,0,0,0,3.85-3.86V8.37h.84a1,1,0,0,0,.71-.3,1,1,0,0,0-.85-1.69M17.25,5a.9.9,0,0,1,1,.92c0,.13,0,.26,0,.4H11.77v0a3.33,3.33,0,0,1,.13-.78A.77.77,0,0,1,12.69,5h4.56M20.06,25H10a1.78,1.78,0,0,1-1.78-1.42,2.39,2.39,0,0,1,0-.54q0-5,0-10.07V8.37H21.88V23A1.84,1.84,0,0,1,20.6,24.9a2,2,0,0,1-.54.08" fill="#5e5e5e"/><path d="M15,10a1,1,0,0,0-1,.86,2.76,2.76,0,0,0,0,.41V22.11a2.71,2.71,0,0,0,0,.41,1,1,0,0,0,1,.85h0a1,1,0,0,0,1-.85,3.17,3.17,0,0,0,0-.41V11.26a4.07,4.07,0,0,0,0-.41A1,1,0,0,0,15,10" fill="#5e5e5e"/><path d="M20,11.08a1,1,0,0,0-1.14-.33,1,1,0,0,0-.63,1q0,1.94,0,3.87v2.2q0,1.9,0,3.81a1,1,0,0,0,1,1.08h0a1,1,0,0,0,1-1.06q0-4.94,0-9.88a1.17,1.17,0,0,0-.21-.65" fill="#5e5e5e"/><path d="M11.78,11.73a1,1,0,1,0-2,0q0,5,0,9.9a1.19,1.19,0,0,0,.13.54,1,1,0,0,0,.86.51.87.87,0,0,0,.26,0,1,1,0,0,0,.74-1v-9.9Z" fill="#5e5e5e"/></svg>