<svg id="guias" xmlns="http://www.w3.org/2000/svg" viewBox="0 0 30 30"><title>iconos</title><path d="M24.57,6.37H20.211V5.9A2.9,2.9,0,0,0,17.424,3.03q-2.434-.039-4.863,0a2.885,2.885,0,0,0-2.746,2.6A7.023,7.023,0,0,0,9.8,6.37H8.563q-1.537,0-3.073,0a1.664,1.664,0,0,0-.583.088.99.99,0,0,0,.37,1.9c.159,0,.318,0,.48,0h.366V23.147A3.8,3.8,0,0,0,9.96,26.988l5.523,0,4.546,0a3.771,3.771,0,0,0,3.848-3.859V8.366h.365c.156,0,.314,0,.471,0a.98.98,0,0,0,.707-.3,1.009,1.009,0,0,0-.85-1.694M17.254,5.034a.9.9,0,0,1,.959.916c.008.131.008.263.006.4H11.773l0-.033a3.332,3.332,0,0,1,.128-.776.765.765,0,0,1,.79-.509q2.279-.014,4.561,0m2.81,19.941q-5.036.009-10.113,0a1.776,1.776,0,0,1-1.783-1.416,2.389,2.389,0,0,1-.044-.537q0-5.036,0-10.075V8.374h13.76V22.955A1.837,1.837,0,0,1,20.6,24.9a1.949,1.949,0,0,1-.535.078" fill="#5e5e5e"/><path d="M14.985,9.976a.966.966,0,0,0-.967.855,2.756,2.756,0,0,0-.025.414V22.111a2.711,2.711,0,0,0,.025.414.974.974,0,0,0,.976.854h0a.972.972,0,0,0,.986-.846,3.174,3.174,0,0,0,.023-.412V11.255a4.068,4.068,0,0,0-.02-.408.981.981,0,0,0-1-.871" fill="#5e5e5e"/><path d="M19.994,11.078a1.012,1.012,0,0,0-1.143-.331.985.985,0,0,0-.635.968q-.006,1.937,0,3.873v2.2q0,1.9,0,3.809a1,1,0,0,0,1,1.08h.006a1,1,0,0,0,.992-1.064q0-4.937,0-9.878a1.172,1.172,0,0,0-.213-.654" fill="#5e5e5e"/><path d="M11.783,11.732a1,1,0,1,0-1.99-.016q-.006,4.954,0,9.9a1.193,1.193,0,0,0,.13.539.958.958,0,0,0,.855.51.867.867,0,0,0,.263-.039.969.969,0,0,0,.741-1v-9.9Z" fill="#5e5e5e"/></svg>