<?xml version="1.0" encoding="utf-8"?>
<!-- Generator: Adobe Illustrator 21.0.2, SVG Export Plug-In . SVG Version: 6.00 Build 0)  -->
<svg version="1.1" id="guias" xmlns="http://www.w3.org/2000/svg" xmlns:xlink="http://www.w3.org/1999/xlink" x="0px" y="0px"
	 viewBox="0 0 30 30" style="enable-background:new 0 0 30 30;" xml:space="preserve">
<style type="text/css">
	.st0{fill:#5B5B5B;stroke:#5B5B5B;stroke-width:0.15;stroke-miterlimit:10;}
</style>
<path class="st0" d="M15.4,13.2c0,0.2-0.2,0.4-0.4,0.4s-0.4-0.2-0.4-0.4s0.2-0.4,0.4-0.4S15.4,13,15.4,13.2L15.4,13.2z"/>
<path class="st0" d="M16.7,12.4c0,0.2-0.2,0.4-0.4,0.4c-0.2,0-0.4-0.2-0.4-0.4c0-0.2,0.2-0.4,0.4-0.4C16.5,12,16.7,12.2,16.7,12.4
	C16.7,12.4,16.7,12.4,16.7,12.4z"/>
<path class="st0" d="M14.2,12.4c0,0.2-0.2,0.4-0.4,0.4c-0.2,0-0.4-0.2-0.4-0.4c0-0.2,0.2-0.4,0.4-0.4C14,12,14.2,12.2,14.2,12.4
	C14.2,12.4,14.2,12.4,14.2,12.4z"/>
<path class="st0" d="M12.9,11.6c0,0.2-0.2,0.4-0.4,0.4s-0.4-0.2-0.4-0.4s0.2-0.4,0.4-0.4h0C12.7,11.1,12.9,11.3,12.9,11.6
	C12.9,11.6,12.9,11.6,12.9,11.6z"/>
<path class="st0" d="M17.9,11.6c0,0.2-0.2,0.4-0.4,0.4s-0.4-0.2-0.4-0.4c0-0.2,0.2-0.4,0.4-0.4l0,0C17.8,11.1,17.9,11.3,17.9,11.6
	C17.9,11.6,17.9,11.6,17.9,11.6z"/>
<path class="st0" d="M19.2,10.7c0,0.2-0.2,0.4-0.4,0.4s-0.4-0.2-0.4-0.4c0-0.2,0.2-0.4,0.4-0.4l0,0C19,10.3,19.2,10.5,19.2,10.7z"/>
<path class="st0" d="M11.6,10.7c0,0.2-0.2,0.4-0.4,0.4s-0.4-0.2-0.4-0.4s0.2-0.4,0.4-0.4S11.6,10.5,11.6,10.7z"/>
<path class="st0" d="M15.4,11.6c0,0.2-0.2,0.4-0.4,0.4c-0.2,0-0.4-0.2-0.4-0.4c0-0.2,0.2-0.4,0.4-0.4c0,0,0,0,0,0
	C15.2,11.1,15.4,11.3,15.4,11.6C15.4,11.6,15.4,11.6,15.4,11.6L15.4,11.6z"/>
<path class="st0" d="M15.4,16.6c0,0.2-0.2,0.4-0.4,0.4s-0.4-0.2-0.4-0.4c0-0.2,0.2-0.4,0.4-0.4c0,0,0,0,0,0
	C15.2,16.2,15.4,16.4,15.4,16.6L15.4,16.6z"/>
<path class="st0" d="M15.4,17.9c0,0.2-0.2,0.4-0.4,0.4c-0.2,0-0.4-0.2-0.4-0.4c0-0.2,0.2-0.4,0.4-0.4c0,0,0,0,0,0
	C15.2,17.4,15.4,17.6,15.4,17.9C15.4,17.9,15.4,17.9,15.4,17.9L15.4,17.9z"/>
<path class="st0" d="M15.4,19.1c0,0.2-0.2,0.4-0.4,0.4s-0.4-0.2-0.4-0.4c0-0.2,0.2-0.4,0.4-0.4C15.2,18.7,15.4,18.9,15.4,19.1
	L15.4,19.1z"/>
<path class="st0" d="M15.4,20.4c0,0.2-0.2,0.4-0.4,0.4s-0.4-0.2-0.4-0.4c0-0.2,0.2-0.4,0.4-0.4c0,0,0,0,0,0
	C15.2,20,15.4,20.2,15.4,20.4z"/>
<path class="st0" d="M15.4,21.6c0,0.2-0.2,0.4-0.4,0.4c-0.2,0-0.4-0.2-0.4-0.4c0-0.2,0.2-0.4,0.4-0.4h0
	C15.2,21.2,15.4,21.4,15.4,21.6z"/>
<path class="st0" d="M15.4,22.9c0,0.2-0.2,0.4-0.4,0.4s-0.4-0.2-0.4-0.4c0-0.2,0.2-0.4,0.4-0.4c0,0,0,0,0,0
	C15.2,22.5,15.4,22.7,15.4,22.9L15.4,22.9z"/>
<path class="st0" d="M25.1,26.7h-1.3V25h-2.1v-4.3c0-1.1-0.6-2.2-1.5-2.8l-4.5-3l4.5-3c0.9-0.6,1.5-1.7,1.5-2.8V4.8h2.1V3.2h1.3
	c0.2,0,0.4-0.2,0.4-0.4c0-0.2-0.2-0.4-0.4-0.4H4.9c-0.2,0-0.4,0.2-0.4,0.4c0,0.2,0.2,0.4,0.4,0.4h1.3v1.7h2.1v4.3
	c0,1.1,0.6,2.2,1.5,2.8l4.5,3l-4.5,3c-0.9,0.6-1.5,1.7-1.5,2.8V25H6.2v1.7H4.9c-0.2,0-0.4,0.2-0.4,0.4c0,0.2,0.2,0.4,0.4,0.4h20.2
	c0.2,0,0.4-0.2,0.4-0.4C25.5,26.9,25.3,26.7,25.1,26.7L25.1,26.7z M7,4V3.2h16V4H7z M10.3,11.3C9.5,10.8,9.1,10,9.1,9.1V4.8h11.8
	v4.3c0,0.9-0.4,1.6-1.1,2.1L15,14.4L10.3,11.3z M9.1,20.7c0-0.9,0.4-1.6,1.1-2.1l4.7-3.2l4.7,3.2c0.7,0.5,1.1,1.3,1.1,2.1V25H9.1
	V20.7z M7,25.8h16v0.8H7L7,25.8z"/>
</svg>
