<svg id="guias" xmlns="http://www.w3.org/2000/svg" viewBox="0 0 30 30"><title>iconos nuevos</title><path d="M22.651,6.4C18.8,2.55,11.917,3.19,7.275,7.832S1.994,19.357,5.844,23.207s10.734,3.21,15.376-1.433S26.5,10.251,22.651,6.4ZM13.883,24.562c-.783.23-.68-1.688-.68-2.489-1.045-.412-1.891-.728-2.719-1.079-.964-.41-.991-1.187-.649-2,.409-.975,1.048-.655,1.834-.375a12.365,12.365,0,0,0,3.234.616,1.06,1.06,0,0,0,1-.818,1.192,1.192,0,0,0-.541-1.177c-.633-.471-1.418-.725-2.091-1.149a13.945,13.945,0,0,1-2.716-1.918A3.8,3.8,0,0,1,11.6,8.089c.478-.264.963-.512,1.754-.93-5.6.014-9.623,7.638-7.637,13.71-1.461-1.7-1.838-4.3-.914-7.153A12.307,12.307,0,0,1,13.055,5.47c2.585-.857,2.64-.789,2.806,1.861.412.144.866.275,1.295.46.717.306,1.662.5,1.218,1.637a1.357,1.357,0,0,1-2.048.821,4.724,4.724,0,0,0-2.015-.361c-.442.028-1.092.077-1.225.773a1.347,1.347,0,0,0,.619,1.133c1.115.72,2.316,1.3,3.467,1.971,1.46.846,2.534,1.974,2.473,3.8a4.488,4.488,0,0,1-2.159,3.737c-.415.3-1.042.556-1.638.978C21.168,21.5,24.5,15.571,23.312,9.4c1.438,1.881,1.385,5.511-.261,8.5C20.948,21.719,18.293,23.813,13.883,24.562Z" fill="#5e5f5e"/></svg>