<svg id="guias" xmlns="http://www.w3.org/2000/svg" viewBox="0 0 30 30"><title>envelope_check</title><path d="M24.325,13.956V6.707a2.029,2.029,0,0,0-.4-1.213.052.052,0,0,1-.005-.014c-.005-.007-.014-.009-.017-.016a1.953,1.953,0,0,0-1.547-.779H5.07a1.949,1.949,0,0,0-1.543.777c-.006.008-.015.011-.021.019s0,.012-.009.017a2.037,2.037,0,0,0-.4,1.21v12.66A2,2,0,0,0,5.07,21.39h10.14a6.2,6.2,0,1,0,9.115-7.434Zm-3.18-7.517-7.434,5.506L6.275,6.439ZM5.07,19.635a.25.25,0,0,1-.22-.268V7.568L13.19,13.74a.873.873,0,0,0,1.045,0l8.336-6.173V13.19A6.177,6.177,0,0,0,14.8,19.183c0,.153.012.3.023.452Zm19.552-2.128-.3.3L20.784,21.39l-.383.388a.659.659,0,0,1-.463.2h-.006a.661.661,0,0,1-.454-.18l-.427-.4-1.659-1.567a.658.658,0,0,1-.026-.931.678.678,0,0,1,.931-.027l.815.77.8.758.75-.758,1.906-1.927,1.114-1.127a.668.668,0,0,1,.64-.158.624.624,0,0,1,.293.153.655.655,0,0,1,.2.464A.647.647,0,0,1,24.623,17.507Z" fill="#5e5e5e"/></svg>