<svg id="guias" xmlns="http://www.w3.org/2000/svg" viewBox="0 0 30 30"><title>iconos</title><path d="M18.182,12.789a1,1,0,0,0,.7-.285l6.225-6.129V9.916a1,1,0,0,0,1.99,0V4.037a.968.968,0,0,0-.078-.425,1.152,1.152,0,0,0-.088-.136,1.147,1.147,0,0,0-.113-.174l-.01,0A.984.984,0,0,0,26.1,3c-.023,0-.047.014-.072.015S25.982,3,25.957,3H20.033a.995.995,0,0,0,0,1.989h3.654l-6.2,6.1a.995.995,0,0,0,.7,1.7" fill="#5e5e5e"/><path d="M27.1,25.963V20.086a1,1,0,0,0-1.99,0v3.539L18.881,17.5a.994.994,0,0,0-1.395,1.416l6.2,6.1H20.035a.994.994,0,0,0,0,1.988h5.922a.64.64,0,0,0,.07-.016c.025,0,.049.016.074.016a.975.975,0,0,0,.705-.3l.01,0a1.283,1.283,0,0,0,.113-.176,1.314,1.314,0,0,0,.088-.135,1.04,1.04,0,0,0,.078-.428" fill="#5e5e5e"/><path d="M6.313,4.985H9.965A.994.994,0,1,0,9.965,3H4.041c-.025,0-.045.014-.07.015S3.924,3,3.9,3a.985.985,0,0,0-.7.3l-.008,0a1.11,1.11,0,0,0-.113.172.865.865,0,0,0-.088.138,1.008,1.008,0,0,0-.078.428V9.916a.994.994,0,0,0,1.988,0V6.376L11.119,12.5a.994.994,0,0,0,1.395-1.415Z" fill="#5e5e5e"/><path d="M11.119,17.5,4.893,23.625V20.086a.993.993,0,1,0-1.986,0v5.877a.977.977,0,0,0,.076.428,1.193,1.193,0,0,0,.09.139,1.08,1.08,0,0,0,.111.172l.008,0A.985.985,0,0,0,3.9,27c.025,0,.045-.014.072-.014s.045.014.07.014H9.965a.993.993,0,1,0,0-1.986H6.313l6.2-6.1A.994.994,0,0,0,11.119,17.5" fill="#5e5e5e"/></svg>