<svg id="guias" xmlns="http://www.w3.org/2000/svg" viewBox="0 0 30 30"><title>iconos</title><path d="M23.714,3.2H6.285A3.215,3.215,0,0,0,3.07,6.419V23.848a3.215,3.215,0,0,0,3.215,3.215H14.88l.016-8.526H12.68a.521.521,0,0,1-.521-.52l-.01-2.748a.52.52,0,0,1,.521-.524h2.21V12.089c0-3.082,1.883-4.761,4.632-4.761h2.255a.523.523,0,0,1,.523.523v2.317a.521.521,0,0,1-.521.523H20.383c-1.494,0-1.784.711-1.784,1.753v2.3h3.286a.521.521,0,0,1,.518.584l-.326,2.749a.52.52,0,0,1-.519.46H18.613L18.6,27.064h5.115a3.216,3.216,0,0,0,3.215-3.216V6.419A3.216,3.216,0,0,0,23.714,3.2Zm0,0" fill="#5b5b5b"/></svg>