<?xml version="1.0" encoding="utf-8"?>
<!-- Generator: Adobe Illustrator 21.0.2, SVG Export Plug-In . SVG Version: 6.00 Build 0)  -->
<svg version="1.1" id="guias" xmlns="http://www.w3.org/2000/svg" xmlns:xlink="http://www.w3.org/1999/xlink" x="0px" y="0px"
	 viewBox="0 0 30 30" style="enable-background:new 0 0 30 30;" xml:space="preserve">
<style type="text/css">
	.st0{fill:#5B5B5B;stroke:#5B5B5B;stroke-width:0.15;stroke-miterlimit:10;}
</style>
<path class="st0" d="M14.2,0.9C6.5,1.3,0.5,7.8,0.9,15.6c0.1,2,0.6,3.9,1.5,5.7l-1.5,7.2c-0.1,0.3,0.1,0.6,0.4,0.6
	c0.1,0,0.2,0,0.2,0l7.1-1.7c6.9,3.4,15.3,0.6,18.8-6.3S28,5.8,21.1,2.3C19,1.3,16.6,0.8,14.2,0.9z M25.4,11.7l-7.7,7.7
	c-0.2,0.2-0.6,0.3-0.9,0l-4.2-3.6L6,19.5c-0.3,0.2-0.7,0.1-0.9-0.3C5,19,5,18.7,5.2,18.5l7.7-7.7c0.2-0.2,0.6-0.3,0.9,0l4.2,3.6
	l6.7-3.6c0.3-0.2,0.7-0.1,0.9,0.3C25.6,11.2,25.6,11.5,25.4,11.7L25.4,11.7z"/>
</svg>
