<?xml version="1.0" encoding="utf-8"?>
<!-- Generator: Adobe Illustrator 21.0.2, SVG Export Plug-In . SVG Version: 6.00 Build 0)  -->
<svg version="1.1" id="guias" xmlns="http://www.w3.org/2000/svg" xmlns:xlink="http://www.w3.org/1999/xlink" x="0px" y="0px"
	 viewBox="0 0 30 30" style="enable-background:new 0 0 30 30;" xml:space="preserve">
<style type="text/css">
	.st0{fill:#5E5F5F;}
</style>
<title>iconos</title>
<path class="st0" d="M21,2l-3.4,0c-3.8,0-6.3,2.5-6.3,6.4v3H8c-0.3,0-0.5,0.2-0.5,0.5v4.3c0,0.3,0.2,0.5,0.5,0.5h3.4v10.8
	c0,0.3,0.2,0.5,0.5,0.5h4.4c0.3,0,0.5-0.2,0.5-0.5V16.8h4c0.3,0,0.5-0.2,0.5-0.5v-4.3c0-0.1-0.1-0.3-0.2-0.4
	c-0.1-0.1-0.2-0.2-0.4-0.2h-4V8.9c0-1.2,0.3-1.8,1.9-1.8H21c0.3,0,0.5-0.2,0.5-0.5v-4C21.6,2.2,21.3,2,21,2z"/>
</svg>
