<svg id="guias" xmlns="http://www.w3.org/2000/svg" viewBox="0 0 30 30"><title>iconos</title><path d="M21.24,16.224a8.014,8.014,0,0,0,2.144-5.564,8.34,8.34,0,0,0-1.275-4.487A8.066,8.066,0,0,0,18.7,3.113a8.324,8.324,0,0,0-8.216.454A7.961,7.961,0,0,0,7.828,6.314,7.675,7.675,0,0,0,6.65,9.944a8.125,8.125,0,0,0,.763,4.281,8.245,8.245,0,0,0,6.3,4.714v2.9H10.972a.77.77,0,0,0-.555.254.778.778,0,0,0-.259.561v.926a.634.634,0,0,0,.252.552.772.772,0,0,0,.562.261h2.743v2.745a.637.637,0,0,0,.312.609.841.841,0,0,0,.551.205h.879a.846.846,0,0,0,.813-.814V24.388h2.744a.825.825,0,0,0,.595-.246.736.736,0,0,0,.219-.566v-.926a1.036,1.036,0,0,0-.141-.465l-.066-.092a.838.838,0,0,0-.606-.258H16.269V18.93A8.081,8.081,0,0,0,21.24,16.224Zm-.359-5.564a5.6,5.6,0,0,1-1.742,4.122,5.593,5.593,0,0,1-4.122,1.741,5.645,5.645,0,0,1-4.17-1.741A5.561,5.561,0,0,1,9.153,10.66,5.784,5.784,0,0,1,15.017,4.8,5.563,5.563,0,0,1,19.138,6.49,5.645,5.645,0,0,1,20.881,10.66Z" fill="#5e5e5e"/></svg>