<svg id="guias" xmlns="http://www.w3.org/2000/svg" viewBox="0 0 30 30"><title>iconos</title><path d="M9.681,22.887H26.049a2.822,2.822,0,0,1,.436.029.8.8,0,0,1,.708.86.827.827,0,0,1-.789.792c-.086.007-.173,0-.263,0q-8.076,0-16.153-.006a.387.387,0,0,0-.434.292,3.188,3.188,0,1,1-5.2-3.406,3.026,3.026,0,0,1,3.594-.589,4.17,4.17,0,0,1,.942.763,2.752,2.752,0,0,1,.472.58,5.784,5.784,0,0,1,.316.682M6.561,25.231a1.479,1.479,0,1,0,.008-2.957,1.479,1.479,0,0,0-.008,2.957" fill="#5e5e5e" fill-rule="evenodd"/><path d="M12.47,5.37q4.081,0,8.167,0a.363.363,0,0,0,.42-.273,3.173,3.173,0,1,1,2.187,4.2,3.04,3.04,0,0,1-2.265-2.133c-.02-.068-.125-.123-.2-.149a.745.745,0,0,0-.231-.006q-8.109,0-16.213,0c-.609,0-.99-.35-.966-.876a.8.8,0,0,1,.823-.777q4.138,0,8.279,0Zm10.039.8a1.563,1.563,0,0,0,1.528,1.545A1.524,1.524,0,0,0,25.526,6.2a1.481,1.481,0,0,0-1.491-1.509,1.529,1.529,0,0,0-1.526,1.483" fill="#5e5e5e" fill-rule="evenodd"/><path d="M22.111,15.795c-1.386,0-2.769,0-4.155,0a.28.28,0,0,0-.327.23,3.16,3.16,0,0,1-6,.017.3.3,0,0,0-.345-.249q-3.437.012-6.876,0a1.812,1.812,0,0,1-.488-.054.823.823,0,0,1,.148-1.6,2.944,2.944,0,0,1,.322-.01q3.419,0,6.845,0a.352.352,0,0,0,.4-.265,3.211,3.211,0,0,1,2.425-2.01,2.99,2.99,0,0,1,2.13.393,2.8,2.8,0,0,1,1.392,1.659c.073.213.2.221.375.221q4.14,0,8.28,0c.572,0,.921.289.949.772a.835.835,0,0,1-.9.893c-.936.006-1.872,0-2.811,0Zm-7.471-2.283A1.522,1.522,0,0,0,13.09,15a1.635,1.635,0,0,0,1.554,1.542A1.612,1.612,0,0,0,16.128,15a1.516,1.516,0,0,0-1.487-1.488" fill="#5e5e5e" fill-rule="evenodd"/></svg>