<svg id="guias" xmlns="http://www.w3.org/2000/svg" viewBox="0 0 30 30"><title>iconos</title><path d="M27.989,10.141h-7c-.321,0-.44.115-.456.437-.007.144,0,.289,0,.435l0,.315h-.106c-.145,0-.285,0-.425,0s-.265,0-.394,0c-.223,0-.4-.006-.568-.018a1.063,1.063,0,0,1-.639-.244c-.419-.416-.826-.856-1.22-1.281-.146-.157-.291-.314-.439-.471l-.069-.074.071-.073c.127-.128.26-.262.392-.4.358-.366.728-.744,1.121-1.107a1.3,1.3,0,0,1,.713-.338,5.659,5.659,0,0,1,.595-.027c.136,0,.272,0,.413.006s.295.006.448.006h.1v.316c0,.143,0,.274,0,.407.016.335.147.467.469.467q3.486.008,6.969,0c.339,0,.479-.14.479-.48q.006-1.117,0-2.233c0-.327-.14-.466-.459-.466q-3.5-.006-7,0c-.311,0-.441.126-.458.446-.007.137-.006.276,0,.424,0,.072,0,.146,0,.223v.106H19.272a2.2,2.2,0,0,0-1.657.69c-.33.345-.671.683-1.018,1.027l-.471.469-.075.075-.322-.327c-.162-.166-.319-.327-.479-.484a2.282,2.282,0,0,0-1.6-.748,2.268,2.268,0,0,0-1.586.734c-.165.163-.322.331-.485.507-.08.084-.157.17-.241.256l-.075.081-.334-.348c-.178-.185-.34-.355-.51-.521a2.225,2.225,0,0,0-1.562-.706,2.213,2.213,0,0,0-1.56.707c-.17.168-.336.34-.508.517L6.455,8.8,6.378,8.72l-.3-.309c-.2-.212-.4-.412-.6-.6a1.986,1.986,0,0,0-2.02-.48,2.071,2.071,0,0,0-.251,3.878,2.006,2.006,0,0,0,.845.185,2.072,2.072,0,0,0,1.478-.622c.185-.187.361-.382.548-.589.091-.1.184-.2.281-.307l.076-.082.353.372c.17.182.324.344.481.5a2.253,2.253,0,0,0,1.587.732,2.249,2.249,0,0,0,1.579-.726c.165-.163.324-.33.5-.509l.336-.351.076.081c.1.1.189.2.279.3.187.2.363.4.55.572a2.066,2.066,0,0,0,3.02-.053c.174-.174.338-.356.513-.549.08-.089.163-.182.249-.275l.075-.081.077.079c.149.15.294.293.434.431.3.3.588.579.854.879a2.464,2.464,0,0,0,2.182.9,5.476,5.476,0,0,1,.576-.008c.091,0,.182,0,.276,0h.105v.6c0,.521.095.612.618.612h3.993l1.633,0q.582,0,1.165,0c.38,0,.508-.123.509-.477q.006-1.117,0-2.233C28.449,10.263,28.323,10.141,27.989,10.141ZM21.32,6.12h6.361v1.6H21.32ZM5.84,9.386c-.1.1-.2.2-.289.293-.205.21-.4.408-.606.6a1.356,1.356,0,0,1-.9.355,1.287,1.287,0,0,1-.952-.425,1.319,1.319,0,0,1,.025-1.814A1.279,1.279,0,0,1,4.039,8a1.372,1.372,0,0,1,.938.378c.2.185.389.379.588.579.09.091.181.183.275.277l.073.075ZM10.6,9.369q-.148.155-.29.31a9.088,9.088,0,0,1-.656.664,1.2,1.2,0,0,1-.792.291h0a1.315,1.315,0,0,1-.748-.236,2.6,2.6,0,0,1-.261-.217l-.043-.041c-.177-.16-.352-.321-.52-.476l-.3-.28.073-.078c.108-.115.211-.226.31-.334.211-.23.409-.448.627-.644a1.305,1.305,0,0,1,1.738.02c.207.191.407.4.6.6l.264.272.072.074Zm4.827.052c-.1.1-.205.2-.306.3a9.331,9.331,0,0,1-.732.671,1.193,1.193,0,0,1-.735.253,1.219,1.219,0,0,1-.8-.3,8.772,8.772,0,0,1-.66-.671c-.095-.1-.193-.211-.293-.318l-.072-.075L11.9,9.2c.086-.085.174-.173.259-.26.19-.191.387-.39.589-.576A1.342,1.342,0,0,1,13.653,8a1.3,1.3,0,0,1,.879.35c.212.192.407.4.613.619.093.1.188.2.287.3l.075.077Zm12.254,3.1H21.32V10.907h6.363Z" fill="#5b5b5b"/><path d="M24.435,17.016H20.892c-.411,0-.517.107-.519.518v1.4H13.232v-.52c0-.309,0-.613,0-.916,0-.367-.125-.484-.5-.486H9.163c-.387,0-.5.119-.5.51q0,3.334,0,6.67c0,.4.117.521.524.521l1.855,0,1.66,0c.421,0,.53-.113.532-.543V22.779h7.141v1.459c0,.352.127.477.473.479q1.8,0,3.6,0c.366,0,.489-.125.489-.494v-6.7C24.938,17.131,24.824,17.018,24.435,17.016ZM12.453,23.928H9.446V17.807h3.007Zm7.905-1.936H13.249v-2.26h7.109Zm3.806,1.928H21.148V17.793h3.016Z" fill="#5b5b5b"/><path d="M18.445,13.128H14.9c-.445,0-.541.1-.543.556v1.363H7.236l0-.5c0-.3,0-.592,0-.886-.007-.4-.134-.528-.524-.528H3.167c-.4,0-.524.122-.524.522v6.643c0,.414.122.535.543.537H5.777c.137,0,.263,0,.377,0l.273,0c.38,0,.591-.018.69-.117.13-.131.127-.48.121-1.117l0-.477v-.2l.094-.01c.693-.074.742-.205.736-.381-.009-.387-.247-.41-.632-.416l-.177,0V15.852h7.1v.76c0,.25,0,.924.006,1.172a.366.366,0,0,0,.364.379h0a.379.379,0,0,0,.382-.363,2.355,2.355,0,0,0,.009-.248V14.318c0-.073,0-.146.009-.219l.011-.2H18.17v1.171c0,.7,0,1.842.007,2.553a.678.678,0,0,0,.138.432.521.521,0,0,0,.387.064c.1-.02.23-.086.23-.41V15.885q0-1.149,0-2.293C18.927,13.246,18.8,13.129,18.445,13.128ZM6.432,20.045H3.424V13.9H6.432Z" fill="#5b5b5b"/></svg>