<svg id="guias" xmlns="http://www.w3.org/2000/svg" viewBox="0 0 30 30"><title>iconos</title><path d="M19.462,17.029h.29q2.6,0,5.2,0a1.945,1.945,0,0,1,1.994,1.4,1.911,1.911,0,0,1-1.811,2.438c-.751.01-1.5,0-2.254,0H4.938a1.839,1.839,0,0,1-1.726-1.025,1.8,1.8,0,0,1,.108-1.957,1.952,1.952,0,0,1,1.749-.857c1.735.006,3.47,0,5.2,0h.279a.41.41,0,0,0,.014-.053c-.419-.229-.836-.461-1.258-.682a.65.65,0,0,0-.264-.025H5.075a1.006,1.006,0,0,1-.267-.02.351.351,0,0,1-.277-.377.34.34,0,0,1,.3-.354,1.267,1.267,0,0,1,.239-.017c1.369,0,2.736-.006,4.1.006a1.239,1.239,0,0,1,.557.146Q12.246,17,14.744,18.379a.457.457,0,0,0,.51.008q2.5-1.377,5.012-2.727a1.3,1.3,0,0,1,.582-.152c1.358-.013,2.719-.007,4.078-.006a1.423,1.423,0,0,1,.24.014.343.343,0,0,1,.313.371.361.361,0,0,1-.316.376,1.223,1.223,0,0,1-.24.008c-1.287,0-2.574-.006-3.861.008a1.5,1.5,0,0,0-.6.156c-.344.16-.674.357-1.009.541C19.453,16.994,19.457,17.012,19.462,17.029ZM15.008,20.1q4.986,0,9.975,0a1.649,1.649,0,0,0,.45-.045,1.137,1.137,0,0,0,.817-1.2,1.119,1.119,0,0,0-1.107-1.035q-3.539-.012-7.079,0a.824.824,0,0,0-.351.107c-.785.422-1.574.844-2.35,1.283a.653.653,0,0,1-.721,0c-.776-.439-1.565-.859-2.35-1.283a.771.771,0,0,0-.325-.1q-3.552-.009-7.105,0A1.054,1.054,0,0,0,3.9,18.4a1.134,1.134,0,0,0,1.023,1.7Q9.967,20.1,15.008,20.1Z" fill="#5b5b5b" fill-rule="evenodd"/><path d="M14.621,7.64V6.714q0-2.079,0-4.158c0-.458.25-.619.661-.43q1.692.776,3.379,1.559c.171.078.315.175.319.388s-.147.327-.328.41c-1,.462-2.007.933-3.016,1.386a.36.36,0,0,0-.252.4c.018.445.006.89.006,1.37H15.7c1.5,0,3-.015,4.506.014a5.484,5.484,0,0,1,5.273,5.266c.011.429.02.858.018,1.287,0,.41-.123.525-.529.525H5.035c-.346,0-.5-.1-.508-.377a7.873,7.873,0,0,1,.363-3.2,5.537,5.537,0,0,1,5.25-3.516c1.387,0,2.772,0,4.158,0Zm-9.3,6.315h19.4c0-.3,0-.586,0-.871a4.724,4.724,0,0,0-4.668-4.665q-5.041,0-10.082,0A4.517,4.517,0,0,0,6.809,9.678,4.875,4.875,0,0,0,5.316,13.954ZM17.688,4.083,15.409,3.035v2.1Z" fill="#5b5b5b" fill-rule="evenodd"/><path d="M5.331,22.4a2.5,2.5,0,0,0,.778,1.543A2.616,2.616,0,0,0,8,24.7q7.041,0,14.083,0a2.689,2.689,0,0,0,2.572-2.078,1.879,1.879,0,0,0,.016-.221H9.78a2.936,2.936,0,0,1-.294-.006.377.377,0,0,1,0-.752,1.5,1.5,0,0,1,.188,0H24.94c.446,0,.55.107.536.557a3.441,3.441,0,0,1-3.184,3.258c-.294.016-.588.021-.883.021q-6.586,0-13.17,0a3.638,3.638,0,0,1-2.4-.756,3.35,3.35,0,0,1-1.3-2.619c-.009-.328.119-.461.441-.461.977,0,1.95,0,2.924,0,.287,0,.453.143.453.377S8.19,22.4,7.9,22.4c-.752,0-1.5,0-2.254,0Z" fill="#5b5b5b" fill-rule="evenodd"/><path d="M20.343,23.559a.388.388,0,0,1-.364.383.383.383,0,1,1-.025-.766A.378.378,0,0,1,20.343,23.559Z" fill="#5b5b5b" fill-rule="evenodd"/><path d="M10.045,12.414a.377.377,0,0,1-.377-.4.365.365,0,0,1,.376-.363.383.383,0,0,1,.384.389A.4.4,0,0,1,10.045,12.414Z" fill="#5b5b5b" fill-rule="evenodd"/><path d="M8.889,10.95a.379.379,0,1,1-.757,0,.379.379,0,0,1,.757,0Z" fill="#5b5b5b" fill-rule="evenodd"/><path d="M21.5,11.34a.385.385,0,0,1-.373-.4.365.365,0,0,1,.381-.357.371.371,0,0,1,.377.365A.392.392,0,0,1,21.5,11.34Z" fill="#5b5b5b" fill-rule="evenodd"/></svg>