<svg id="guias" xmlns="http://www.w3.org/2000/svg" viewBox="0 0 30 30"><title>iconos</title><path d="M26.958,13.41v3.442a.534.534,0,0,1-.108.381.625.625,0,0,1-.326.22l-2.842.437a14.908,14.908,0,0,1-.653,1.419q1.034,1.313,1.691,2.13a.528.528,0,0,1,0,.764c-.292.364-.8.931-1.529,1.692-.8.732-1.293,1.093-1.475,1.093a.526.526,0,0,1-.381-.161L19.15,23.133a7.329,7.329,0,0,1-1.42.6c-.144,1.273-.293,2.235-.436,2.893-.036.289-.218.435-.546.435h-3.5a.53.53,0,0,1-.383-.106.481.481,0,0,1-.163-.328l-.437-2.893a11.8,11.8,0,0,1-1.42-.549L8.667,24.826a.534.534,0,0,1-.765,0A21.648,21.648,0,0,1,5.336,22.2a.534.534,0,0,1-.107-.382.444.444,0,0,1,.107-.327,4.47,4.47,0,0,1,.328-.465c.182-.236.328-.428.438-.573a4.82,4.82,0,0,0,.49-.6c.182-.255.31-.438.384-.549a7.332,7.332,0,0,1-.657-1.526l-2.838-.439c-.184,0-.293-.054-.328-.162a.524.524,0,0,1-.11-.382v-3.44a.523.523,0,0,1,.11-.382.579.579,0,0,1,.272-.221l2.894-.437A8.422,8.422,0,0,1,6.976,10.9q-.822-1.094-1.7-2.129a.687.687,0,0,1-.163-.383.668.668,0,0,1,.163-.382,9.644,9.644,0,0,1,1.53-1.638C7.573,5.6,8.066,5.22,8.283,5.22a.528.528,0,0,1,.383.162L10.85,7.076a7.36,7.36,0,0,1,1.418-.6c.149-1.272.293-2.237.438-2.894a.477.477,0,0,1,.549-.436h3.5a.543.543,0,0,1,.383.108.484.484,0,0,1,.16.328l.438,2.894a11.879,11.879,0,0,1,1.42.548l2.185-1.64a.531.531,0,0,1,.764,0A17.9,17.9,0,0,1,24.663,8.06c.074.035.111.146.111.328a.442.442,0,0,1-.111.328,3.827,3.827,0,0,1-.327.464c-.181.237-.328.429-.436.573a3.893,3.893,0,0,0-.49.628,4.857,4.857,0,0,1-.382.518,6.9,6.9,0,0,1,.653,1.527l2.842.439c.18,0,.289.053.326.16a.551.551,0,0,1,.108.384M18.985,15.1a3.912,3.912,0,1,0-1.144,2.839A3.989,3.989,0,0,0,18.985,15.1" fill="#5e5f5f"/></svg>