<svg id="guias" xmlns="http://www.w3.org/2000/svg" viewBox="0 0 30 30"><title>iconos</title><path d="M16.033,7.337v.636H14.009A1.311,1.311,0,0,0,12.7,9.284v2.977H10.674a1.311,1.311,0,0,0-1.309,1.31v4.407H7.1a.357.357,0,1,0,0,.714H21.427a.357.357,0,0,0,0-.714h-.392V6.307h0V5.592h0V5a1.312,1.312,0,0,0-1.309-1.31H17.343A1.312,1.312,0,0,0,16.033,5V7.337ZM13.65,17.978H10.08V13.57a.6.6,0,0,1,.594-.6h2.383a.594.594,0,0,1,.594.6ZM16.747,5a.6.6,0,0,1,.6-.595h2.383a.6.6,0,0,1,.6.595V17.978H17.7V9.284a1.314,1.314,0,0,0-.955-1.26Zm-.355,3.692a.6.6,0,0,1,.594.6v8.694H14.366V13.57a1.312,1.312,0,0,0-.953-1.26V9.284a.6.6,0,0,1,.6-.6Z" fill="#5e5f5e"/><path d="M24.013,5.592H21.039v.715h2.974a1.549,1.549,0,0,1,1.548,1.547V19.763a1.551,1.551,0,0,1-1.548,1.549H21.938a1.314,1.314,0,0,0-1.261-.954H9.246a1.313,1.313,0,0,0-1.261.954H5.911a1.551,1.551,0,0,1-1.548-1.549V7.854A1.549,1.549,0,0,1,5.911,6.307H16.033V5.592H5.911A2.265,2.265,0,0,0,3.648,7.854V19.763a2.265,2.265,0,0,0,2.263,2.263H7.985a1.31,1.31,0,0,0,1.261.952H12.7V25.6H8.294a.357.357,0,1,0,0,.714H21.631a.357.357,0,0,0,0-.714H17.225V22.978h3.452a1.311,1.311,0,0,0,1.261-.952h2.075a2.265,2.265,0,0,0,2.262-2.263V7.854A2.265,2.265,0,0,0,24.013,5.592ZM16.511,25.6h-3.1V22.978h3.1Zm4.166-3.335H9.246a.6.6,0,1,1,0-1.191H20.677a.6.6,0,0,1,0,1.191Z" fill="#5e5f5e"/><path d="M22.751,18.691h.07a.357.357,0,1,0,0-.714h-.07a.357.357,0,0,0,0,.714Z" fill="#5e5f5e"/></svg>