<svg id="guias" xmlns="http://www.w3.org/2000/svg" viewBox="0 0 30 30"><title>iconos</title><path d="M15,26.586A.983.983,0,0,1,14.3,26.3L4.2,16.309A6.884,6.884,0,0,1,9.327,4.836,6.833,6.833,0,0,1,15,7.531a6.848,6.848,0,0,1,5.675-2.695,6.858,6.858,0,0,1,5.166,11.4L15.693,26.3a.971.971,0,0,1-.7.287M9.327,6.812a4.908,4.908,0,0,0-3.693,8.142L15,24.207l9.4-9.324a4.8,4.8,0,0,0,1.182-3.162,4.914,4.914,0,0,0-4.908-4.91,4.56,4.56,0,0,0-4.719,3.25.989.989,0,0,1-1.909,0,4.559,4.559,0,0,0-4.718-3.25" fill="#5e5e5e"/></svg>