<?xml version="1.0" encoding="utf-8"?>
<!-- Generator: Adobe Illustrator 21.0.2, SVG Export Plug-In . SVG Version: 6.00 Build 0)  -->
<svg version="1.1" id="guias" xmlns="http://www.w3.org/2000/svg" xmlns:xlink="http://www.w3.org/1999/xlink" x="0px" y="0px"
	 viewBox="0 0 30 30" style="enable-background:new 0 0 30 30;" xml:space="preserve">
<style type="text/css">
	.st0{fill:#5E5F5F;}
</style>
<title>iconos</title>
<path class="st0" d="M26,10.4c-1.2-2.9-3.5-5.2-6.4-6.4c-1.5-0.6-3-0.9-4.6-0.9l0,0c-1.6,0-3.1,0.3-4.6,0.9C7.5,5.2,5.2,7.5,4,10.4
	c-1.2,2.9-1.2,6.3,0,9.2c1.2,2.9,3.5,5.2,6.4,6.4c2.9,1.2,6.3,1.2,9.2,0c1.4-0.6,2.7-1.5,3.8-2.6c1.1-1.1,2-2.4,2.6-3.8
	C27.2,16.7,27.2,13.3,26,10.4z M15,4.8c1.7,0,3.3,0.4,4.8,1.2l-2.6,2.6c-0.7-0.3-1.5-0.4-2.2-0.4c-0.8,0-1.5,0.1-2.2,0.4L10.2,6
	C11.7,5.2,13.3,4.8,15,4.8z M8.6,17.2L6,19.8c0,0,0,0,0,0l0,0l0,0c-0.8-1.5-1.2-3.1-1.2-4.8c0-1.7,0.4-3.3,1.2-4.8l2.6,2.6
	c-0.3,0.7-0.4,1.5-0.4,2.2C8.2,15.8,8.3,16.5,8.6,17.2z M15,25.2c-1.7,0-3.3-0.4-4.8-1.2l2.6-2.6c0.7,0.3,1.5,0.4,2.2,0.4
	c0.8,0,1.5-0.1,2.2-0.4l2.6,2.6C18.3,24.8,16.7,25.2,15,25.2z M15,20.1c-1.4,0-2.7-0.5-3.6-1.5c-0.9-0.9-1.5-2.2-1.5-3.6
	c0-2.8,2.2-5.1,5-5.1c2.8,0,5.1,2.2,5.1,5C20.1,17.8,17.8,20.1,15,20.1z M24,19.8l-2.6-2.6l0,0c0.3-0.7,0.4-1.5,0.4-2.2
	c0-0.8-0.1-1.5-0.4-2.2l2.6-2.6c0.8,1.5,1.2,3.1,1.2,4.8C25.2,16.7,24.8,18.3,24,19.8z"/>
</svg>
