<svg id="guias" xmlns="http://www.w3.org/2000/svg" viewBox="0 0 30 30"><title>iconos</title><path d="M15.177,3.094a11.865,11.865,0,0,1,4.6.931,11.854,11.854,0,0,1,6.37,6.372,11.837,11.837,0,0,1,0,9.206,12.362,12.362,0,0,1-2.557,3.815,12.269,12.269,0,0,1-3.813,2.557,11.853,11.853,0,0,1-9.208,0A11.852,11.852,0,0,1,4.2,19.6a11.848,11.848,0,0,1,0-9.206,11.851,11.851,0,0,1,6.371-6.372,11.825,11.825,0,0,1,4.6-.931M6.155,19.786,8.763,17.23A6.182,6.182,0,0,1,8.39,15a6.174,6.174,0,0,1,.373-2.232L6.155,10.209A10.025,10.025,0,0,0,5,15a10.024,10.024,0,0,0,1.16,4.789m9.022.325a5.082,5.082,0,1,0-3.626-1.487,5.127,5.127,0,0,0,3.626,1.487m0-15.3a10.028,10.028,0,0,0-4.79,1.163l2.56,2.6a6.23,6.23,0,0,1,2.23-.371,6.223,6.223,0,0,1,2.231.371l2.56-2.6a10.062,10.062,0,0,0-4.791-1.163m0,20.366a10.029,10.029,0,0,0,4.791-1.163l-2.56-2.6a6.2,6.2,0,0,1-2.231.372,6.207,6.207,0,0,1-2.23-.372l-2.56,2.6a10.023,10.023,0,0,0,4.79,1.163m6.417-7.951L24.2,19.786A10.047,10.047,0,0,0,25.361,15,10.041,10.041,0,0,0,24.2,10.209l-2.605,2.557A6.262,6.262,0,0,1,21.966,15a6.269,6.269,0,0,1-.372,2.232" fill="#5e5f5f"/></svg>