<svg id="guias" xmlns="http://www.w3.org/2000/svg" viewBox="0 0 30 30"><title>iconos</title><path d="M15,2.964A12.036,12.036,0,1,0,27.035,15,12.05,12.05,0,0,0,15,2.964ZM21.931,15a6.872,6.872,0,0,0-.558-2.724l2.919-2.918a10.894,10.894,0,0,1,0,11.285l-2.919-2.92A6.86,6.86,0,0,0,21.931,15ZM9.226,18.83a7.02,7.02,0,0,0,1.945,1.943L8.349,23.6a11.425,11.425,0,0,1-1.033-.912,10.992,10.992,0,0,1-.91-1.031Zm11.549-7.66A7.016,7.016,0,0,0,18.83,9.225L21.651,6.4a11.433,11.433,0,0,1,1.033.911,11.026,11.026,0,0,1,.91,1.033ZM20.153,17.5a.356.356,0,0,0-.063.121,5.732,5.732,0,0,1-2.437,2.451.613.613,0,0,0-.119.059,5.79,5.79,0,0,1-5.043.016.361.361,0,0,0-.113-.059,5.75,5.75,0,0,1-2.451-2.428.383.383,0,0,0-.06-.127A5.75,5.75,0,0,1,9.849,12.5a.405.405,0,0,0,.063-.118,5.807,5.807,0,0,1,2.436-2.454.425.425,0,0,0,.118-.057,5.733,5.733,0,0,1,5.038-.02.472.472,0,0,0,.118.064,5.8,5.8,0,0,1,2.453,2.428.428.428,0,0,0,.059.125,5.745,5.745,0,0,1,.021,5.037Zm-2.43-8.875a6.958,6.958,0,0,0-5.447,0L9.358,5.709a10.887,10.887,0,0,1,11.283,0ZM8.349,6.405l2.82,2.82A6.99,6.99,0,0,0,9.226,11.17L6.405,8.349a11.169,11.169,0,0,1,.91-1.033A11.35,11.35,0,0,1,8.349,6.405Zm3.928,14.968a6.941,6.941,0,0,0,5.447,0l2.918,2.918a10.873,10.873,0,0,1-11.283,0ZM21.651,23.6l-2.82-2.82a7.047,7.047,0,0,0,1.943-1.945l2.82,2.822a11.137,11.137,0,0,1-.91,1.031A11.291,11.291,0,0,1,21.651,23.6ZM8.627,17.723l-2.919,2.92a10.894,10.894,0,0,1,0-11.285l2.919,2.918a6.931,6.931,0,0,0,0,5.447Z" fill="#5e5f5f"/></svg>