<svg id="guias" xmlns="http://www.w3.org/2000/svg" viewBox="0 0 30 30"><title>iconos</title><path d="M23.545,15.033a.616.616,0,0,0-.628.631V25.816H17.5V21.608a.625.625,0,0,0-.6-.615h-3.77a.638.638,0,0,0-.644.615v4.208H7.069V16a.617.617,0,0,0-.628-.605.61.61,0,0,0-.6.605V26.448a.61.61,0,0,0,.6.6h6.683a.61.61,0,0,0,.6-.6V22.24h2.537v4.208a.613.613,0,0,0,.631.6h6.651a.612.612,0,0,0,.606-.6V15.664A.612.612,0,0,0,23.545,15.033Z" fill="#5e5f5f"/><path d="M27.465,15.575,21.637,9.72V5.707a.628.628,0,0,0-.643-.628.61.61,0,0,0-.6.628V8.479l-4.965-5a.579.579,0,0,0-.863,0L2.548,15.5a.635.635,0,0,0-.192.469.541.541,0,0,0,.186.39.593.593,0,0,0,.872.007L15.007,4.794l.074.076,11.5,11.6a.586.586,0,0,0,.444.157.683.683,0,0,0,.452-.164A.648.648,0,0,0,27.465,15.575Z" fill="#5e5f5f"/></svg>