<?xml version="1.0" encoding="utf-8"?>
<!-- Generator: Adobe Illustrator 21.0.2, SVG Export Plug-In . SVG Version: 6.00 Build 0)  -->
<svg version="1.1" id="guias" xmlns="http://www.w3.org/2000/svg" xmlns:xlink="http://www.w3.org/1999/xlink" x="0px" y="0px"
	 viewBox="0 0 30 30" style="enable-background:new 0 0 30 30;" xml:space="preserve">
<style type="text/css">
	.st0{fill:#5E5E5E;}
</style>
<path class="st0" d="M11.4,24.2c0.1,0.1,0.3,0.2,0.4,0.2c0.1,0,0.2,0,0.3-0.1c0.2-0.2,0.3-0.5,0.1-0.8c-0.5-0.6-0.9-1.4-1.2-2.3h3.3
	v3.2c0,0.3,0.2,0.6,0.6,0.6c0.3,0,0.6-0.2,0.6-0.6v-3.2h3.3c-0.3,0.9-0.7,1.7-1.2,2.3c-0.2,0.2-0.1,0.6,0.1,0.8
	c0.1,0.1,0.2,0.1,0.3,0.1c0.2,0,0.3-0.1,0.4-0.2c0.6-0.8,1.1-1.8,1.5-2.9h2.5c0.3,0,0.6-0.2,0.6-0.6c0-0.3-0.2-0.6-0.6-0.6h-2.2
	c0.4-1.5,0.6-3.1,0.7-4.7h3.5c0.3,0,0.6-0.2,0.6-0.6c0-0.3-0.2-0.6-0.6-0.6H21c0-1.6-0.3-3.3-0.7-4.7h2.2c0.3,0,0.6-0.2,0.6-0.6
	s-0.2-0.6-0.6-0.6H20c-0.4-1.2-0.9-2.1-1.5-2.9c-0.1-0.1-0.2-0.2-0.4-0.2c-0.1,0-0.3,0-0.4,0.1c-0.1,0.1-0.2,0.2-0.2,0.4
	c0,0.1,0,0.3,0.1,0.4c0.5,0.6,0.9,1.4,1.2,2.3h-3.3V5.4c0-0.3-0.2-0.6-0.6-0.6c-0.3,0-0.6,0.2-0.6,0.6v3.2h-3.3
	c0.3-0.9,0.7-1.7,1.2-2.3c0.1-0.1,0.1-0.3,0.1-0.4c0-0.1-0.1-0.3-0.2-0.4c-0.2-0.2-0.6-0.1-0.8,0.1c-0.6,0.8-1.1,1.8-1.5,2.9H7.5
	c-0.3,0-0.6,0.2-0.6,0.6s0.2,0.6,0.6,0.6h2.2C9.3,11.1,9,12.7,9,14.4H5.5c-0.3,0-0.6,0.2-0.6,0.6c0,0.3,0.2,0.6,0.6,0.6H9
	c0,1.6,0.3,3.3,0.7,4.7H7.5c-0.3,0-0.6,0.2-0.6,0.6c0,0.3,0.2,0.6,0.6,0.6H10C10.4,22.5,10.9,23.4,11.4,24.2z M10.1,14.4
	c0-1.7,0.3-3.3,0.7-4.7h3.7v4.7H10.1z M14.4,15.5v4.7h-3.7c-0.4-1.4-0.6-3.1-0.7-4.7H14.4z M15.6,14.4V9.7h3.7
	c0.4,1.4,0.6,3.1,0.7,4.7H15.6z M19.9,15.5c0,1.7-0.3,3.3-0.7,4.7h-3.7v-4.7H19.9z"/>
<path class="st0" d="M23.8,6.2c-2.3-2.3-5.5-3.6-8.8-3.6c-3.3,0-6.4,1.3-8.8,3.6c-2.3,2.3-3.6,5.5-3.6,8.8c0,2.4,0.7,4.7,2,6.7
	l-1.5,4.4c-0.1,0.2,0,0.4,0.1,0.6c0.2,0.2,0.4,0.2,0.6,0.1l4.4-1.5c2,1.3,4.3,2,6.7,2c3.3,0,6.4-1.3,8.8-3.6
	c2.3-2.3,3.6-5.5,3.6-8.8C27.4,11.6,26.1,8.5,23.8,6.2L23.8,6.2z M5.8,21.8c0.1-0.2,0-0.4-0.1-0.5c-1.3-1.9-2-4.1-2-6.3
	c0-6.2,5-11.2,11.2-11.2s11.2,5,11.2,11.2s-5,11.2-11.2,11.2c-2.3,0-4.5-0.7-6.3-2c-0.1-0.1-0.2-0.1-0.3-0.1c-0.1,0-0.1,0-0.2,0
	l-3.6,1.2L5.8,21.8z"/>
</svg>
