<?xml version="1.0" encoding="utf-8"?>
<!-- Generator: Adobe Illustrator 21.0.2, SVG Export Plug-In . SVG Version: 6.00 Build 0)  -->
<svg version="1.1" id="guias" xmlns="http://www.w3.org/2000/svg" xmlns:xlink="http://www.w3.org/1999/xlink" x="0px" y="0px"
	 viewBox="0 0 30 30" enable-background="new 0 0 30 30" xml:space="preserve">
<title>info</title>
<path fill="#5E5E5E" d="M15.058,26.992c3.176,0.043,6.228-1.231,8.431-3.519c2.23-2.273,3.489-5.324,3.511-8.508
	c0.003-3.184-1.286-6.234-3.571-8.451C21.227,4.226,18.175,2.952,15,2.995h-0.176c-3.129,0.015-6.121,1.283-8.31,3.519
	C4.245,8.761,2.978,11.829,3,15.022c-0.044,3.181,1.228,6.239,3.514,8.451c2.237,2.271,5.298,3.54,8.486,3.519H15.058z
	 M13.384,7.372V7.368c0.283-0.317,0.696-0.487,1.12-0.463c0.869-0.006,1.578,0.695,1.584,1.564c0,0.008,0,0.015,0,0.023
	c0.047,0.432-0.112,0.86-0.429,1.157c-0.299,0.319-0.717,0.5-1.155,0.5c-0.421,0.007-0.826-0.161-1.12-0.463
	c-0.31-0.317-0.477-0.747-0.461-1.19C12.832,8.062,13.015,7.617,13.384,7.372z M12.33,22.845c-0.571-0.264-0.792-0.637-0.66-1.125
	c0.001-0.513,0.418-0.928,0.931-0.927c0.02,0,0.039,0.001,0.059,0.002h2.046v-7.212h-1.782c-0.179,0.013-0.359-0.01-0.529-0.066
	c-0.481-0.075-0.824-0.506-0.79-0.991c0.045-0.48,0.39-0.878,0.858-0.991c0.068-0.004,0.135-0.015,0.2-0.034
	c0.065-0.018,0.132-0.029,0.2-0.033h2.7c0.606-0.086,1.168,0.335,1.254,0.941c0.015,0.105,0.015,0.211,0,0.316v8.067h1.98
	c0.748,0,1.122,0.33,1.121,0.991c0.086,0.662-0.242,1.037-0.99,1.125l-0.003,0.003H12.99C12.768,22.921,12.546,22.899,12.33,22.845z
	"/>
</svg>
