<svg id="guias" xmlns="http://www.w3.org/2000/svg" viewBox="0 0 30 30"><title>iconos</title><path d="M15,3.084c-.063,0-.13,0-.2,0A12,12,0,0,0,3.01,15.092,12,12,0,0,0,14.986,27.041l.063,0A11.977,11.977,0,0,0,15,3.084M25.153,15.1a9.987,9.987,0,0,1-2.983,7.112,10.093,10.093,0,0,1-7.163,2.979h-.067A10.145,10.145,0,1,1,25.153,15.1" fill="#5e5e5e"/><path d="M18.482,20.215c-.262,0-.52,0-.785,0l-1.01,0V13.043a.953.953,0,0,0-1.094-1.089q-1.2,0-2.392,0a1.865,1.865,0,0,0-.4.044.911.911,0,0,0-.057,1.762,2.07,2.07,0,0,0,.487.056c.233,0,.467,0,.7,0l.915,0v6.4l-1.1,0c-.251,0-.5,0-.75,0a.913.913,0,0,0-.3,1.77,1.948,1.948,0,0,0,.606.076c.794,0,1.592,0,2.386,0,.706,0,1.413,0,2.131,0l.217,0c.168,0,.349,0,.526-.018a.912.912,0,0,0,.9-.969.921.921,0,0,0-.979-.861" fill="#5e5e5e"/><path d="M14.635,10.736h.014A1.456,1.456,0,0,0,16.08,9.294a1.437,1.437,0,0,0-1.441-1.427A1.424,1.424,0,0,0,13.214,9.3a1.431,1.431,0,0,0,1.421,1.434m0-.086h0v0Z" fill="#5e5e5e"/></svg>