<?xml version="1.0" encoding="utf-8"?>
<!-- Generator: Adobe Illustrator 21.0.2, SVG Export Plug-In . SVG Version: 6.00 Build 0)  -->
<svg version="1.1" id="guias" xmlns="http://www.w3.org/2000/svg" xmlns:xlink="http://www.w3.org/1999/xlink" x="0px" y="0px"
	 viewBox="0 0 30 30" style="enable-background:new 0 0 30 30;" xml:space="preserve">
<style type="text/css">
	.st0{fill:#5E5E5E;}
</style>
<g>
	<path class="st0" d="M15,3.1c-0.1,0-0.1,0-0.2,0C8.3,3.2,3,8.5,3,15.1C3,21.7,8.4,27,15,27H15c6.6,0,12-5.4,12-12S21.6,3.1,15,3.1z
		 M22.2,22.2c-1.9,1.9-4.5,3-7.2,3h-0.1C9.3,25.2,4.8,20.6,4.9,15c0-5.6,4.6-10.1,10.2-10.1c5.6,0,10.1,4.6,10.1,10.2
		C25.2,17.8,24.1,20.3,22.2,22.2z"/>
	<path class="st0" d="M18.5,20.2C18.5,20.2,18.5,20.2,18.5,20.2L18.5,20.2c-0.3,0-0.5,0-0.8,0h-1V13c0.1-0.5-0.3-1-0.8-1.1
		c-0.1,0-0.2,0-0.3,0c-0.8,0-1.6,0-2.4,0c-0.1,0-0.3,0-0.4,0c-0.5,0.1-0.8,0.6-0.7,1.1c0.1,0.3,0.3,0.6,0.6,0.7
		c0.2,0,0.3,0.1,0.5,0.1c0.2,0,0.5,0,0.7,0h0.9v6.4h-1.1c-0.3,0-0.5,0-0.8,0c-0.5,0-0.9,0.4-0.9,0.9c0,0.4,0.2,0.7,0.6,0.8
		c0.2,0.1,0.4,0.1,0.6,0.1c0.8,0,1.6,0,2.4,0c0.7,0,1.4,0,2.1,0H18c0.2,0,0.3,0,0.5,0c0.5,0,0.9-0.4,0.9-0.9c0,0,0,0,0,0
		C19.4,20.6,19,20.2,18.5,20.2z"/>
	<path class="st0" d="M14.6,10.7L14.6,10.7L14.6,10.7c0.8,0,1.4-0.7,1.4-1.4c0-0.8-0.6-1.4-1.4-1.4c-0.8,0-1.4,0.6-1.4,1.4
		c0,0,0,0,0,0C13.2,10.1,13.8,10.7,14.6,10.7z"/>
</g>
</svg>
