<svg id="guias" xmlns="http://www.w3.org/2000/svg" viewBox="0 0 30 30"><title>iconos</title><circle cx="21.536" cy="8.498" r="1.564" fill="#5b5b5b"/><path d="M15,21.5a6.525,6.525,0,1,0-6.525-6.525A6.532,6.532,0,0,0,15,21.5Zm0-10.512a3.987,3.987,0,1,1-3.986,3.986A3.986,3.986,0,0,1,15,10.987Z" fill="#5b5b5b"/><path d="M9.9,27.588H20.1a7.523,7.523,0,0,0,7.516-7.515V9.876A7.523,7.523,0,0,0,20.1,2.36H9.9A7.523,7.523,0,0,0,2.385,9.876v10.2A7.523,7.523,0,0,0,9.9,27.588ZM4.923,9.876A4.978,4.978,0,0,1,9.9,4.9H20.1a4.978,4.978,0,0,1,4.977,4.978v10.2A4.977,4.977,0,0,1,20.1,25.051H9.9a4.978,4.978,0,0,1-4.978-4.978Z" fill="#5b5b5b"/></svg>