<svg id="guias" xmlns="http://www.w3.org/2000/svg" viewBox="0 0 30 30"><title>iconos</title><path d="M20.05,22.748H5.2a2.394,2.394,0,0,1-2.353-2.43V9.68A2.393,2.393,0,0,1,5.2,7.252H20.05a2.294,2.294,0,0,1,1.589.661c5.9,6.307,5.9,6.719,5.9,7.084,0,.973-5.615,6.8-5.854,7.05a.8.8,0,0,1-.127.109,2.2,2.2,0,0,1-1.51.592M5.2,8.958c-.242,0-.514.3-.514.723V20.318c0,.427.271.724.514.724H20.05a.437.437,0,0,0,.267-.141l.043-.036c.918-.973,4.332-4.7,5.211-5.865-.707-.935-3.093-3.593-5.286-5.937a.421.421,0,0,0-.234-.106Z" fill="#5e5e5e"/></svg>