<?xml version="1.0" encoding="utf-8"?>
<!-- Generator: Adobe Illustrator 21.0.2, SVG Export Plug-In . SVG Version: 6.00 Build 0)  -->
<svg version="1.1" id="guias" xmlns="http://www.w3.org/2000/svg" xmlns:xlink="http://www.w3.org/1999/xlink" x="0px" y="0px"
	 viewBox="0 0 30 30" style="enable-background:new 0 0 30 30;" xml:space="preserve">
<style type="text/css">
	.st0{fill:#5E5E5E;}
</style>
<title>iconos</title>
<path class="st0" d="M21.6,7.9c-0.4-0.4-1-0.7-1.6-0.7H5.2c-1.3,0-2.4,1.1-2.4,2.4v10.6c0,1.3,1,2.4,2.4,2.4H20
	c0.6,0,1.1-0.2,1.5-0.6c0,0,0.1-0.1,0.1-0.1c0.2-0.2,5.9-6.1,5.9-7C27.5,14.6,27.5,14.2,21.6,7.9z M20.4,20.9L20.4,20.9
	C20.2,21,20.2,21,20,21H5.2c-0.2,0-0.5-0.3-0.5-0.7V9.7C4.7,9.3,5,9,5.2,9l14.9,0c0.1,0,0.2,0,0.2,0.1c2.2,2.3,4.6,5,5.3,5.9
	C24.7,16.2,21.3,19.9,20.4,20.9z"/>
</svg>
