<?xml version="1.0" encoding="utf-8"?>
<!-- Generator: Adobe Illustrator 21.0.2, SVG Export Plug-In . SVG Version: 6.00 Build 0)  -->
<svg version="1.1" id="guias" xmlns="http://www.w3.org/2000/svg" xmlns:xlink="http://www.w3.org/1999/xlink" x="0px" y="0px"
	 viewBox="0 0 30 30" style="enable-background:new 0 0 30 30;" xml:space="preserve">
<style type="text/css">
	.st0{fill:#5B5B5B;stroke:#5B5B5B;stroke-width:0.15;stroke-miterlimit:10;}
</style>
<path class="st0" d="M15,2.2C8,2.2,2.2,7.9,2.2,14.9S8,27.7,15,27.7S27.8,22,27.8,14.9S22,2.2,15,2.2L15,2.2z M23.7,6.9
	c-0.9,0.4-1.8,0.7-2.8,0.9c-0.6-1.6-1.5-3.1-2.8-4.3C20.3,4.1,22.2,5.2,23.7,6.9L23.7,6.9z M15.4,9.3c1.7,0,3.3-0.2,5-0.5
	c0.6,1.9,0.9,3.8,0.9,5.7h-5.9V9.3z M15.4,8.5V3.1C17.4,3.3,19,5.2,20.1,8C18.6,8.3,17,8.4,15.4,8.5z M14.6,3.1v5.4
	C13,8.4,11.4,8.3,9.9,8C11,5.2,12.6,3.3,14.6,3.1L14.6,3.1z M14.6,9.3v5.2H8.7c0-1.9,0.3-3.9,0.9-5.7C11.2,9.1,12.9,9.3,14.6,9.3
	L14.6,9.3z M7.8,14.5H3.1c0.1-2.5,1-5,2.6-6.9c1,0.5,2,0.8,3.1,1.1C8.2,10.5,7.9,12.5,7.8,14.5L7.8,14.5z M7.8,15.3
	c0,2,0.3,4,0.9,5.9c-1.1,0.3-2.1,0.6-3.1,1c-1.6-2-2.5-4.4-2.6-6.9L7.8,15.3z M8.7,15.3h5.9v5.2c-1.7,0-3.3,0.2-5,0.5
	C9,19.2,8.7,17.3,8.7,15.3L8.7,15.3z M14.6,21.4v5.4c-1.9-0.2-3.6-2.1-4.7-4.9C11.4,21.6,13,21.4,14.6,21.4z M15.4,26.8v-5.4
	c1.6,0,3.1,0.2,4.7,0.5C19,24.7,17.4,26.5,15.4,26.8L15.4,26.8z M15.4,20.5v-5.2h5.9c0,1.9-0.3,3.9-0.9,5.7
	C18.8,20.8,17.1,20.6,15.4,20.5L15.4,20.5z M22.2,15.4h4.7c-0.1,2.5-1,5-2.6,6.9c-1-0.5-2-0.8-3.1-1.1
	C21.8,19.3,22.1,17.3,22.2,15.4L22.2,15.4z M22.2,14.5c0-2-0.3-4-0.9-5.9c1.1-0.3,2.1-0.6,3.1-1c1.6,2,2.5,4.4,2.6,6.9L22.2,14.5z
	 M11.8,3.5c-1.3,1.2-2.2,2.7-2.8,4.3C8.1,7.5,7.2,7.2,6.3,6.9C7.8,5.2,9.7,4.1,11.8,3.5z M6.3,22.9c0.9-0.4,1.8-0.7,2.8-0.9
	c0.6,1.7,1.5,3.1,2.8,4.3C9.7,25.8,7.8,24.6,6.3,22.9L6.3,22.9z M18.2,26.4c1.3-1.2,2.2-2.7,2.8-4.3c0.9,0.2,1.9,0.5,2.8,0.9
	C22.2,24.6,20.3,25.8,18.2,26.4L18.2,26.4z"/>
</svg>
