<svg id="guias" xmlns="http://www.w3.org/2000/svg" viewBox="0 0 30 30"><title>iconos</title><path d="M14.942,26.689c-.516,0-1.031,0-1.546,0A2.011,2.011,0,0,1,11.311,24.6c0-.716-.039-1.432.008-2.144a4.676,4.676,0,0,0-.734-2.757,13.275,13.275,0,0,0-1.1-1.607A7.022,7.022,0,1,1,21.811,12.2a6.668,6.668,0,0,1-.623,4.605,13.347,13.347,0,0,1-1.025,1.522,8.171,8.171,0,0,0-1.539,3.046,3.976,3.976,0,0,0-.03.809c0,.841,0,1.683,0,2.523a1.99,1.99,0,0,1-1.965,1.979C16.064,26.7,15.5,26.688,14.942,26.689Zm2.587-5.341a8.2,8.2,0,0,1,1.786-3.64,6.178,6.178,0,0,0,1.5-4.866,5.935,5.935,0,1,0-10.481,4.552c.22.275.446.547.64.839a8.5,8.5,0,0,1,1.35,2.877c.045.206.12.255.316.254,1.547-.007,3.093,0,4.639,0C17.355,21.36,17.436,21.353,17.529,21.348ZM17.5,22.463H12.42v.957H17.5ZM12.423,24.54a.874.874,0,0,0,.79,1.009q1.746.026,3.494,0a.834.834,0,0,0,.758-1.007Z" fill="#5b5b5b" fill-rule="evenodd"/><path d="M10.174,6.019a1.708,1.708,0,0,1-.424-.326C9.519,5.361,9.322,5,9.124,4.651a.54.54,0,1,1,.923-.559c.221.351.436.706.633,1.07A.577.577,0,0,1,10.174,6.019Z" fill="#5b5b5b" fill-rule="evenodd"/><path d="M6.586,9.484a5.132,5.132,0,0,1-1.444-.937.448.448,0,0,1,.069-.6A.444.444,0,0,1,5.769,7.8c.444.238.882.493,1.3.772a.461.461,0,0,1,.133.588C7.119,9.366,6.933,9.482,6.586,9.484Z" fill="#5b5b5b" fill-rule="evenodd"/><path d="M19.782,6.008a.552.552,0,0,1-.489-.772,12.207,12.207,0,0,1,.73-1.229.492.492,0,0,1,.676-.128.5.5,0,0,1,.219.675A12.685,12.685,0,0,1,20.2,5.759C20.116,5.88,19.924,5.927,19.782,6.008Z" fill="#5b5b5b" fill-rule="evenodd"/><path d="M24.926,8.4a1.07,1.07,0,0,1-.241.33c-.355.244-.73.464-1.108.672a.541.541,0,0,1-.756-.188.534.534,0,0,1,.223-.744c.352-.219.705-.437,1.07-.632A.554.554,0,0,1,24.926,8.4Z" fill="#5b5b5b" fill-rule="evenodd"/><path d="M14.467,3.561c0-.216-.008-.433,0-.649A.531.531,0,0,1,15,2.375a.523.523,0,0,1,.526.513c.017.432.018.866,0,1.3a.522.522,0,0,1-.552.514.5.5,0,0,1-.508-.571C14.465,3.94,14.467,3.751,14.467,3.561Z" fill="#5b5b5b" fill-rule="evenodd"/><path d="M25.2,13.175c.217,0,.434-.008.65,0a.5.5,0,0,1,.5.5.481.481,0,0,1-.45.542,13.885,13.885,0,0,1-1.406,0,.489.489,0,0,1-.457-.54.517.517,0,0,1,.508-.5C24.764,13.167,24.98,13.175,25.2,13.175Z" fill="#5b5b5b" fill-rule="evenodd"/><path d="M4.8,13.175c.217,0,.434-.008.65,0a.518.518,0,0,1,.509.5.488.488,0,0,1-.458.538c-.468.023-.937.025-1.406,0a.479.479,0,0,1-.449-.542.5.5,0,0,1,.5-.5C4.369,13.168,4.586,13.175,4.8,13.175Z" fill="#5b5b5b" fill-rule="evenodd"/><path d="M10.733,12.032a.539.539,0,0,0,.183.654.4.4,0,0,0,.352.065.573.573,0,0,0,.31-.283l.1-.17a9.559,9.559,0,0,1,.568-.931,4.056,4.056,0,0,1,1.319-1.091.5.5,0,0,0,.216-.68.44.44,0,0,0-.615-.234A5.157,5.157,0,0,0,10.733,12.032Z" fill="#5b5b5b"/></svg>