<?xml version="1.0" encoding="utf-8"?>
<!-- Generator: Adobe Illustrator 21.0.2, SVG Export Plug-In . SVG Version: 6.00 Build 0)  -->
<svg version="1.1" id="guias" xmlns="http://www.w3.org/2000/svg" xmlns:xlink="http://www.w3.org/1999/xlink" x="0px" y="0px"
	 viewBox="0 0 30 30" style="enable-background:new 0 0 30 30;" xml:space="preserve">
<style type="text/css">
	.st0{fill:#5E5F5F;}
</style>
<title>iconos</title>
<path class="st0" d="M8.8,25.6H4.1V11.5h4.7V25.6z M6.4,9.5L6.4,9.5C5.1,9.6,3.9,8.6,3.8,7.2s0.9-2.5,2.3-2.6c0.1,0,0.2,0,0.4,0
	C7.8,4.5,9,5.5,9.1,6.9c0.1,1.4-0.9,2.5-2.3,2.6C6.7,9.5,6.6,9.5,6.4,9.5L6.4,9.5z M25.9,25.6h-4.7V18c0-1.9-0.7-3.2-2.4-3.2
	c-1.1,0-2.1,0.7-2.4,1.7c-0.1,0.4-0.2,0.8-0.2,1.1v7.9h-4.7c0,0,0.1-12.8,0-14.2h4.7v2c0.9-1.5,2.5-2.4,4.3-2.3c3.1,0,5.5,2,5.5,6.4
	L25.9,25.6z M16.1,13.5C16.2,13.5,16.2,13.5,16.1,13.5L16.1,13.5L16.1,13.5z"/>
</svg>
