<?xml version="1.0" encoding="utf-8"?>
<!-- Generator: Adobe Illustrator 21.0.2, SVG Export Plug-In . SVG Version: 6.00 Build 0)  -->
<svg version="1.1" id="guias" xmlns="http://www.w3.org/2000/svg" xmlns:xlink="http://www.w3.org/1999/xlink" x="0px" y="0px"
	 viewBox="0 0 30 30" style="enable-background:new 0 0 30 30;" xml:space="preserve">
<style type="text/css">
	.st0{fill:#5E5F5F;}
</style>
<title>iconos</title>
<path class="st0" d="M25.9,2.3H4.1c-1,0-1.9,0.8-1.9,1.8V26c0,1,0.9,1.8,1.9,1.8h21.7c1,0,1.9-0.8,1.9-1.8V4.1
	C27.7,3.1,26.9,2.3,25.9,2.3z M10,23.7H6.1V12.1H10V23.7z M8.1,10.6L8.1,10.6C6.9,10.7,6,9.9,5.9,8.8s0.7-2.1,1.8-2.2
	c0.1,0,0.3,0,0.4,0c1.1-0.1,2.1,0.7,2.2,1.8s-0.7,2.1-1.8,2.2C8.3,10.6,8.2,10.6,8.1,10.6z M23.9,23.7H20v-6.2c0-1.5-0.6-2.6-2-2.6
	c-0.9,0-1.7,0.6-2,1.4c-0.1,0.3-0.1,0.6-0.1,0.9v6.4h-3.9c0,0,0-10.4,0-11.5H16v1.6c0.7-1.2,2-2,3.5-1.9c2.5,0,4.4,1.6,4.4,5.2
	L23.9,23.7z M15.9,13.8C15.9,13.8,16,13.8,15.9,13.8L15.9,13.8L15.9,13.8z"/>
</svg>
