<svg id="guias" xmlns="http://www.w3.org/2000/svg" viewBox="0 0 30 30"><title>iconos</title><path d="M24.217,5.534a5.051,5.051,0,0,0-7.132,0L13.758,8.861a1.064,1.064,0,0,0,0,1.5,1.09,1.09,0,0,0,1.5,0l3.327-3.327a2.917,2.917,0,0,1,4.125,4.127l-4.348,4.349a2.922,2.922,0,0,1-4.128,0,1.086,1.086,0,0,0-1.5,0,1.063,1.063,0,0,0,0,1.5,5.049,5.049,0,0,0,7.132,0l4.35-4.348a5.059,5.059,0,0,0,0-7.134Z" fill="#5e5f5e"/><path d="M14.227,19.648l-2.812,2.816a2.932,2.932,0,0,1-4.126,0,2.921,2.921,0,0,1,0-4.126l4.093-4.094a2.931,2.931,0,0,1,4.127,0,1.086,1.086,0,0,0,1.5,0,1.059,1.059,0,0,0,0-1.5,5.049,5.049,0,0,0-7.132,0L5.785,16.835a5.043,5.043,0,0,0,7.131,7.132l2.816-2.815a1.067,1.067,0,0,0,0-1.5A1.094,1.094,0,0,0,14.227,19.648Z" fill="#5e5f5e"/></svg>