<svg id="guias" xmlns="http://www.w3.org/2000/svg" viewBox="0 0 30 30"><title>iconos</title><path d="M23.019,8.12c-.532-.147-1.083-.261-1.613-.375-.217-.046-.432-.09-.648-.14l-.13-.028,0-.008c.023-.127.042-.241.054-.352a1.216,1.216,0,0,0-.893-1.391.178.178,0,0,1-.062-.027.291.291,0,0,1-.013-.079A2.831,2.831,0,0,0,17.482,3.13a2.893,2.893,0,0,0-.6-.062,2.86,2.86,0,0,0-2.5,1.5.258.258,0,0,1-.044.07l-.062,0a1.234,1.234,0,0,0-1.4.9,3.235,3.235,0,0,0-.075.33l-.006.029-2.075-.449a1.965,1.965,0,0,0-2.479,1.61L6.315,15.984Q5.666,18.993,5.02,22a2.034,2.034,0,0,0,.247,1.548,2.061,2.061,0,0,0,1.321.87l2.95.636q4.545.984,9.093,1.954a2.471,2.471,0,0,0,.5.057,1.949,1.949,0,0,0,.337-.028,1.912,1.912,0,0,0,1.6-1.622q1.605-7.463,3.216-14.922c.016-.079.032-.154.046-.231A1.917,1.917,0,0,0,23.019,8.12m-5.9-3.479a1.263,1.263,0,0,1,.967.8l-2.1-.454a1.28,1.28,0,0,1,1.138-.343m-3.142,3.13.331-1.534,4.786,1.032L18.763,8.8Zm-.667,1.46c1.81.4,3.648.8,5.464,1.178a1.219,1.219,0,0,0,1.4-.853c.045-.141.081-.281.118-.431l.009-.041.608.13c.545.115,1.081.231,1.619.353a.383.383,0,0,1,.276.407,1.47,1.47,0,0,1-.036.313Q21.187,17.637,19.6,24.982c-.1.457-.235.54-.471.54a1.527,1.527,0,0,1-.3-.037L7.041,22.942a.725.725,0,0,1-.479-.234.74.74,0,0,1-.018-.54L9.713,7.475c.1-.462.237-.547.476-.547a1.443,1.443,0,0,1,.311.038l1.956.422-.006.019c-.027.162-.056.317-.072.468a1.223,1.223,0,0,0,.933,1.356m5.6,6.06-1.15-.247L15.4,14.536c-1.386-.3-2.774-.6-4.163-.886a1.242,1.242,0,0,0-.734.092.671.671,0,0,0-.326.783.768.768,0,0,0,.661.617l7.739,1.666a1.243,1.243,0,0,0,.246.026.729.729,0,0,0,.763-.673.774.774,0,0,0-.676-.871m-7.379-4.6a.736.736,0,0,0-.714.571.758.758,0,0,0,.077.6.857.857,0,0,0,.565.363l2.1.453,1.775.382,3.178.683.228.05c.205.046.413.092.625.126a.613.613,0,0,0,.122.011.729.729,0,0,0,.712-.585.737.737,0,0,0-.468-.894,2.436,2.436,0,0,0-.338-.094q-3.721-.806-7.443-1.6a2.537,2.537,0,0,0-.416-.057m6.808,7.541q-1.957-.426-3.916-.847-1.935-.418-3.872-.832a1.48,1.48,0,0,0-.271-.036l-.052,0a.743.743,0,0,0-.7.733.776.776,0,0,0,.691.8q3.866.836,7.737,1.667a1.183,1.183,0,0,0,.219.02.982.982,0,0,0,.289-.039.751.751,0,0,0,.5-.773.759.759,0,0,0-.633-.7m-.844,3.8c-.778-.173-1.556-.34-2.334-.506a.77.77,0,1,0-.331,1.5c.287.064.576.127.864.186l.673.146c.266.058.534.116.8.172a1.086,1.086,0,0,0,.215.021.729.729,0,0,0,.744-.6.741.741,0,0,0-.631-.922" fill="#5e5f5f"/></svg>