<?xml version="1.0" encoding="utf-8"?>
<!-- Generator: Adobe Illustrator 21.0.2, SVG Export Plug-In . SVG Version: 6.00 Build 0)  -->
<svg version="1.1" id="guias" xmlns="http://www.w3.org/2000/svg" xmlns:xlink="http://www.w3.org/1999/xlink" x="0px" y="0px"
	 viewBox="0 0 30 30" style="enable-background:new 0 0 30 30;" xml:space="preserve">
<style type="text/css">
	.st0{fill:#5E5F5F;}
</style>
<g>
	<path class="st0" d="M17.6,22C17.6,22,17.5,22,17.6,22L17.6,22c-0.9-0.2-1.7-0.4-2.4-0.5c-0.4-0.1-0.8,0.1-1,0.5
		c-0.1,0.4,0.1,0.8,0.5,1c0,0,0.1,0,0.1,0c0.3,0.1,0.6,0.1,0.9,0.2l0.7,0.1c0.3,0.1,0.5,0.1,0.8,0.2c0.1,0,0.1,0,0.2,0
		c0.4,0,0.7-0.2,0.7-0.6C18.2,22.6,18,22.2,17.6,22z"/>
	<path class="st0" d="M19.7,12.5c-0.1,0-0.2-0.1-0.3-0.1c-2.5-0.5-5-1.1-7.4-1.6c-0.1,0-0.3,0-0.4-0.1l0,0c-0.3,0-0.6,0.2-0.7,0.6
		c-0.1,0.2,0,0.4,0.1,0.6c0.1,0.2,0.3,0.3,0.6,0.4l2.1,0.5l1.8,0.4l3.2,0.7l0.2,0c0.2,0,0.4,0.1,0.6,0.1c0,0,0.1,0,0.1,0
		c0.3,0,0.6-0.2,0.7-0.6C20.3,13,20.1,12.6,19.7,12.5z"/>
	<path class="st0" d="M23,8.1c-0.5-0.1-1.1-0.3-1.6-0.4c-0.2,0-0.4-0.1-0.6-0.1l-0.1,0v0c0-0.1,0-0.2,0.1-0.4
		c0.1-0.6-0.3-1.2-0.9-1.4c0,0,0,0-0.1,0c0,0,0-0.1,0-0.1c-0.1-1.3-1-2.3-2.2-2.6c-0.2,0-0.4-0.1-0.6-0.1c-1,0-2,0.6-2.5,1.5
		c0,0,0,0,0,0.1h-0.1c-0.6-0.1-1.2,0.3-1.4,0.9c0,0.1-0.1,0.2-0.1,0.3l0,0l-2.1-0.4c-1-0.3-2.1,0.3-2.4,1.4c0,0.1,0,0.2-0.1,0.3
		L6.3,16c-0.4,2-0.9,4-1.3,6c-0.1,0.5,0,1.1,0.2,1.5C5.6,24,6,24.3,6.6,24.4l3,0.6c3,0.7,6.1,1.3,9.1,2c0.2,0,0.3,0.1,0.5,0.1
		c0.1,0,0.2,0,0.3,0c0.8-0.1,1.5-0.8,1.6-1.6c1.1-5,2.1-9.9,3.2-14.9c0-0.1,0-0.2,0-0.2C24.5,9.3,23.9,8.4,23,8.1z M17.1,4.6
		L17.1,4.6c0.4,0.1,0.8,0.4,1,0.8L16,5C16.3,4.7,16.7,4.6,17.1,4.6z M14.3,6.2l4.8,1l-0.3,1.5l-4.8-1L14.3,6.2z M22.8,10.3
		c-1.1,4.9-2.1,9.8-3.2,14.7c-0.1,0.5-0.2,0.5-0.5,0.5c-0.1,0-0.2,0-0.3,0L7,22.9c-0.2,0-0.4-0.1-0.5-0.2c-0.1-0.2-0.1-0.4,0-0.5
		L9.7,7.5C9.8,7,10,6.9,10.2,6.9c0.1,0,0.2,0,0.3,0l2,0.4l0,0c0,0.2-0.1,0.3-0.1,0.5c-0.1,0.6,0.3,1.2,0.9,1.4l0,0
		c1.8,0.4,3.6,0.8,5.5,1.2c0.6,0.1,1.2-0.3,1.4-0.9c0-0.1,0.1-0.3,0.1-0.4l0,0l0.6,0.1c0.5,0.1,1.1,0.2,1.6,0.4
		c0.2,0.1,0.3,0.2,0.3,0.4C22.8,10.1,22.8,10.2,22.8,10.3z"/>
	<path class="st0" d="M18.9,15.3C18.9,15.3,18.9,15.3,18.9,15.3L18.9,15.3L17.8,15l-2.4-0.5c-1.4-0.3-2.8-0.6-4.2-0.9
		c-0.2,0-0.5,0-0.7,0.1c-0.3,0.2-0.4,0.5-0.3,0.8c0.1,0.3,0.3,0.6,0.7,0.6l7.7,1.7c0.1,0,0.2,0,0.2,0c0.4,0,0.7-0.3,0.8-0.7
		C19.6,15.7,19.3,15.3,18.9,15.3z"/>
	<path class="st0" d="M18.3,18.2L18.3,18.2c-1.3-0.3-2.6-0.6-3.9-0.8c-1.3-0.3-2.6-0.6-3.9-0.8c-0.1,0-0.2,0-0.3,0h-0.1
		c-0.4,0-0.7,0.3-0.7,0.7c0,0.4,0.3,0.8,0.7,0.8c2.6,0.6,5.2,1.1,7.7,1.7c0.1,0,0.1,0,0.2,0c0.1,0,0.2,0,0.3,0
		c0.3-0.1,0.5-0.4,0.5-0.8C18.9,18.6,18.7,18.3,18.3,18.2z"/>
</g>
</svg>
