<svg id="guias" xmlns="http://www.w3.org/2000/svg" viewBox="0 0 30 30"><title>iconos</title><path d="M23.756,11.674a11.291,11.291,0,0,1-.957,4.159,27.283,27.283,0,0,1-2.107,4.186q-1.149,1.832-2.654,3.83t-2.079,2.683q-.576.684-.958,1.066l-2.189-2.572a39.6,39.6,0,0,1-4.377-6.539,14.718,14.718,0,0,1-2.189-6.812A8.19,8.19,0,0,1,8.817,5.6,8.526,8.526,0,0,1,15,3.084,8.526,8.526,0,0,1,21.184,5.6,8.19,8.19,0,0,1,23.756,11.674Zm-4.441,0a4.044,4.044,0,0,0-1.247-3.029A4.235,4.235,0,0,0,15,7.434a4.239,4.239,0,0,0-3.067,1.211,4.044,4.044,0,0,0-1.247,3.029,4.076,4.076,0,0,0,1.247,2.99A4.173,4.173,0,0,0,15,15.914a4.169,4.169,0,0,0,3.067-1.25A4.076,4.076,0,0,0,19.315,11.674Z" fill="#5e5e5e"/></svg>