<svg id="guias" xmlns="http://www.w3.org/2000/svg" viewBox="0 0 30 30"><title>iconos</title><path d="M24.116,15.751a2.972,2.972,0,0,0-3.075-3.062h-.379V11.575c0-.812,0-1.623-.006-2.434a7.5,7.5,0,0,0-.117-1.286,6.036,6.036,0,0,0-5.922-4.843,5.682,5.682,0,0,0-2.687.667A6.1,6.1,0,0,0,8.679,9.813a.974.974,0,0,0,.793.873A1.021,1.021,0,0,0,10.716,9.7c.007-.153.01-.3.013-.459a5.154,5.154,0,0,1,.065-.923,3.886,3.886,0,0,1,3.874-3.232,4.459,4.459,0,0,1,.8.077,3.821,3.821,0,0,1,3.079,3.3c.063,1,.048,1.995.032,3.043-.008.392-.014.791-.014,1.19H14.824q-3.209,0-6.421,0a4.236,4.236,0,0,0-.958.1A2.95,2.95,0,0,0,5.21,15.794q-.006,4.048,0,8.1a3.31,3.31,0,0,0,.092.8,2.929,2.929,0,0,0,2.926,2.3l5.4,0,7.38,0a2.961,2.961,0,0,0,3.105-3.061c.014-2.944.014-5.622,0-8.178m-8.41,4.455c0,.24,0,.481-.008.719a1.048,1.048,0,0,1-.768,1.014,1.314,1.314,0,0,1-.267.032.981.981,0,0,1-.886-.52,1.351,1.351,0,0,1-.147-.59c-.017-.636-.017-1.292,0-1.952a1.069,1.069,0,0,1,1.022-1.121,1.1,1.1,0,0,1,.405.085,1.049,1.049,0,0,1,.649,1.048c0,.238,0,.477,0,.716v.57Z" fill="#5e5e5e"/></svg>