<svg id="guias" xmlns="http://www.w3.org/2000/svg" viewBox="0 0 30 30"><title>iconos</title><path d="M24.456,23.895V22.35c0-1.642,0-3.209,0-4.718V15.8c0-.027-.01-.049-.01-.07a3.517,3.517,0,0,0-.125-.849c-.023-.077-.04-.152-.067-.226a2.891,2.891,0,0,0-.359-.707c-.045-.066-.1-.124-.149-.186a2.843,2.843,0,0,0-.5-.468,2.264,2.264,0,0,0-.2-.135,2.834,2.834,0,0,0-.682-.3c-.053-.016-.091-.051-.146-.066s-.111-.014-.167-.027c-.035-.006-.074-.009-.11-.016a3.785,3.785,0,0,0-.438-.045c-.045,0-.09-.013-.135-.013H21V11.575c0-.623,0-1.246,0-1.867a6.767,6.767,0,0,0-.383-2.8c-.025-.071-.06-.136-.09-.205a5.7,5.7,0,0,0-.345-.7c-.032-.051-.065-.1-.1-.157a5.778,5.778,0,0,0-.5-.677c-.027-.036-.055-.067-.085-.1a6.6,6.6,0,0,0-.634-.613l-.1-.08a6.178,6.178,0,0,0-.778-.536c-.011-.008-.023-.015-.036-.022-.071-.043-.135-.091-.212-.131-.132-.071-.275-.1-.412-.159-.172-.074-.342-.141-.521-.2a5.2,5.2,0,0,0-.644-.178,6.4,6.4,0,0,0-.844-.1c-.093,0-.177-.032-.268-.032-.019,0-.03,0-.047,0s-.03,0-.048,0c-.09,0-.175.029-.267.032a6.343,6.343,0,0,0-.843.1,5.187,5.187,0,0,0-.646.178c-.178.058-.348.125-.519.2-.138.058-.282.088-.413.159-.078.04-.141.088-.213.131l-.037.022a6.138,6.138,0,0,0-.775.536c-.035.027-.066.053-.1.08a6.475,6.475,0,0,0-.633.613c-.029.034-.057.065-.086.1a5.768,5.768,0,0,0-.5.677c-.034.053-.069.106-.1.157a5.7,5.7,0,0,0-.344.7c-.03.069-.064.134-.089.205a6.754,6.754,0,0,0-.384,2.8c0,.621-.006,1.244,0,1.867l0,1.114H8.628c-.047,0-.09.01-.137.013a3.7,3.7,0,0,0-.435.045c-.038.006-.076.009-.113.016-.055.013-.11.015-.164.027s-.1.05-.148.066a2.885,2.885,0,0,0-.682.3c-.068.042-.131.086-.2.135a2.794,2.794,0,0,0-.5.468c-.054.063-.1.12-.151.186a2.894,2.894,0,0,0-.359.707c-.025.074-.045.149-.066.226a3.38,3.38,0,0,0-.125.849c0,.021-.011.043-.011.07,0,.61,0,1.224,0,1.836,0,1.509,0,3.076,0,4.718,0,.516,0,1.031,0,1.545,0,.03.008.051.008.082a3.474,3.474,0,0,0,.078.665c0,.018,0,.037.006.053s.023.045.03.071a2.865,2.865,0,0,0,.956,1.526c.045.04.092.077.141.114a2.986,2.986,0,0,0,.7.373,2.76,2.76,0,0,0,.271.077,3.592,3.592,0,0,0,.719.114c.039,0,.073.018.112.018l5.4,0h2.072l5.4,0c.04,0,.074-.017.112-.018a3.593,3.593,0,0,0,.719-.114c.091-.025.184-.043.272-.077a3.052,3.052,0,0,0,.7-.373c.048-.037.093-.074.141-.114a2.866,2.866,0,0,0,.953-1.526.725.725,0,0,0,.031-.071c0-.016,0-.035,0-.053a3.546,3.546,0,0,0,.079-.665c0-.031.01-.052.01-.082m-3.089,1.047q-3.18.006-6.364,0H15q-3.183,0-6.363,0a1.445,1.445,0,0,1-.178-.027.941.941,0,0,1-.559-.242,1.056,1.056,0,0,1-.283-.773c.014-1.931.012-3.857.01-5.785l0-2.368a1.392,1.392,0,0,1,.043-.278A1.279,1.279,0,0,1,7.7,15.3a.823.823,0,0,1,.127-.205.778.778,0,0,1,.095-.119A.833.833,0,0,1,8.1,14.87a.957.957,0,0,1,.15-.07,1.33,1.33,0,0,1,.322-.048c.024,0,.047-.01.072-.01H21.355c.024,0,.05.01.072.01a1.322,1.322,0,0,1,.322.048,1.017,1.017,0,0,1,.152.07.823.823,0,0,1,.18.109.682.682,0,0,1,.1.119.847.847,0,0,1,.125.205,1.125,1.125,0,0,1,.032.164,1.331,1.331,0,0,1,.041.278v2.368c0,1.928,0,3.855.011,5.785a1.072,1.072,0,0,1-.283.773.947.947,0,0,1-.56.242,1.359,1.359,0,0,1-.176.027M14.843,12.689H11.1c0-.4-.008-.8-.014-1.191-.016-1.047-.031-2.039.031-3.043.006-.093.031-.183.046-.275a4.024,4.024,0,0,1,1.251-2.143A.989.989,0,0,0,12.5,5.96a4.579,4.579,0,0,1,.392-.273c.048-.029.095-.069.144-.1a3.876,3.876,0,0,1,.592-.272l.027-.006a4.171,4.171,0,0,1,.593-.157,4.485,4.485,0,0,1,.736-.071h.027a4.432,4.432,0,0,1,.736.071,4,4,0,0,1,.595.157c.008,0,.018,0,.025.006a3.81,3.81,0,0,1,.594.272c.052.027.1.067.144.1a4.444,4.444,0,0,1,.393.273,1.117,1.117,0,0,0,.084.077A4.032,4.032,0,0,1,18.836,8.18c.013.093.04.183.045.275.063,1,.049,2,.032,3.043-.006.4-.013.79-.015,1.191H14.843Z" fill="#5e5e5e"/><path d="M15.892,18.356a1.281,1.281,0,0,0-.092-.147.962.962,0,0,0-.78-.422c-.007,0-.013,0-.019,0s-.013,0-.019,0a.962.962,0,0,0-.781.422,1.293,1.293,0,0,0-.092.147,1.228,1.228,0,0,0-.147.552c0,.209,0,.411,0,.619v.107l0,.465,0,.105c0,.061,0,.125,0,.185,0,.155,0,.319,0,.47,0,0,0,.007,0,.013v.053a1.211,1.211,0,0,0,.128.472c.01.015.007.037.017.055s.025.021.033.037a.994.994,0,0,0,.312.327c.021.011.042.016.065.028a.89.89,0,0,0,.215.095,1.432,1.432,0,0,0,.254.031h.019a1.421,1.421,0,0,0,.253-.031.893.893,0,0,0,.215-.095c.023-.013.044-.018.064-.028a.993.993,0,0,0,.312-.327c.008-.017.027-.021.037-.037s0-.04.014-.055a1.261,1.261,0,0,0,.128-.472v-.053l0-.013c0-.15,0-.314,0-.47,0-.06,0-.123,0-.185l0-.105,0-.465v-.107c0-.208,0-.41,0-.619a1.23,1.23,0,0,0-.147-.552" fill="#5e5e5e"/></svg>