<svg id="guias" xmlns="http://www.w3.org/2000/svg" viewBox="0 0 30 30"><title>iconos</title><path d="M24.442,15.747a2.972,2.972,0,0,0-3.076-3.061h-.379l0-1.113c0-.811,0-1.623-.007-2.433a7.708,7.708,0,0,0-.117-1.288A6.037,6.037,0,0,0,14.944,3.01a5.682,5.682,0,0,0-2.687.667A6.1,6.1,0,0,0,9,9.811a.971.971,0,0,0,.792.871,1.018,1.018,0,0,0,1.244-.988c.007-.15.01-.3.014-.459a5.126,5.126,0,0,1,.065-.922A3.886,3.886,0,0,1,14.992,5.08a4.1,4.1,0,0,1,.8.078,3.818,3.818,0,0,1,3.08,3.3c.063,1,.048,1.992.031,3.043-.006.393-.013.79-.013,1.189H15.149q-3.208,0-6.42,0a3.89,3.89,0,0,0-.959.1,2.944,2.944,0,0,0-2.236,3q0,4.051,0,8.1a3.263,3.263,0,0,0,.092.8,2.93,2.93,0,0,0,2.925,2.295l5.4,0,7.379,0a2.964,2.964,0,0,0,3.107-3.061c.013-2.947.013-5.621,0-8.179m-16.827,0a.9.9,0,0,1,1-1H21.342a.92.92,0,0,1,1.041,1q.015,4.1,0,8.2a.913.913,0,0,1-1.02,1q-3.18,0-6.364,0H8.632a1.016,1.016,0,0,1-.744-.272,1.077,1.077,0,0,1-.282-.773c.017-1.932.013-3.859.01-5.787Z" fill="#5e5e5e"/><path d="M14.1,21.445a.98.98,0,0,0,.887.52,1.02,1.02,0,0,0,1.036-1.041c.01-.24.008-.48,0-.723v-.568c0-.24,0-.479,0-.717a1.048,1.048,0,0,0-.65-1.049,1.084,1.084,0,0,0-.4-.08,1.063,1.063,0,0,0-1.022,1.119c-.013.658-.013,1.314,0,1.951a1.342,1.342,0,0,0,.147.588" fill="#5e5e5e"/></svg>