<svg id="guias" xmlns="http://www.w3.org/2000/svg" viewBox="0 0 30 30"><title>iconos</title><path d="M24.465,17.629q0-.921,0-1.836c0-.026-.009-.046-.011-.07a3.322,3.322,0,0,0-.127-.848c-.02-.077-.039-.153-.065-.226a3.028,3.028,0,0,0-.356-.712c-.048-.064-.1-.12-.153-.183a2.843,2.843,0,0,0-.494-.468c-.068-.049-.13-.1-.2-.137a3.074,3.074,0,0,0-.681-.3c-.054-.018-.094-.05-.146-.063s-.113-.018-.167-.027c-.036-.007-.075-.01-.112-.019a3.686,3.686,0,0,0-.436-.043c-.049,0-.091-.012-.139-.012H21V11.569c0-.622,0-1.247,0-1.87a6.731,6.731,0,0,0-.384-2.8c-.023-.071-.059-.136-.088-.205a5.606,5.606,0,0,0-.347-.705c-.029-.053-.062-.1-.1-.157a5.364,5.364,0,0,0-.5-.677c-.027-.035-.055-.067-.086-.1a6.2,6.2,0,0,0-.632-.613c-.032-.027-.061-.054-.1-.082a6.471,6.471,0,0,0-.778-.535c-.015-.008-.024-.016-.038-.025-.071-.041-.135-.09-.21-.131-.134-.071-.277-.1-.414-.158-.173-.072-.342-.141-.521-.2a5.46,5.46,0,0,0-.646-.175,5.909,5.909,0,0,0-.845-.1C15.224,3.027,15.138,3,15.048,3c-.016,0-.031,0-.048,0s-.028,0-.046,0c-.092,0-.18.028-.269.033a5.91,5.91,0,0,0-.845.1,5.3,5.3,0,0,0-.645.175c-.179.06-.35.129-.52.2-.137.06-.281.087-.414.158-.076.042-.139.091-.211.131l-.037.025a6.309,6.309,0,0,0-.778.535l-.1.082a6.431,6.431,0,0,0-.635.613c-.029.034-.055.066-.084.1a5.446,5.446,0,0,0-.5.677l-.1.157a5.882,5.882,0,0,0-.345.705c-.03.069-.064.134-.09.205A6.8,6.8,0,0,0,9,9.7c0,.622-.006,1.247,0,1.87l0,1.116H8.621c-.047,0-.091.009-.136.012a3.6,3.6,0,0,0-.435.043c-.037.008-.078.012-.113.019a1.561,1.561,0,0,0-.166.027c-.055.014-.093.046-.148.063a3.054,3.054,0,0,0-.681.3,2.006,2.006,0,0,0-.2.137,2.708,2.708,0,0,0-.5.468c-.051.064-.1.119-.149.183a2.929,2.929,0,0,0-.359.712c-.028.073-.046.149-.067.226a3.508,3.508,0,0,0-.126.848c0,.024-.009.044-.009.07,0,.61,0,1.222,0,1.836,0,1.512,0,3.082,0,4.726V23.9c0,.025.011.052.011.08a3.4,3.4,0,0,0,.077.666c0,.017,0,.034,0,.052a.719.719,0,0,0,.033.072A2.853,2.853,0,0,0,6.614,26.3c.047.037.094.076.141.111a2.957,2.957,0,0,0,.7.376c.088.033.184.052.273.076a3.448,3.448,0,0,0,.717.115c.041,0,.074.018.114.018l5.406,0h2.074l5.406,0c.039,0,.073-.016.112-.018a3.427,3.427,0,0,0,.717-.115,2.724,2.724,0,0,0,.274-.076,2.914,2.914,0,0,0,.7-.376c.05-.035.094-.074.141-.111a2.859,2.859,0,0,0,.957-1.529c.007-.025.024-.044.03-.072s0-.034.007-.052a3.56,3.56,0,0,0,.076-.666c0-.028.009-.055.009-.08,0-.517,0-1.031,0-1.547,0-1.644,0-3.214,0-4.726M16.04,19.635v.571c0,.063,0,.124,0,.187,0,.155,0,.315,0,.47v.01c0,.018,0,.038,0,.055a1.212,1.212,0,0,1-.13.471c-.007.016,0,.04-.013.055s-.027.023-.034.038a1.044,1.044,0,0,1-.315.328c-.019.012-.043.016-.063.027a.9.9,0,0,1-.217.094,1.07,1.07,0,0,1-.254.032h-.018a1.069,1.069,0,0,1-.254-.032.929.929,0,0,1-.216-.094c-.022-.012-.045-.016-.063-.027a.984.984,0,0,1-.313-.328c-.011-.015-.028-.022-.037-.038s0-.039-.014-.055a1.227,1.227,0,0,1-.128-.471v-.055l0-.01c0-.154,0-.314,0-.47,0-.062,0-.124,0-.187v-.678c0-.208-.007-.409,0-.618a1.217,1.217,0,0,1,.149-.553,1.128,1.128,0,0,1,.09-.147.969.969,0,0,1,.782-.422c.007,0,.013,0,.02,0s.013,0,.018,0a.958.958,0,0,1,.782.422.969.969,0,0,1,.093.147,1.241,1.241,0,0,1,.147.553c.006.209,0,.41,0,.618v.106m2.877-8.143c-.006.4-.011.792-.012,1.193H11.1c0-.4-.008-.8-.014-1.193-.017-1.051-.031-2.04.031-3.044a1.9,1.9,0,0,1,.048-.276,4,4,0,0,1,1.251-2.144c.03-.025.054-.051.085-.077a3.794,3.794,0,0,1,.39-.273c.05-.032.095-.069.146-.1A4.381,4.381,0,0,1,13.63,5.3l.025-.006a3.8,3.8,0,0,1,.595-.154,4.027,4.027,0,0,1,.737-.071l.013,0,.013,0a4.047,4.047,0,0,1,.738.071,3.949,3.949,0,0,1,.595.154.258.258,0,0,0,.026.006,4.343,4.343,0,0,1,.592.272c.051.031.1.068.145.1a3.833,3.833,0,0,1,.392.273c.03.026.055.053.083.077A4.007,4.007,0,0,1,18.84,8.171c.015.092.038.183.044.276.064,1,.049,1.994.033,3.044" fill="#5e5e5e"/></svg>