<svg id="guias" xmlns="http://www.w3.org/2000/svg" viewBox="0 0 30 30"><title>iconos</title><path d="M14.038,15.248a.659.659,0,0,0,0-.51.685.685,0,0,0-.143-.215L8.62,9.252a.681.681,0,0,0-.942,0,.663.663,0,0,0,0,.943l4.135,4.133H2.875a.669.669,0,0,0,0,1.337h8.936L7.678,19.8a.661.661,0,0,0,0,.942.664.664,0,0,0,.944,0l5.273-5.273A.647.647,0,0,0,14.038,15.248Z" fill="#5e5f5e"/><path d="M25.57,3.882H12.339a1.484,1.484,0,0,0-1.482,1.483V9a.684.684,0,1,0,1.367,0V5.365a.117.117,0,0,1,.114-.114H25.57a.119.119,0,0,1,.115.114V24.634a.121.121,0,0,1-.115.116H12.339a.118.118,0,0,1-.114-.116V21.055a.684.684,0,1,0-1.367,0v3.579a1.483,1.483,0,0,0,1.482,1.484H25.57a1.485,1.485,0,0,0,1.483-1.484V5.365A1.485,1.485,0,0,0,25.57,3.882Z" fill="#5e5f5e"/></svg>