<svg id="guias" xmlns="http://www.w3.org/2000/svg" viewBox="0 0 30 30"><title>iconos</title><path d="M26.983,13.356a.67.67,0,0,0-.141-.21L21.693,8a.666.666,0,0,0-.922,0,.649.649,0,0,0,0,.921l4.037,4.036H16.081a.653.653,0,0,0,0,1.306H24.81L20.772,18.3a.648.648,0,0,0,0,.92.651.651,0,0,0,.924,0l5.149-5.151a.676.676,0,0,0,.143-.214A.659.659,0,0,0,26.983,13.356Z" fill="#5e5f5e"/><path d="M19.085,16.646a.653.653,0,0,0-.651.652v5.531H14.588V6.74a.648.648,0,0,0-.455-.621L8.694,4.39h9.739V9.917a.653.653,0,1,0,1.306,0V3.737a.655.655,0,0,0-.654-.652H4.472l-.033.01a.529.529,0,0,0-.107.019.407.407,0,0,0-.14.057l-.171.122a.593.593,0,0,0-.111.159l-.024.059a.657.657,0,0,0-.044.227V23.481a.609.609,0,0,0,.044.222l.031.064a.576.576,0,0,0,.1.15l.059.057a.652.652,0,0,0,.107.071.24.24,0,0,0,.059.03l9.508,3.033a.7.7,0,0,0,.188.028.657.657,0,0,0,.386-.126.648.648,0,0,0,.268-.528V24.13h4.5a.653.653,0,0,0,.654-.648V17.3A.654.654,0,0,0,19.085,16.646Zm-5.8-9.428V25.592L5.148,23V4.629Z" fill="#5e5f5e"/></svg>