<svg id="guias" xmlns="http://www.w3.org/2000/svg" viewBox="0 0 30 30"><title>iconos</title><path d="M28.1,25.444c-1.288-.3-2.563-.587-3.838-.882s-2.573-.592-3.856-.9a2.9,2.9,0,0,0-1.251.127c-2.653.492-5.3,1.01-7.959,1.5a2.207,2.207,0,0,1-.764-.071q-4.053-.755-8.1-1.517a1.39,1.39,0,0,1-.16-.059c.046-.418.088-.838.138-1.257q.253-2.175.509-4.346c.125-1.064.292-2.125.367-3.193a10.128,10.128,0,0,0-.108-1.815c-.152-1.4-.331-2.8-.5-4.2q-.214-1.783-.431-3.565c-.009-.065-.014-.131-.022-.229.753.316,1.482.619,2.207.925,1.98.837,3.959,1.678,5.943,2.506a.583.583,0,0,0,.422-.013q4.586-2.177,9.164-4.372a.524.524,0,0,1,.459-.022q3.713,1.419,7.437,2.815c.288.108.337.251.3.529-.2,1.483-.382,2.968-.57,4.453-.161,1.264-.338,2.527-.469,3.795a5.649,5.649,0,0,0,.084,1.2c.184,1.592.376,3.184.567,4.775q.218,1.812.439,3.622C28.105,25.311,28.1,25.368,28.1,25.444Zm-.989-1.116c-.138-1.192-.267-2.322-.4-3.45-.185-1.553-.377-3.1-.556-4.659-.022-.178-.054-.266-.26-.291-1.772-.217-3.543-.45-5.315-.674-.416-.053-.834-.1-1.265-.146,0,.075,0,.1,0,.13.127,1.308.258,2.613.381,3.922q.163,1.671.31,3.346c.016.165.07.257.253.286.333.055.66.144.989.215.444.095.892.183,1.361.278-.2-1.913-.391-3.779-.587-5.687,1.091.13,2.14.253,3.2.381.006.117.013.217.018.326L22.4,17.98l.206,2.052c.1,1.028.21,2.057.31,3.084a.3.3,0,0,0,.287.319c.708.147,1.408.322,2.113.485C25.895,24.054,26.476,24.185,27.11,24.328Zm-13.384-.387c.015-.317.021-.606.045-.891a4.288,4.288,0,0,1,3.747-4.1c.414-.074.832-.125,1.277-.19-.117-1.184-.232-2.346-.347-3.519l-4.148.627v.179a3.322,3.322,0,0,1-2.636,3.358c-.184.047-.187.16-.2.3q-.2,1.9-.4,3.8c-.032.308-.05.619-.077.955Zm5.861-14.3,7.053,1.784c.015-.066.027-.1.031-.139.15-1.159.3-2.317.456-3.475.027-.2-.057-.263-.226-.325Q23.992,6.4,21.084,5.3l-1.031-.387C19.895,6.515,19.743,8.069,19.588,9.644ZM3.8,11.192a.833.833,0,0,0-.007.151c.1,1.019.2,2.039.311,3.055.009.074.142.171.231.19.33.068.666.105,1,.157l2.4.369a3.437,3.437,0,0,1,2.728-2.31.9.9,0,0,0,.007-.157c-.115-1.046-.229-2.093-.358-3.137a.413.413,0,0,0-.225-.251c-.466-.212-.94-.4-1.411-.6L7.157,8.1C6.955,10.157,5.694,11.021,3.8,11.192Zm22.821.57L19.557,9.979c-.113,1.449-.222,2.85-.333,4.277l6.967.841C26.335,13.973,26.474,12.886,26.617,11.762ZM18.742,9.424c.124-1.332.246-2.654.372-4.012-.11.048-.188.079-.264.116l-2.088,1Q13.971,7.857,11.18,9.186c-.124.06-.229.1-.206.289.134,1.1.249,2.2.369,3.282l1.32.443a3.121,3.121,0,0,0,.219-.422c.3-.832.607-1.664.892-2.5a.319.319,0,0,1,.295-.257c.5-.057,1-.118,1.494-.182ZM5.862,23.481c.183-1.167.372-2.3.533-3.435a.772.772,0,0,1,.318-.549c.531-.414,1.054-.843,1.59-1.275a3.559,3.559,0,0,1-.737-2.116c0-.059-.122-.153-.2-.167-.579-.1-1.161-.192-1.743-.281-.53-.082-1.06-.158-1.613-.24-.3,2.528-.6,5.027-.9,7.545ZM18.71,9.766l-1.477.189c-.956.122-1.912.246-2.87.365a.357.357,0,0,0-.337.277c-.322.954-.671,1.9-1.024,2.887a3.142,3.142,0,0,1,1,1.286.312.312,0,0,0,.409.223c.732-.122,1.467-.224,2.2-.337.58-.088,1.159-.179,1.756-.271C18.48,12.85,18.593,11.333,18.71,9.766ZM8.521,18.481c-.412.332-.807.675-1.229.98a1.352,1.352,0,0,0-.638,1.02c-.112,1.014-.3,2.018-.463,3.063l3.928.735c.169-1.61.336-3.2.5-4.78A3.588,3.588,0,0,1,8.521,18.481ZM14.1,23.871l5.1-.973c-.066-.662-.127-1.276-.189-1.891s-.119-1.243-.179-1.86C15.821,19.2,13.935,20.907,14.1,23.871ZM8.259,16.143a2.688,2.688,0,1,0,2.705-2.7A2.684,2.684,0,0,0,8.259,16.143ZM3.723,10.865c.282-.039.514-.057.739-.1A2.675,2.675,0,0,0,6.735,8.652c.152-.66.154-.66-.464-.925a.231.231,0,0,1-.025-.015l-3.089-1.3C3.347,7.906,3.532,9.367,3.723,10.865Z" fill="#5b5b5b"/><path d="M9.3,16.149a1.642,1.642,0,1,1,3.284-.006,1.642,1.642,0,1,1-3.284.006Z" fill="#5b5b5b"/></svg>