<svg id="guias" xmlns="http://www.w3.org/2000/svg" viewBox="0 0 30 30"><title>iconos</title><path d="M22.835,12.618a.9.9,0,0,0-.354-.5c-.877-.351-1.758-.672-2.689-1.012l-.83-.3a6.226,6.226,0,0,1-.248.777A2.758,2.758,0,0,0,18.454,13c.077.5.355,2.586.441,3.127a.555.555,0,0,1-.457.715c-.3.088-1.523.48-1.834.57a1.158,1.158,0,0,0-.7.547c-.2.311-.989,1.391-1.155,1.645a1.341,1.341,0,0,0-.257.67c-.016,1.1-.012,4.428-.013,4.988,0,.231,0,.547-.306.547-.08,0-2.794-.859-3.577-1.1a.565.565,0,0,1-.467-.715c.095-.6.384-2.654.446-3.078a1.377,1.377,0,0,0-.676-1.35S9.429,22.946,9.32,23.9a.8.8,0,0,1-.671.773c-.953.258-4.456,1.234-4.812,1.3s-.256-.311-.256-.311c.031-.107.46-1.307.649-1.82.439-1.2.895-2.436,1.289-3.666a2.128,2.128,0,0,1,1.551-1.609,9.273,9.273,0,0,0,1.265-.488c.154-.068.311-.139.466-.2-.221-.545-.3-.7-.471-.7-.132,0-1.664.58-1.664.58s-.453.289.471-1.979a1.743,1.743,0,0,0-.18-1.649q-.053-.1-.1-.2a6.367,6.367,0,0,0-.239.591L5.905,16.5c-1.168,3.246-2.375,6.6-3.547,9.908a.836.836,0,0,0,.045.672.59.59,0,0,0,.39.1,1.182,1.182,0,0,0,.285-.033c1.149-.311,5.26-1.469,6.17-1.719a1.5,1.5,0,0,1,.772.014c.856.262,4.056,1.273,4.8,1.5a.942.942,0,0,0,.51,0c.7-.215,3.867-1.217,4.76-1.488a1.64,1.64,0,0,1,.858-.006c.932.254,6.293,1.733,6.388,1.733a.627.627,0,0,0,.411-.109.837.837,0,0,0,.025-.67C27.352,25.155,23.736,15.1,22.835,12.618ZM19.543,24.683c-1.263.389-2.39.74-3.445,1.078a.764.764,0,0,1-.227.041.314.314,0,0,1-.235-.09.546.546,0,0,1-.117-.408c0-.744,0-1.49,0-2.232v-.83c0-.295,0-.59,0-.885,0-.684,0-1.391-.008-2.086a.656.656,0,0,1,.522-.736c.787-.234,1.56-.486,2.479-.793a.774.774,0,0,1,.25-.049c.338,0,.382.35.4.48.239,1.855.5,3.768.783,5.844A.527.527,0,0,1,19.543,24.683Zm.294-8.3c-.179-1.158-.5-4.174-.508-4.255s.095-.168.259-.111c.107.031,1.96.556,2.149.614.234.072.485.58.844,1.842.1.336.951,2.78.979,2.87.1.313-.058.352-.8.174s-1.649-.436-2.465-.678A.717.717,0,0,1,19.837,16.38Zm6.734,9.4c0,.029,0,.063,0,.1v.125L26.444,26c-.053-.008-.1-.014-.153-.018a2.2,2.2,0,0,1-.307-.053q-.812-.226-1.623-.455c-.941-.266-1.881-.531-2.824-.787a.845.845,0,0,1-.722-.785c-.215-1.736-.457-3.5-.692-5.2l-.054-.375a.489.489,0,0,1,.067-.406c.085-.1.223-.119.436-.062.32.088.642.174.963.26.728.193,1.479.4,2.215.609a.821.821,0,0,1,.481.441c.712,1.936,1.419,3.912,2.1,5.822l.226.631A.407.407,0,0,1,26.571,25.784Z" fill="#5b5b5b"/><path d="M12.343,1.966a7.65,7.65,0,0,0-1.557.162A6.2,6.2,0,0,0,6.773,4.855a5.626,5.626,0,0,0-.722,4.453c.7,2.729,4.492,9.381,5.321,10.219a1.321,1.321,0,0,0,2,.025,35.863,35.863,0,0,0,4.654-8.023,12.723,12.723,0,0,0,.838-3.8c-.012-.066-.022-.164-.034-.27a6.4,6.4,0,0,0-.136-.848A6.385,6.385,0,0,0,12.343,1.966Zm4.622,9.623a54.2,54.2,0,0,1-4.106,7.2.658.658,0,0,1-.471.229.614.614,0,0,1-.474-.25c-.122-.146-4.07-6.7-4.812-9.3A5,5,0,0,1,9.966,3.391a5.674,5.674,0,0,1,2.348-.505,5.768,5.768,0,0,1,4.034,1.638A4.928,4.928,0,0,1,17.835,8.1,12.819,12.819,0,0,1,16.965,11.589Z" fill="#5b5b5b"/><path d="M16.261,8.331a3.909,3.909,0,1,0-3.918,3.9h.014A3.925,3.925,0,0,0,16.261,8.331Zm-6.924,0a3.034,3.034,0,0,1,3-3.035h.01a3.038,3.038,0,0,1,3.017,3.014,3.057,3.057,0,0,1-2.982,3.013H12.36A3.03,3.03,0,0,1,9.337,8.332Z" fill="#5b5b5b"/></svg>