<svg id="guias" xmlns="http://www.w3.org/2000/svg" viewBox="0 0 30 30"><title>iconos</title><path d="M26.075,3.9a1.277,1.277,0,0,0-.932-.366H19.067a.69.69,0,0,0-.605.246.863.863,0,0,0-.229.589V5.29a.88.88,0,0,0,.265.626.787.787,0,0,0,.57.208h2.926l-4.7,4.694A8.57,8.57,0,0,0,12.068,9.1a9.6,9.6,0,0,0-3.422.7A9.281,9.281,0,0,0,5.88,11.664a8.334,8.334,0,0,0-1.865,2.818,8.294,8.294,0,0,0-.7,3.423,8.5,8.5,0,0,0,.689,3.405,7.251,7.251,0,0,0,1.861,2.773,7.271,7.271,0,0,0,2.783,1.877,8.534,8.534,0,0,0,3.417.7,8.286,8.286,0,0,0,3.408-.691,8.388,8.388,0,0,0,2.834-1.87,9.319,9.319,0,0,0,1.872-2.787,9.565,9.565,0,0,0,.688-3.4,8.574,8.574,0,0,0-1.715-5.228L23.85,7.982v2.926a.767.767,0,0,0,.211.569.86.86,0,0,0,.625.266H25.6a.861.861,0,0,0,.587-.229.684.684,0,0,0,.248-.605V4.829A1.267,1.267,0,0,0,26.075,3.9Zm-9.623,9.622a5.984,5.984,0,0,1,1.78,4.382,5.918,5.918,0,0,1-1.781,4.332,6,6,0,0,1-4.383,1.832,5.938,5.938,0,0,1-4.331-1.833,5.943,5.943,0,0,1-1.832-4.331,6.008,6.008,0,0,1,1.832-4.382,5.917,5.917,0,0,1,4.331-1.78A5.905,5.905,0,0,1,16.452,13.523Z" fill="#5e5e5e"/></svg>