<svg id="guias" xmlns="http://www.w3.org/2000/svg" viewBox="0 0 30 30"><title>iconos</title><path d="M27.44,26.3a.179.179,0,0,0,.18-.01.183.183,0,0,0,.087-.157V9.475l-8,13.107Z" fill="#5e5e5e"/><path d="M27.427,8.974a.3.3,0,0,0-.126-.427l-6.426-3.09h0l-1.246-.6a.3.3,0,0,0-.388.115l-5.2,8.564.985,1.608,4.326,7.062Z" fill="#5e5e5e"/><polygon points="10.963 18.377 18.694 22.094 13.453 13.539 13.454 13.538 10.963 9.472 10.963 18.377" fill="#5e5e5e"/><path d="M2.466,4.915a.177.177,0,0,0-.092.026.172.172,0,0,0-.081.146V22.381a.188.188,0,0,0,.106.169L10.2,26.3a.186.186,0,0,0,.268-.167V8.742L2.54,4.933A.171.171,0,0,0,2.466,4.915Z" fill="#5e5e5e"/></svg>