<svg id="guias" xmlns="http://www.w3.org/2000/svg" viewBox="0 0 30 30"><title>iconos</title><path d="M26.557,6.429a.057.057,0,0,1-.006-.016c-.006-.008-.016-.01-.02-.019a2.219,2.219,0,0,0-1.758-.886H5.135a2.215,2.215,0,0,0-1.754.883c-.007.009-.018.012-.023.022s0,.013-.01.019a2.314,2.314,0,0,0-.457,1.375V22.193a2.274,2.274,0,0,0,2.244,2.3H24.773a2.272,2.272,0,0,0,2.242-2.3V7.807a2.307,2.307,0,0,0-.459-1.378M23.4,7.5l-8.447,6.256L6.5,7.5Zm1.371,15H5.135a.284.284,0,0,1-.25-.3V8.785L14.361,15.8a.992.992,0,0,0,1.187,0l9.473-7.015V22.193a.282.282,0,0,1-.248.3" fill="#5e5e5e"/></svg>