<svg id="guias" xmlns="http://www.w3.org/2000/svg" viewBox="0 0 30 30"><title>message</title><path d="M26.008,6A3.148,3.148,0,0,0,23.7,5.04H6.3a3.2,3.2,0,0,0-1.636.438A3.237,3.237,0,0,0,3.472,6.667,3.2,3.2,0,0,0,3.034,8.3v9.642a3.147,3.147,0,0,0,.958,2.306,3.147,3.147,0,0,0,2.306.958H8.374l3.7,4.537,3.7-4.537H23.7a3.27,3.27,0,0,0,3.264-3.263V8.3A3.149,3.149,0,0,0,26.008,6ZM8.128,9.258a.511.511,0,0,1,.495-.526H15.3a.511.511,0,0,1,.495.526V9.39a.511.511,0,0,1-.495.526H8.622a.511.511,0,0,1-.495-.526Zm13.744,7.215a.511.511,0,0,1-.494.526H8.622a.511.511,0,0,1-.495-.526v-.131a.511.511,0,0,1,.495-.526H21.378a.511.511,0,0,1,.494.526Zm0-3.559a.511.511,0,0,1-.494.526H8.622a.511.511,0,0,1-.495-.526v-.131a.511.511,0,0,1,.495-.526H21.378a.511.511,0,0,1,.494.526Z" fill="#5e5e5e"/></svg>