<?xml version="1.0" encoding="utf-8"?>
<!-- Generator: Adobe Illustrator 21.0.2, SVG Export Plug-In . SVG Version: 6.00 Build 0)  -->
<svg version="1.1" id="guias" xmlns="http://www.w3.org/2000/svg" xmlns:xlink="http://www.w3.org/1999/xlink" x="0px" y="0px"
	 viewBox="0 0 30 30" enable-background="new 0 0 30 30" xml:space="preserve">
<path fill="#5E5E5E" d="M23.416,7.689l-1.409-1.73c-0.04-0.049-0.081-0.1-0.125-0.144c-0.224-0.241-0.538-0.38-0.867-0.382
	c-0.26,0-0.513,0.089-0.716,0.252c-0.48,0.38-0.587,1.065-0.245,1.573c0.082,0.135,0.12,0.292,0.107,0.45
	c-0.043,0.401-0.11,0.798-0.2,1.191c-0.24,1.182-0.867,2.251-1.782,3.037c-0.7,0.584-1.423,1.17-2.121,1.736l-0.842,0.684
	c-0.019,0.015-0.042,0.025-0.066,0.03l-0.03,0.008l-0.041-0.013c-0.017-0.008-0.031-0.02-0.043-0.034l-0.139-0.168
	c-0.083-0.1-0.165-0.2-0.249-0.3c-0.088-0.16-0.289-0.219-0.449-0.131c-0.035,0.019-0.066,0.044-0.092,0.074
	c-0.068,0.057-0.131,0.12-0.189,0.187c-0.024,0.026-0.046,0.05-0.066,0.071l-0.057,0.058l-0.766-0.926l0.06-0.046l0.094-0.07
	c0.073-0.053,0.147-0.109,0.217-0.17c0.154-0.102,0.196-0.31,0.094-0.464c-0.008-0.013-0.017-0.024-0.027-0.036
	c-0.125-0.142-0.342-0.156-0.484-0.031c-0.005,0.005-0.011,0.01-0.016,0.015c-0.462,0.372-0.883,0.714-1.288,1.048
	c-0.154,0.094-0.202,0.296-0.108,0.45c0.009,0.015,0.019,0.028,0.03,0.041c0.116,0.146,0.328,0.169,0.474,0.053
	c0.009-0.007,0.018-0.015,0.026-0.023c0.069-0.057,0.133-0.12,0.192-0.187c0.027-0.029,0.053-0.057,0.079-0.083l0.058-0.058
	l0.773,0.961l-0.071,0.044l-0.07,0.041c-0.058,0.031-0.113,0.066-0.165,0.105c-0.149,0.12-0.22,0.216-0.23,0.311
	c0.006,0.136,0.064,0.265,0.163,0.359c0.08,0.1,0.165,0.193,0.251,0.289l0.117,0.132l0.05,0.057l-0.714,0.577l-0.045-0.063
	c-0.041-0.057-0.081-0.114-0.12-0.171c-0.087-0.125-0.176-0.255-0.275-0.37c-0.094-0.152-0.292-0.199-0.444-0.106
	c-0.026,0.016-0.049,0.035-0.07,0.058c-0.071,0.058-0.138,0.121-0.2,0.188c-0.028,0.029-0.056,0.058-0.083,0.085l-0.058,0.056
	l-0.778-0.962l0.069-0.044c0.033-0.021,0.068-0.042,0.1-0.063c0.083-0.046,0.162-0.099,0.236-0.159
	c0.147-0.108,0.179-0.315,0.071-0.463c-0.004-0.006-0.009-0.012-0.014-0.017c-0.123-0.143-0.338-0.159-0.481-0.036
	c-0.001,0.001-0.002,0.002-0.003,0.003c-0.445,0.356-0.89,0.718-1.321,1.076c-0.148,0.097-0.19,0.296-0.093,0.444
	c0.008,0.012,0.016,0.023,0.025,0.034c0.119,0.146,0.334,0.167,0.48,0.048c0.001-0.001,0.002-0.002,0.003-0.003
	c0.075-0.061,0.145-0.128,0.209-0.2c0.03-0.032,0.06-0.063,0.09-0.092l0.058-0.057l0.752,0.941l-0.061,0.045l-0.089,0.064
	c-0.072,0.052-0.147,0.105-0.217,0.165c-0.156,0.097-0.204,0.303-0.107,0.459c0.016,0.026,0.035,0.049,0.058,0.069
	c0.094,0.114,0.195,0.222,0.3,0.336l0.14,0.152l0.053,0.058l-0.741,0.581l-0.044-0.064c-0.027-0.039-0.054-0.079-0.081-0.12
	c-0.058-0.088-0.118-0.178-0.185-0.261c-0.174-0.218-0.282-0.3-0.384-0.3s-0.2,0.063-0.388,0.216
	c-0.042,0.039-0.079,0.082-0.111,0.13c-0.016,0.022-0.031,0.043-0.046,0.06l-0.057,0.07l-0.777-0.968L7.98,17.3l0.1-0.067
	c0.081-0.052,0.159-0.108,0.234-0.169c0.087-0.068,0.143-0.168,0.156-0.277c0.006-0.086-0.024-0.171-0.083-0.234
	c-0.139-0.139-0.365-0.14-0.505,0c0,0,0,0,0,0c-0.425,0.343-0.849,0.688-1.27,1.035c-0.089,0.064-0.15,0.161-0.167,0.27
	c-0.006,0.087,0.024,0.173,0.083,0.237c0.128,0.142,0.346,0.154,0.489,0.027c0.004-0.003,0.008-0.007,0.011-0.011
	c0.064-0.052,0.123-0.11,0.177-0.172l0.051-0.054l0.057-0.057l0.772,0.929l-0.066,0.046l-0.067,0.044
	c-0.056,0.035-0.111,0.074-0.163,0.115c-0.102,0.067-0.174,0.171-0.2,0.29c0.002,0.119,0.05,0.232,0.135,0.315
	c0.083,0.1,0.173,0.2,0.277,0.31l0.171,0.185l0.062,0.068l-0.08,0.045C8.109,20.2,8.07,20.22,8.036,20.238
	c-0.048,0.022-0.093,0.049-0.136,0.08c-1.008,0.817-2.014,1.635-3.018,2.455c-0.249,0.2-0.265,0.35-0.065,0.606
	c0.028,0.035,0.054,0.071,0.08,0.107l0.083,0.111l-0.048,0.045c-0.483,0.455-0.476,0.563-0.34,0.719
	c0.046,0.057,0.107,0.099,0.177,0.121c0.157-0.049,0.309-0.11,0.457-0.181c0.063-0.029,0.127-0.058,0.193-0.086l0.046-0.019
	L5.5,24.231c0.165,0.165,0.249,0.221,0.336,0.221c0.145-0.03,0.279-0.099,0.387-0.2L7.8,23.117l-0.017,0.162
	c-0.266,1.601,0.816,3.115,2.418,3.381c0.924,0.153,1.865-0.143,2.535-0.797l0.043-0.037l0.046,0.032
	c0.451,0.429,1.148,0.465,1.641,0.084c0.477-0.388,0.592-1.071,0.268-1.594l-0.021-0.051l0.646-0.525l0.046,0.038
	c0.419,0.393,1.054,0.443,1.53,0.121c0.52-0.367,0.621-0.868,0.338-1.677l-0.017-0.048l0.615-0.516l0.047,0.037
	c0.439,0.415,1.112,0.457,1.6,0.1c0.507-0.393,0.59-0.934,0.262-1.7l-0.027-0.063l0.062-0.031l0.058-0.026
	c0.045-0.017,0.088-0.04,0.127-0.069l0.421-0.338c0.393-0.315,0.8-0.64,1.182-0.978c0.739-0.637,1.102-1.607,0.965-2.573
	c-0.136-0.972-0.75-1.811-1.635-2.235c-0.032-0.016-0.064-0.033-0.1-0.053l-0.179-0.1l0.179-0.1
	c0.032-0.017,0.057-0.031,0.084-0.043c1.153-0.503,2.425-0.669,3.669-0.479c0.133,0.03,0.254,0.1,0.347,0.2
	c0.221,0.216,0.517,0.338,0.826,0.339c0.5,0.002,0.944-0.318,1.1-0.792c0.142-0.422,0.038-0.887-0.27-1.208
	C25.53,10.285,24.472,8.989,23.416,7.689z M13.651,16.518l0.522,0.666l-0.627,0.452l-0.5-0.634L13.651,16.518z M14.596,18.954
	l-0.591-0.747l0.632-0.469l0.594,0.745L14.596,18.954z M15.665,19.054l0.66,0.809l-0.613,0.459l-0.654-0.817L15.665,19.054z
	 M11.112,18.586l0.55,0.635L11,19.753l-0.5-0.677L11.112,18.586z M12.067,21.017L11.5,20.3l0.612-0.51l0.592,0.755L12.067,21.017z
	 M13.139,21.117l0.65,0.8l-0.618,0.47l-0.647-0.816L13.139,21.117z M5.906,23.66l-0.35-0.52l3.024-2.459l0.521,0.658L5.906,23.66z
	 M12.295,25.338c-0.419,0.438-0.995,0.69-1.6,0.7c-0.203-0.001-0.404-0.028-0.6-0.081c-0.861-0.19-1.513-0.895-1.635-1.768
	c-0.174-0.913,0.242-1.838,1.04-2.314l0.058-0.041l0.6,0.8l-0.061,0.044c-0.404,0.238-0.652,0.671-0.655,1.14
	c0.001,0.285,0.105,0.559,0.293,0.773c0.229,0.276,0.571,0.433,0.929,0.429H10.7c0.281-0.007,0.3-0.007,0.994-0.457l0.056-0.036
	l0.6,0.767L12.295,25.338z M10.5,23.213l0.1-0.073l0.674,0.856l-0.054,0.046l-0.073,0.064c-0.123,0.141-0.296,0.229-0.482,0.246
	c-0.062,0-0.124-0.011-0.182-0.032c-0.208-0.061-0.356-0.244-0.371-0.46C10.081,23.525,10.306,23.359,10.5,23.213z M13.921,25.492
	c-0.07,0.033-0.147,0.051-0.225,0.052c-0.126-0.002-0.247-0.05-0.341-0.135c-0.047-0.042-0.089-0.087-0.127-0.137L8.54,19.508
	c-0.019-0.023-0.037-0.048-0.057-0.076l-0.074-0.1l0.82-0.651l0.079,0.084c0.03,0.031,0.063,0.065,0.092,0.1l0.556,0.683
	C11.3,21.2,12.687,22.9,14.047,24.58c0.099,0.129,0.162,0.282,0.182,0.444c0.018,0.207-0.107,0.4-0.304,0.467L13.921,25.492z
	 M14.242,23.712l-0.607-0.75l0.638-0.477l0.6,0.755L14.242,23.712z M16.451,23.428c-0.067,0.031-0.14,0.048-0.214,0.049
	c-0.122-0.003-0.239-0.047-0.331-0.126c-0.044-0.038-0.085-0.081-0.12-0.128L11.1,17.466c-0.026-0.033-0.051-0.067-0.073-0.1
	l-0.065-0.089l0.807-0.675l0.082,0.09c0.028,0.03,0.055,0.06,0.081,0.091l0.739,0.907c1.282,1.574,2.609,3.2,3.907,4.808
	c0.102,0.135,0.166,0.295,0.186,0.463c0.018,0.208-0.109,0.401-0.308,0.466L16.451,23.428z M16.771,21.615l-0.568-0.718l0.618-0.491
	l0.6,0.747L16.771,21.615z M19.277,21.072c-0.112,0.272-0.424,0.402-0.696,0.289c-0.037-0.015-0.072-0.034-0.104-0.057
	c-0.068-0.053-0.129-0.114-0.182-0.183c-1.561-1.915-3.12-3.831-4.679-5.747c-0.019-0.024-0.038-0.049-0.059-0.078l-0.072-0.1
	l0.812-0.662l0.087,0.093c0.032,0.033,0.063,0.065,0.091,0.1l1.192,1.464c1.157,1.421,2.316,2.842,3.475,4.263
	c0.16,0.162,0.214,0.401,0.14,0.617L19.277,21.072z M17.577,17.456l0.1-0.089c0.038-0.034,0.079-0.069,0.12-0.1l0.408-0.334
	c0.36-0.294,0.719-0.589,1.083-0.878c0.115-0.098,0.261-0.153,0.412-0.155c0.234-0.003,0.442,0.151,0.508,0.376
	c0.078,0.197,0.021,0.422-0.141,0.559c-0.421,0.349-0.855,0.7-1.274,1.036l-0.532,0.428L17.577,17.456z M21.39,15
	c0.785,0.914,0.696,2.287-0.2,3.092c-0.4,0.354-0.83,0.688-1.247,1.012c-0.191,0.148-0.383,0.3-0.574,0.45L19.312,19.6l-0.6-0.756
	l0.092-0.084c0.034-0.032,0.071-0.065,0.109-0.1l0.672-0.548l0.852-0.694c0.537-0.413,0.638-1.183,0.226-1.721
	c-0.23-0.299-0.585-0.476-0.963-0.479c-0.283,0.002-0.556,0.099-0.777,0.275c-0.359,0.28-0.716,0.574-1.063,0.858l-0.481,0.393
	c-0.038,0.031-0.077,0.06-0.117,0.09l-0.115,0.088l-0.616-0.785l1.737-1.413C19.209,13.946,20.6,14.069,21.39,15z M23.912,12.283
	c-0.141,0.01-0.287,0.018-0.437,0.026c-0.34,0.019-0.691,0.038-1.04,0.084c-0.973,0.122-1.901,0.483-2.7,1.051
	c-0.101,0.065-0.216,0.104-0.335,0.115c-0.568,0.059-1.107,0.284-1.548,0.647l-1.119,0.914l-0.629,0.514l-0.571-0.733l0.077-0.041
	l0.058-0.028c0.045-0.019,0.087-0.042,0.126-0.071l0.41-0.333c0.793-0.645,1.613-1.312,2.414-1.974
	c0.975-0.833,1.662-1.953,1.961-3.2c0.054-0.2,0.1-0.392,0.138-0.582c0.019-0.084,0.037-0.166,0.055-0.245l0.034-0.146l3.252,3.994
	L23.912,12.283z M26.17,12.674c-0.075,0.086-0.166,0.155-0.269,0.205c-0.045,0.026-0.093,0.054-0.14,0.085l-0.046,0.031
	l-0.042-0.036c-0.049-0.041-0.094-0.077-0.137-0.11c-0.083-0.06-0.16-0.129-0.228-0.206c-1.094-1.337-2.186-2.676-3.275-4.017
	L21.27,7.69c-0.197-0.241-0.392-0.482-0.587-0.723c-0.198-0.192-0.203-0.509-0.011-0.707c0.011-0.012,0.023-0.023,0.035-0.033
	c0.213-0.175,0.528-0.145,0.704,0.068c0.011,0.013,0.021,0.027,0.03,0.041l2.9,3.559l1.766,2.168
	c0.169,0.159,0.195,0.417,0.063,0.607L26.17,12.674z"/>
<path fill="#5E5E5E" d="M10.651,7.925V5.739c0.001-0.049-0.001-0.098-0.008-0.147c-0.016-0.16-0.152-0.282-0.313-0.281
	c-0.04,0-0.079,0.007-0.117,0.02c-0.041,0.014-0.081,0.031-0.12,0.05L9.04,5.848c-0.879,0.39-1.876,0.832-2.858,1.26
	C6.003,7.171,5.889,7.346,5.904,7.535c0,1.274,0,2.547,0,3.82v1.2C5.627,12.404,5.316,12.324,5,12.322
	c-0.588,0.001-1.147,0.25-1.541,0.686C3.123,13.369,3,13.88,3.135,14.354c0.15,0.46,0.529,0.807,1,0.916
	c0.515,0.146,1.067,0.074,1.526-0.2c0.581-0.291,0.937-0.897,0.909-1.547c-0.007-0.838-0.007-1.692-0.007-2.519v-0.337
	c0-0.6,0-1.057,0-1.659C6.552,8.929,6.602,8.854,6.68,8.834L10,7.373v3.392L9.968,10.75c-0.279-0.142-0.587-0.215-0.9-0.214
	c-0.622-0.001-1.209,0.286-1.59,0.778c-0.475,0.557-0.408,1.393,0.148,1.868c0.129,0.11,0.278,0.194,0.439,0.248
	c0.216,0.084,0.445,0.128,0.677,0.129c0.299-0.002,0.593-0.072,0.86-0.205c0.661-0.263,1.084-0.915,1.053-1.626
	C10.648,10.462,10.65,9.172,10.651,7.925z M10,6.6c0,0.03-0.056,0.076-0.095,0.095C9.405,6.92,7.078,7.94,6.56,8.167
	c0-0.172,0-0.424,0.006-0.481c0-0.009,0.026-0.039,0.087-0.069C7.429,7.272,9.519,6.35,10,6.136C10.006,6.322,10.006,6.552,10,6.6z
	 M8.568,12.891c-0.112-0.024-0.222-0.057-0.329-0.1c-0.182-0.074-0.324-0.223-0.39-0.408c-0.059-0.195-0.031-0.405,0.077-0.578
	c0.255-0.398,0.697-0.635,1.169-0.628c0.166-0.002,0.33,0.032,0.482,0.1c0.344,0.13,0.518,0.514,0.388,0.858
	C9.948,12.18,9.926,12.224,9.9,12.264c-0.259,0.401-0.7,0.648-1.177,0.661L8.568,12.891z M4.437,14.67L4.4,14.661
	c-0.114-0.027-0.225-0.066-0.331-0.117c-0.312-0.152-0.442-0.528-0.29-0.841c0.005-0.011,0.011-0.022,0.017-0.033
	c0.195-0.39,0.579-0.651,1.014-0.688c0.066-0.01,0.133-0.015,0.2-0.015c0.155,0,0.308,0.03,0.45,0.09
	c0.199,0.077,0.355,0.238,0.425,0.44c0.054,0.199,0.018,0.412-0.1,0.582c-0.281,0.414-0.76,0.65-1.259,0.618
	C4.505,14.687,4.475,14.679,4.437,14.67z"/>
<path fill="#5E5E5E" d="M16.646,4.449C16.482,4.362,16.332,4.251,16.2,4.12c-0.174-0.177-0.336-0.378-0.478-0.553
	c-0.027-0.035-0.055-0.069-0.082-0.1L15.61,3.43c-0.083-0.144-0.266-0.193-0.41-0.11c0,0,0,0,0,0
	c-0.103,0.068-0.158,0.189-0.143,0.311c0,1.235,0,2.468,0,3.7V8.12c-0.239-0.14-0.512-0.212-0.789-0.209
	c-0.505,0.003-0.988,0.207-1.341,0.568c-0.303,0.302-0.434,0.736-0.349,1.155c0.094,0.389,0.375,0.705,0.75,0.844
	c0.197,0.08,0.408,0.121,0.621,0.122c0.307-0.003,0.609-0.086,0.875-0.24c0.524-0.254,0.846-0.796,0.82-1.378
	c-0.01-0.976-0.009-1.973-0.008-2.937V5.774c0-0.432,0-0.863,0-1.294V4.41c0.252,0.259,0.542,0.477,0.86,0.648
	c0.184,0.113,0.298,0.312,0.3,0.528c0,0.062,0.006,0.124,0.007,0.185v0.2c-0.001,0.162,0.129,0.294,0.291,0.296
	s0.294-0.129,0.295-0.291c0.006-0.11,0.008-0.208,0-0.309C17.391,5.153,17.104,4.682,16.646,4.449z M14.968,9.431
	C14.746,9.79,14.353,10.006,13.931,10c-0.149,0.002-0.297-0.029-0.432-0.092c-0.162-0.071-0.287-0.208-0.342-0.377
	c-0.045-0.171-0.014-0.353,0.085-0.5c0.238-0.355,0.644-0.561,1.071-0.545l0.045,0.011l0.04,0.01c0.101,0.018,0.2,0.046,0.295,0.086
	c0.152,0.062,0.271,0.185,0.329,0.339C15.075,9.099,15.055,9.28,14.968,9.431z"/>
</svg>
