<svg id="guias" xmlns="http://www.w3.org/2000/svg" viewBox="0 0 30 30"><title>padlock-open-full</title><path d="M24.12,15.75A3,3,0,0,0,21,12.69h-.38V11.58c0-.81,0-1.62,0-2.43a7.5,7.5,0,0,0-.12-1.29A6,6,0,0,0,14.62,3a5.68,5.68,0,0,0-2.69.67A6.1,6.1,0,0,0,8.68,9.81a1,1,0,0,0,.79.87,1,1,0,0,0,1.24-1c0-.15,0-.3,0-.46a5.15,5.15,0,0,1,.06-.92,3.89,3.89,0,0,1,3.87-3.23,4.46,4.46,0,0,1,.8.08,3.82,3.82,0,0,1,3.08,3.3c.06,1,0,2,0,3,0,.39,0,.79,0,1.19H8.4a4.24,4.24,0,0,0-1,.1,3,3,0,0,0-2.24,3q0,4,0,8.1a3.31,3.31,0,0,0,.09.8A2.93,2.93,0,0,0,8.23,27H21a3,3,0,0,0,3.11-3.06c0-2.94,0-5.62,0-8.18m-8.41,4.45c0,.24,0,.48,0,.72a1,1,0,0,1-.77,1,1.31,1.31,0,0,1-.27,0,1,1,0,0,1-.89-.52,1.35,1.35,0,0,1-.15-.59c0-.64,0-1.29,0-2a1.07,1.07,0,0,1,1-1.12,1.1,1.1,0,0,1,.41.08,1,1,0,0,1,.65,1c0,.24,0,.48,0,.72v.57Z" fill="#5e5e5e"/></svg>