<svg id="guias" xmlns="http://www.w3.org/2000/svg" viewBox="0 0 30 30"><title>open-padlock</title><path d="M24.44,15.75a3,3,0,0,0-3.08-3.06H21V11.57c0-.81,0-1.62,0-2.43a7.71,7.71,0,0,0-.12-1.29A6,6,0,0,0,14.94,3a5.68,5.68,0,0,0-2.69.67A6.1,6.1,0,0,0,9,9.81a1,1,0,0,0,.79.87,1,1,0,0,0,1.24-1c0-.15,0-.3,0-.46a5.13,5.13,0,0,1,.06-.92A3.89,3.89,0,0,1,15,5.08a4.1,4.1,0,0,1,.8.08,3.82,3.82,0,0,1,3.08,3.3c.06,1,0,2,0,3,0,.39,0,.79,0,1.19H8.73a3.89,3.89,0,0,0-1,.1,2.94,2.94,0,0,0-2.24,3q0,4.05,0,8.1a3.26,3.26,0,0,0,.09.8A2.93,2.93,0,0,0,8.55,27H21.33a3,3,0,0,0,3.11-3.06c0-2.95,0-5.62,0-8.18m-16.83,0a.9.9,0,0,1,1-1H21.34a.92.92,0,0,1,1,1q0,4.1,0,8.2a.91.91,0,0,1-1,1H8.63a1,1,0,0,1-.74-.27,1.08,1.08,0,0,1-.28-.77c0-1.93,0-3.86,0-5.79Z" fill="#5e5e5e"/><path d="M14.1,21.45A1,1,0,0,0,15,22a1,1,0,0,0,1-1c0-.24,0-.48,0-.72v-.57c0-.24,0-.48,0-.72a1,1,0,0,0-.65-1,1.08,1.08,0,0,0-.4-.08,1.06,1.06,0,0,0-1,1.12c0,.66,0,1.31,0,2a1.34,1.34,0,0,0,.15.59" fill="#5e5e5e"/></svg>