<svg id="guias" xmlns="http://www.w3.org/2000/svg" viewBox="0 0 30 30"><title>padlock-closed-full</title><path d="M24.46,17.63q0-.92,0-1.84s0,0,0-.07a3.32,3.32,0,0,0-.13-.85c0-.08,0-.15-.07-.23a3,3,0,0,0-.36-.71l-.15-.18a2.84,2.84,0,0,0-.49-.47l-.2-.14a3.07,3.07,0,0,0-.68-.3l-.15-.06-.17,0-.11,0a3.69,3.69,0,0,0-.44,0H21V11.57c0-.62,0-1.25,0-1.87a6.73,6.73,0,0,0-.38-2.8c0-.07-.06-.14-.09-.21A5.61,5.61,0,0,0,20.18,6l-.1-.16a5.36,5.36,0,0,0-.5-.68l-.09-.1a6.19,6.19,0,0,0-.63-.61l-.1-.08A6.47,6.47,0,0,0,18,3.82l0,0-.21-.13c-.13-.07-.28-.1-.41-.16l-.52-.2a5.46,5.46,0,0,0-.65-.18,5.91,5.91,0,0,0-.84-.1c-.09,0-.18,0-.27,0H15c-.09,0-.18,0-.27,0a5.91,5.91,0,0,0-.84.1,5.3,5.3,0,0,0-.65.18l-.52.2c-.14.06-.28.09-.41.16L12,3.8l0,0a6.31,6.31,0,0,0-.78.54l-.1.08a6.43,6.43,0,0,0-.63.61l-.08.1a5.45,5.45,0,0,0-.5.68L9.82,6a5.88,5.88,0,0,0-.34.71c0,.07-.06.13-.09.21A6.8,6.8,0,0,0,9,9.7c0,.62,0,1.25,0,1.87v1.12H8.49a3.6,3.6,0,0,0-.44,0l-.11,0-.17,0-.15.06a3.05,3.05,0,0,0-.68.3l-.2.14a2.71,2.71,0,0,0-.5.47l-.15.18a2.93,2.93,0,0,0-.36.71c0,.07,0,.15-.07.23a3.51,3.51,0,0,0-.13.85s0,0,0,.07c0,.61,0,1.22,0,1.84,0,1.51,0,3.08,0,4.73V23.9s0,.05,0,.08a3.4,3.4,0,0,0,.08.67s0,0,0,.05a.72.72,0,0,0,0,.07,2.85,2.85,0,0,0,1,1.53l.14.11a3,3,0,0,0,.7.38l.27.08a3.45,3.45,0,0,0,.72.12l.11,0H21.44l.11,0a3.43,3.43,0,0,0,.72-.12l.27-.08a2.91,2.91,0,0,0,.7-.38l.14-.11a2.86,2.86,0,0,0,1-1.53s0,0,0-.07,0,0,0-.05a3.56,3.56,0,0,0,.08-.67s0-.05,0-.08c0-.52,0-1,0-1.55,0-1.64,0-3.21,0-4.73m-8.42,2v.57c0,.06,0,.12,0,.19s0,.32,0,.47h0s0,0,0,.05a1.21,1.21,0,0,1-.13.47s0,0,0,.05l0,0a1,1,0,0,1-.32.33l-.06,0a.9.9,0,0,1-.22.09A1.07,1.07,0,0,1,15,22h0a1.07,1.07,0,0,1-.25,0,.93.93,0,0,1-.22-.09l-.06,0a1,1,0,0,1-.31-.33l0,0s0,0,0-.05a1.23,1.23,0,0,1-.13-.47v-.05h0c0-.15,0-.31,0-.47s0-.12,0-.19v-.68c0-.21,0-.41,0-.62a1.22,1.22,0,0,1,.15-.55l.09-.15a1,1,0,0,1,.78-.42h0a1,1,0,0,1,.78.42l.09.15a1.24,1.24,0,0,1,.15.55c0,.21,0,.41,0,.62v.11m2.88-8.14c0,.4,0,.79,0,1.19H11.1c0-.4,0-.8,0-1.19,0-1.05,0-2,0-3a1.9,1.9,0,0,1,0-.28A4,4,0,0,1,12.41,6l.09-.08a3.79,3.79,0,0,1,.39-.27l.15-.1a4.38,4.38,0,0,1,.59-.27h0a3.8,3.8,0,0,1,.59-.15A4,4,0,0,1,15,5.07h0a4,4,0,0,1,.74.07,4,4,0,0,1,.59.15h0a4.34,4.34,0,0,1,.59.27l.15.1a3.83,3.83,0,0,1,.39.27l.08.08a4,4,0,0,1,1.26,2.14c0,.09,0,.18,0,.28.06,1,0,2,0,3" fill="#5e5e5e"/></svg>