<svg id="guias" xmlns="http://www.w3.org/2000/svg" viewBox="0 0 30 30"><title>iconos</title><path d="M26.277,5.358H3.721A1.846,1.846,0,0,0,1.876,7.2V22.762a1.847,1.847,0,0,0,1.845,1.845H26.277a1.847,1.847,0,0,0,1.846-1.845V7.2a1.846,1.846,0,0,0-1.846-1.845Zm.971,17.4a.972.972,0,0,1-.971.971H3.721a.971.971,0,0,1-.968-.971V7.2a.969.969,0,0,1,.968-.97H26.277a.97.97,0,0,1,.971.97Zm0,0" fill="#5e5f5e"/><path d="M8.876,18.043H4.939a.438.438,0,0,0,0,.876H8.876a.438.438,0,0,0,0-.876Zm0,0" fill="#5e5f5e"/><path d="M14.562,18.043H10.626a.438.438,0,1,0,0,.876h3.936a.438.438,0,1,0,0-.876Zm0,0" fill="#5e5f5e"/><path d="M5.374,20.231H4.939a.437.437,0,1,0,0,.874h.436a.437.437,0,1,0,0-.874Zm0,0" fill="#5e5f5e"/><path d="M8,20.231H7.127a.437.437,0,1,0,0,.874H8a.437.437,0,1,0,0-.874Zm0,0" fill="#5e5f5e"/><path d="M10.187,20.231H9.749a.437.437,0,0,0,0,.874h.438a.437.437,0,1,0,0-.874Zm0,0" fill="#5e5f5e"/><path d="M12.812,20.231h-.876a.437.437,0,0,0,0,.874h.876a.437.437,0,1,0,0-.874Zm0,0" fill="#5e5f5e"/><path d="M14.251,20.36a.454.454,0,0,0-.127.308.44.44,0,0,0,.75.309A.468.468,0,0,0,15,20.668a.463.463,0,0,0-.126-.308.456.456,0,0,0-.623,0Zm0,0" fill="#5e5f5e"/><path d="M22.873,16.294a3.027,3.027,0,0,0-1.53.414,3.034,3.034,0,0,0-1.53-.414,3.062,3.062,0,1,0,0,6.124A3.034,3.034,0,0,0,21.343,22a3.027,3.027,0,0,0,1.53.414,3.062,3.062,0,1,0,0-6.124ZM22,19.358a2.178,2.178,0,0,1-.657,1.556,2.173,2.173,0,0,1,0-3.116A2.182,2.182,0,0,1,22,19.358Zm-4.375,0a2.189,2.189,0,0,1,2.188-2.189,2.155,2.155,0,0,1,.781.149,3.046,3.046,0,0,0,0,4.074,2.174,2.174,0,0,1-2.969-2.035Zm5.248,2.186a2.191,2.191,0,0,1-.782-.15,3.044,3.044,0,0,0,0-4.074,2.148,2.148,0,0,1,.782-.149,2.187,2.187,0,0,1,0,4.374Zm0,0" fill="#5e5f5e"/><path d="M5.487,14.982h5.9A.988.988,0,0,0,12.374,14V9.843a.988.988,0,0,0-.986-.987h-5.9a.988.988,0,0,0-.986.987V14a.988.988,0,0,0,.986.986Zm1.64-2.625H5.374v-.876H7.127ZM5.374,14v-.765H7.127V14a1,1,0,0,0,.01.11H5.487A.112.112,0,0,1,5.374,14ZM11.5,12.357H9.749v-.765a.115.115,0,0,1,.113-.111h1.525c.039,0,.074-.006.114-.01Zm-.114,1.749H9.737A.67.67,0,0,0,9.749,14v-.765H11.5V14a.113.113,0,0,1-.114.11Zm0-4.374a.113.113,0,0,1,.114.111V10.5a.116.116,0,0,1-.114.113H9.862a.986.986,0,0,0-.986.984V14a.112.112,0,0,1-.111.11H8.11A.112.112,0,0,1,8,14V9.843a.112.112,0,0,1,.111-.111Zm-5.9,0H7.137a1.01,1.01,0,0,0-.01.111v.765H5.374V9.843a.112.112,0,0,1,.113-.111Zm0,0" fill="#5e5f5e"/></svg>