<?xml version="1.0" encoding="utf-8"?>
<!-- Generator: Adobe Illustrator 21.0.2, SVG Export Plug-In . SVG Version: 6.00 Build 0)  -->
<svg version="1.1" id="guias" xmlns="http://www.w3.org/2000/svg" xmlns:xlink="http://www.w3.org/1999/xlink" x="0px" y="0px"
	 viewBox="0 0 30 30" enable-background="new 0 0 30 30" xml:space="preserve">
<title>iconos</title>
<path fill="#5E5E5E" d="M26.469,13.03H25.5V6.567c-0.001-0.691-0.561-1.251-1.252-1.252H3.258C2.567,5.316,2.007,5.876,2.006,6.567
	v10.4c0.001,0.691,0.561,1.252,1.252,1.253h7.764v5.856c0,0.704,0.57,1.274,1.274,1.274c0.001,0,0.003,0,0.004,0h14.169
	c0.702-0.001,1.271-0.569,1.273-1.271V14.3C27.74,13.598,27.171,13.031,26.469,13.03z M11.4,11.769
	c-0.001-1.298,1.051-2.351,2.348-2.351s2.351,1.051,2.351,2.348c0,0.001,0,0.002,0,0.003c-0.004,0.449-0.138,0.887-0.387,1.261H12.3
	c-0.153,0.003-0.304,0.033-0.446,0.09C11.564,12.729,11.405,12.256,11.4,11.769z M11.02,17.423H3.258
	c-0.25,0-0.453-0.203-0.453-0.453V6.567c0-0.25,0.203-0.453,0.453-0.453c0,0,0,0,0,0h20.988c0.25,0,0.453,0.203,0.453,0.453v6.463
	h-0.906v-3.9c0-0.221-0.179-0.4-0.4-0.4c-0.722-0.001-1.306-0.587-1.305-1.309c0,0,0-0.001,0-0.001c0-0.221-0.179-0.4-0.4-0.4H5.816
	c-0.221,0-0.4,0.179-0.4,0.4l0,0C5.415,8.14,4.831,8.724,4.111,8.725c-0.221,0-0.4,0.179-0.4,0.4v5.288c0,0.221,0.179,0.4,0.4,0.4
	c0.72,0.001,1.304,0.585,1.305,1.305c0,0.221,0.179,0.4,0.4,0.4h5.207L11.02,17.423z M11.02,15.723H6.178
	c-0.165-0.843-0.824-1.502-1.667-1.667v-4.57c0.843-0.165,1.502-0.824,1.667-1.667h15.149c0.165,0.843,0.824,1.502,1.667,1.667
	v3.544h-6.457c0.185-0.395,0.282-0.825,0.284-1.261c-0.031-1.695-1.429-3.044-3.124-3.013c-1.652,0.03-2.983,1.362-3.013,3.013
	c0.002,0.649,0.213,1.28,0.6,1.8c-0.164,0.21-0.256,0.468-0.262,0.734v1.416L11.02,15.723z M26.963,24.083
	c0,0.276-0.224,0.5-0.5,0.5H12.3c-0.276,0-0.5-0.224-0.5-0.5V14.3c0-0.276,0.224-0.5,0.5-0.5h14.169c0.276,0,0.5,0.224,0.5,0.5
	L26.963,24.083z"/>
<path fill="#5E5E5E" d="M15.774,22.492h-2.137c-0.185-0.01-0.344,0.132-0.354,0.317c-0.01,0.185,0.132,0.344,0.317,0.354
	c0.012,0.001,0.024,0.001,0.037,0h2.137c0.185,0.01,0.344-0.132,0.354-0.317c0.01-0.185-0.132-0.344-0.317-0.354
	C15.798,22.491,15.786,22.491,15.774,22.492z"/>
<path fill="#5E5E5E" d="M18.861,22.492h-2.137c-0.185-0.01-0.344,0.132-0.354,0.317c-0.01,0.185,0.132,0.344,0.317,0.354
	c0.012,0.001,0.024,0.001,0.037,0h2.137c0.185-0.01,0.327-0.169,0.317-0.354C19.169,22.638,19.032,22.501,18.861,22.492z"/>
<path fill="#5E5E5E" d="M24.129,20.163c-0.29,0-0.575,0.073-0.83,0.211c-0.856-0.46-1.923-0.14-2.384,0.716s-0.14,1.923,0.716,2.384
	c0.521,0.28,1.147,0.28,1.667,0c0.857,0.458,1.922,0.135,2.381-0.721c0.458-0.857,0.135-1.922-0.721-2.381
	c-0.255-0.137-0.54-0.208-0.829-0.208V20.163z M22.467,23.014c-0.602,0-1.09-0.488-1.09-1.09s0.488-1.09,1.09-1.09l0,0
	c0.087,0,0.173,0.011,0.257,0.033c-0.474,0.625-0.474,1.488,0,2.113C22.64,23.002,22.554,23.014,22.467,23.014z M23.298,22.626
	c-0.345-0.405-0.345-1,0-1.405C23.642,21.626,23.642,22.221,23.298,22.626z M24.128,23.014c-0.087,0-0.174-0.012-0.258-0.034
	c0.474-0.625,0.474-1.488,0-2.113c0.084-0.021,0.17-0.032,0.257-0.032c0.602,0,1.09,0.488,1.09,1.09s-0.488,1.09-1.09,1.09
	L24.128,23.014z"/>
<path fill="#5E5E5E" d="M14.237,19.344h3.2c0.349-0.001,0.632-0.284,0.633-0.633v-2.255c0-0.35-0.283-0.633-0.633-0.634h-3.2
	c-0.35,0-0.634,0.284-0.634,0.634v2.254C13.603,19.06,13.887,19.344,14.237,19.344C14.237,19.344,14.237,19.344,14.237,19.344z
	 M17.404,18.673h-0.756v-0.28H17.4L17.404,18.673z M17.404,17.723h-0.756v-0.28H17.4L17.404,17.723z M15.7,16.494h1.7v0.28h-0.792
	c-0.349,0-0.632,0.283-0.633,0.632v1.267H15.7V16.494z M14.275,16.494h0.756v0.28h-0.756V16.494z M14.275,17.444h0.756v0.28h-0.756
	V17.444z M14.275,18.394h0.756v0.28h-0.756V18.394z"/>
</svg>
