<svg id="guias" xmlns="http://www.w3.org/2000/svg" viewBox="0 0 30 30"><title>pencil</title><path d="M26.973,8.688a2.761,2.761,0,0,1-.852,2.033q-5.766,5.772-11.534,11.544c-.736.737-1.476,1.475-2.2,2.224a1.828,1.828,0,0,1-.851.5c-2.367.657-4.733,1.328-7.1,1.992a1.087,1.087,0,0,1-1.123-.222,1.043,1.043,0,0,1-.215-1.113c.674-2.395,1.338-4.791,2.025-7.18a1.761,1.761,0,0,1,.43-.729q6.885-6.91,13.779-13.8A2.893,2.893,0,0,1,23.4,3.914c.963.919,1.892,1.874,2.82,2.831a2.653,2.653,0,0,1,.754,1.943m-15.5,13.75c3.4-3.381,6.813-6.781,10.2-10.149-1.3-1.3-2.611-2.609-3.865-3.863C14.408,11.8,10.992,15.2,7.6,18.566l3.87,3.871M19.257,6.882l3.925,3.923c.514-.507,1.061-1.025,1.581-1.569A.8.8,0,0,0,24.756,8.1q-1.384-1.419-2.8-2.8a.8.8,0,0,0-1.095-.034c-.557.535-1.085,1.1-1.6,1.622M5.458,24.614l4.125-1.165L6.6,20.566q-.546,1.945-1.138,4.048" fill="#5e5e5e" fill-rule="evenodd"/></svg>