<svg id="guias" xmlns="http://www.w3.org/2000/svg" viewBox="0 0 30 30"><title>iconos</title><path d="M22.746,15.742a.894.894,0,0,0-.345-.083c-.13,0-.306.04-.492.357-.205.348-.407.7-.608,1.05q-.187.328-.378.654c-.034.058-.071.112-.116.177l-.068.1-.145.214-.214-.335c-.042-.067-.078-.123-.111-.18-.132-.227-.262-.454-.393-.681-.189-.325-.375-.649-.566-.974-.2-.34-.37-.384-.5-.384a.863.863,0,0,0-.37.106,7.747,7.747,0,0,0-.771.462c-.2.134-.415.271-.637.395l-.137.076-.087-.131a.516.516,0,0,1-.036-.058c-.015-.024-.041-.073-.112-.193a7.027,7.027,0,0,0-3.436-3.187,1.018,1.018,0,0,0-.4-.106c-.133,0-.3.047-.5.4q-.447.768-.89,1.539l-.491.849c-.037.066-.078.128-.126.2l-.22.345-.226-.37c-.054-.087-.1-.162-.143-.238l-.494-.857q-.434-.754-.869-1.505c-.185-.317-.354-.358-.482-.358a.865.865,0,0,0-.325.077,6.968,6.968,0,0,0-4.3,6.4v7.65c0,.476.191.669.66.669q10.579,0,21.158,0c.456,0,.651-.194.651-.648V21.032A5.742,5.742,0,0,0,22.746,15.742Zm-6.355,7.884c0,.862,0,1.725,0,2.588a.434.434,0,0,1-.508.512q-5.276-.012-10.535,0a.51.51,0,0,1-.383-.117.507.507,0,0,1-.117-.374c0-.8,0-1.609,0-2.415-.008-1.458-.014-2.966.021-4.448A5.677,5.677,0,0,1,7.74,14.476a1.626,1.626,0,0,1,.177-.1.22.22,0,0,1,.126-.019h.139l1.05,1.814q.4.7.81,1.4c.166.287.367.445.566.445s.408-.161.579-.454q.539-.929,1.075-1.859l.578-1c.034-.059.07-.116.113-.187l.164-.267.146.093c.074.047.149.093.222.137.158.1.321.2.473.31a5.8,5.8,0,0,1,2.42,4.743C16.4,20.9,16.395,22.285,16.391,23.626Zm8.758-.412c0,.987,0,1.976,0,2.963a.569.569,0,0,1-.122.425.552.552,0,0,1-.4.126c-2.225-.013-4.42-.012-6.624,0h0a.552.552,0,0,1-.4-.123.544.544,0,0,1-.122-.4c.011-2.028.019-4.016,0-6.038,0-.424-.045-.857-.084-1.277-.022-.244-.045-.489-.061-.735a.561.561,0,0,1,.123-.439c.2-.183.418-.352.644-.531.087-.068.176-.139.267-.212l.154-.124.544.943c.439.761.983,1.706,1.033,1.784a.627.627,0,0,0,.51.329.6.6,0,0,0,.5-.332c.253-.426.679-1.157,1.007-1.722.275-.474.433-.743.461-.789l.083-.132.139.07a4,4,0,0,1,1.263,1.042,4.5,4.5,0,0,1,1.087,2.92Q25.149,22.085,25.148,23.214Z" fill="#5b5b5b"/><path d="M10.837,12.111A4.96,4.96,0,0,0,15.57,6.875a5.024,5.024,0,0,0-4.92-4.689c-.052,0-.105,0-.157,0A5,5,0,0,0,7,3.763a4.959,4.959,0,0,0,3.839,8.348Zm-.268-8.822H10.6a3.863,3.863,0,0,1,2.758,6.58,3.752,3.752,0,0,1-2.655,1.147h-.034a3.864,3.864,0,1,1-.1-7.727Z" fill="#5b5b5b"/><path d="M23.5,7.965a3.9,3.9,0,0,0-2.43-1.226l-.055-.007c-.07-.007-.143-.012-.213-.015a3.98,3.98,0,0,0-.419,0,4.11,4.11,0,0,0-.522.062l-.066.016c-.05.01-.1.022-.146.034s-.108.025-.161.04c-.089.026-.177.054-.262.086l-.1.039c-.055.022-.11.045-.164.07a3.945,3.945,0,0,0-2.322,3.528,3.934,3.934,0,0,0,3.607,3.966l.073.005c.054,0,.107.006.161.007s.083.005.124.005a4.041,4.041,0,0,0,.525-.035,3.9,3.9,0,0,0,.743-.175l0,0a3.819,3.819,0,0,0,.438-.179l.051-.024A3.947,3.947,0,0,0,24.549,10.9,3.872,3.872,0,0,0,23.5,7.965Zm-1.187,5.022c-.024.012-.049.026-.074.042a3.131,3.131,0,0,1-1.009.448,2.849,2.849,0,0,1-.589.061,3.06,3.06,0,0,1-.527-.046,3.232,3.232,0,0,1-.776-.236,2.869,2.869,0,0,1-.847-.616c-.02-.021-.037-.041-.056-.063s-.03-.037-.047-.054a3.281,3.281,0,0,1-.567-1.093,1.415,1.415,0,0,0-.064-.172,2.846,2.846,0,0,1-.071-.58A3,3,0,0,1,19,8.212a.847.847,0,0,0,.09-.044,3.3,3.3,0,0,1,.813-.346,2.8,2.8,0,0,1,.508-.075,3.007,3.007,0,0,1,.528.019,3.3,3.3,0,0,1,.593.127l.059.019c.039.013.077.027.115.042a2.849,2.849,0,0,1,.9.583c.026.027.055.054.08.082l.012.012a3.284,3.284,0,0,1,.635,1.074,1.188,1.188,0,0,0,.066.157,2.864,2.864,0,0,1,.111.891A3.008,3.008,0,0,1,22.314,12.987Z" fill="#5b5b5b"/><path d="M6.561,25.39a.51.51,0,0,1-.51-.51V19.9c0-2.565,1.105-3.436,1.231-3.528a.51.51,0,0,1,.6.822c-.03.024-.816.7-.816,2.706V24.88A.509.509,0,0,1,6.561,25.39Z" fill="#5b5b5b"/><circle cx="20.671" cy="21.708" r="0.539" fill="#5b5b5b"/><circle cx="20.671" cy="23.916" r="0.539" fill="#5b5b5b"/></svg>