<svg id="guias" xmlns="http://www.w3.org/2000/svg" viewBox="0 0 30 30"><title>iconos</title><path d="M24.662,20.82a32.812,32.812,0,0,0-5.635-3.658V13.923a2.565,2.565,0,0,0,.822-1.885V7.968a4.411,4.411,0,0,0-4.407-4.407h-.874a4.412,4.412,0,0,0-4.407,4.407v4.076a2.581,2.581,0,0,0,.822,1.883v3.239A32.358,32.358,0,0,0,5.339,20.82a2.7,2.7,0,0,0-.988,2.093V25.7a.735.735,0,1,0,1.471,0v-2.79a1.233,1.233,0,0,1,.453-.959,31.26,31.26,0,0,1,5.656-3.631.926.926,0,0,0,.513-.82V13.569a.725.725,0,0,0-.325-.607,1.1,1.1,0,0,1-.491-.918V7.968a2.939,2.939,0,0,1,2.935-2.936h.877a2.938,2.938,0,0,1,2.934,2.936v4.076a1.1,1.1,0,0,1-.493.92.732.732,0,0,0-.321.605V17.5a.92.92,0,0,0,.513.821,30.868,30.868,0,0,1,5.655,3.63,1.232,1.232,0,0,1,.452.959V25.7a.736.736,0,1,0,1.472,0v-2.79A2.7,2.7,0,0,0,24.662,20.82Z" fill="#5e5f5e"/></svg>