<svg id="guias" xmlns="http://www.w3.org/2000/svg" viewBox="0 0 30 30"><title>iconos</title><path d="M23.487,19.332c-.567-.569-1.138-1.141-1.7-1.713a2.562,2.562,0,0,0-3.8-.006l-.561.563-.814.812c-.15-.093-.307-.183-.461-.271-.244-.142-.487-.281-.722-.441a16.092,16.092,0,0,1-3.265-3.046A10.031,10.031,0,0,1,10.814,13.2c.044-.043.087-.083.127-.125q.221-.224.444-.442c.348-.344.707-.7,1.031-1.08a2.392,2.392,0,0,0,.014-3.3,3.557,3.557,0,0,0-.24-.272l-.756-.762c-.633-.636-1.264-1.271-1.9-1.9a2.6,2.6,0,0,0-3.843.03c-.153.153-.3.307-.452.463-.292.3-.583.6-.892.886a4.435,4.435,0,0,0-1.382,4.141,11.432,11.432,0,0,0,1.075,3.49A23.673,23.673,0,0,0,15.477,25.786a11.526,11.526,0,0,0,3.964,1.147c.153.012.3.019.455.019A4.067,4.067,0,0,0,22.815,25.8c.439-.425.857-.867,1.282-1.309l.333-.352a2.851,2.851,0,0,0,.844-1.575,2.621,2.621,0,0,0-.876-2.324Zm-3.782,5.7a9,9,0,0,1-3.335-.943,21.837,21.837,0,0,1-10.4-10.173,9.719,9.719,0,0,1-1.055-3.048c-.031-.215-.049-.428-.068-.644l-.028-.312a2.111,2.111,0,0,1,.722-1.693l1.5-1.5a.9.9,0,0,1,.588-.322.845.845,0,0,1,.564.3Q9.55,8.034,10.889,9.39a.617.617,0,0,1,0,1.013q-.766.784-1.562,1.538a1.359,1.359,0,0,0-.355,1.852,14.037,14.037,0,0,0,1.082,1.844,17.738,17.738,0,0,0,4.8,4.574,13.222,13.222,0,0,0,1.3.715,1.347,1.347,0,0,0,.563.129,1.328,1.328,0,0,0,.967-.428c.4-.411.806-.812,1.212-1.218l.454-.451c.249-.247.444-.315.641-.259a.977.977,0,0,1,.36.224c.912.895,1.812,1.8,2.712,2.708.422.426.428.713.024,1.138-.545.574-1.091,1.146-1.659,1.7a2.166,2.166,0,0,1-1.726.564" fill="#5e5e5e"/><path d="M26.679,13.558c-.044-.254-.085-.508-.152-.754a12.765,12.765,0,0,0-8.635-9.258A10.785,10.785,0,0,0,16.7,3.231c-.153-.037-.3-.069-.435-.1l-.041-.01h-.04a1.117,1.117,0,0,0-.962.5.939.939,0,0,0-.02.913,1.068,1.068,0,0,0,.852.533,10.856,10.856,0,0,1,7.981,6.357,9.384,9.384,0,0,1,.749,2.465.963.963,0,0,0,.946.847.905.905,0,0,0,.175-.017.936.936,0,0,0,.77-1.156" fill="#5e5e5e"/><path d="M16.156,9.368a5.264,5.264,0,0,1,1.105.371,5.963,5.963,0,0,1,3.329,4.4.952.952,0,0,0,.945.789h.009a.944.944,0,0,0,.94-1.13,7.677,7.677,0,0,0-1.669-3.651,7.838,7.838,0,0,0-4.743-2.788.972.972,0,0,0-.923.295.955.955,0,0,0-.235.751.974.974,0,0,0,.832.855c.136.039.272.074.41.109m5.38,5.256h0v0Z" fill="#5e5e5e"/></svg>