<?xml version="1.0" encoding="utf-8"?>
<!-- Generator: Adobe Illustrator 21.0.2, SVG Export Plug-In . SVG Version: 6.00 Build 0)  -->
<svg version="1.1" id="guias" xmlns="http://www.w3.org/2000/svg" xmlns:xlink="http://www.w3.org/1999/xlink" x="0px" y="0px"
	 viewBox="0 0 30 30" style="enable-background:new 0 0 30 30;" xml:space="preserve">
<style type="text/css">
	.st0{fill:#5B5B5B;stroke:#5B5B5B;stroke-width:0.15;stroke-miterlimit:10;}
</style>
<path class="st0" d="M29.3,13.6c-0.1-0.3-0.1-0.6-0.2-0.9c-1.3-5.5-5.4-9.8-10.7-11.5c-0.5-0.2-1-0.3-1.5-0.4
	c-0.2,0-0.4-0.1-0.5-0.1l-0.1,0h0c-0.5,0-0.9,0.2-1.2,0.6c-0.2,0.3-0.2,0.8,0,1.1C15.2,2.7,15.6,3,16.1,3c4.4,0.8,8.1,3.8,9.9,7.9
	c0.4,1,0.8,2,0.9,3.1c0.1,0.6,0.6,1,1.2,1.1c0.1,0,0.1,0,0.2,0c0.6-0.1,1.1-0.7,1-1.3C29.3,13.6,29.3,13.6,29.3,13.6"/>
<path class="st0" d="M16.2,8.4c0.5,0.1,0.9,0.3,1.4,0.5c2.2,1,3.7,3.1,4.1,5.5c0.1,0.6,0.6,1,1.2,1h0c0.6,0,1.2-0.5,1.2-1.2
	c0-0.1,0-0.2,0-0.2c-0.3-1.7-1-3.2-2.1-4.5c-1.5-1.8-3.6-3.1-5.9-3.5c-0.4-0.1-0.9,0-1.1,0.4c-0.2,0.3-0.3,0.6-0.3,0.9
	c0.1,0.5,0.5,1,1,1.1C15.9,8.3,16,8.3,16.2,8.4 M22.9,14.9L22.9,14.9L22.9,14.9z"/>
<path class="st0" d="M24.2,18.9c-0.8-0.9-2.1-1-3-0.2c-0.1,0.1-0.2,0.1-0.2,0.2c-0.8,0.8-1.5,1.5-2.3,2.3c-0.1,0.2-0.4,0.3-0.6,0.1
	c-0.5-0.3-1-0.5-1.5-0.8c-2.2-1.4-4.1-3.2-5.7-5.2c-0.8-1-1.5-2.1-2-3.3c-0.1-0.2-0.1-0.5,0.1-0.6c0.8-0.7,1.5-1.5,2.3-2.2
	c0.9-0.8,1-2.1,0.3-3.1c-0.1-0.1-0.2-0.2-0.3-0.3C10.6,5.3,10,4.7,9.4,4.1C8.8,3.5,8.1,2.9,7.5,2.2c-0.8-0.9-2.1-1-3-0.2
	C4.4,2.1,4.3,2.2,4.3,2.2C3.5,3,2.8,3.8,2,4.5C1.3,5.2,0.9,6.1,0.8,7C0.8,8.6,1,10.1,1.6,11.6c1.2,3,2.8,5.8,4.9,8.2
	c2.8,3.3,6.2,6,10.1,7.9c1.7,0.9,3.6,1.5,5.6,1.6c1.3,0.1,2.6-0.3,3.5-1.3c0.7-0.7,1.4-1.4,2.1-2.1c0.9-0.8,1-2.1,0.3-3.1
	c-0.1-0.1-0.2-0.2-0.3-0.3C26.6,21.3,25.4,20.1,24.2,18.9L24.2,18.9z"/>
</svg>
