<svg id="guias" xmlns="http://www.w3.org/2000/svg" viewBox="0 0 30 30"><title>iconos</title><path d="M27.063,7.179V22.437a1.956,1.956,0,0,1-.586,1.435,1.886,1.886,0,0,1-1.37.588H4.894a1.883,1.883,0,0,1-1.37-.588,1.948,1.948,0,0,1-.586-1.435V7.179a1.947,1.947,0,0,1,.586-1.435,1.88,1.88,0,0,1,1.37-.587H25.107a1.884,1.884,0,0,1,1.37.587,1.955,1.955,0,0,1,.586,1.435m-1.956-.456H4.894c-.044,0-.131.064-.262.195a.38.38,0,0,0-.131.261V22.437a1.189,1.189,0,0,0,.131.326l.262.129H25.107l.262-.129a1.193,1.193,0,0,0,.129-.326V7.179a.381.381,0,0,0-.129-.261c-.131-.131-.218-.195-.262-.195M11.023,10.829A2.25,2.25,0,0,1,10.3,12.46a2.383,2.383,0,0,1-1.76.717,2.311,2.311,0,0,1-1.694-.717,2.238,2.238,0,0,1-.717-1.631,2.383,2.383,0,0,1,.717-1.76,2.316,2.316,0,0,1,1.694-.717,2.45,2.45,0,0,1,2.478,2.477m12.846,4.76v5.674H6.134V18.786l4.041-3.979,2.022,2.02,6.391-6.454Z" fill="#5e5e5e"/></svg>