<?xml version="1.0" encoding="utf-8"?>
<!-- Generator: Adobe Illustrator 21.0.2, SVG Export Plug-In . SVG Version: 6.00 Build 0)  -->
<svg version="1.1" id="guias" xmlns="http://www.w3.org/2000/svg" xmlns:xlink="http://www.w3.org/1999/xlink" x="0px" y="0px"
	 viewBox="0 0 30 30" enable-background="new 0 0 30 30" xml:space="preserve">
<title>iconos</title>
<path fill="#5E5E5E" d="M18.542,9.625h6.681c0.476,0,0.564,0.089,0.564,0.564v15.288c0,0.47-0.08,0.55-0.551,0.55H4.566
	c-0.44,0-0.529-0.088-0.529-0.529c0-5.117,0-10.235,0-15.352c0-0.416,0.1-0.52,0.521-0.521h1.7c0-0.477,0-0.935,0-1.392
	c0-0.327,0.113-0.444,0.435-0.445c0.804,0,1.608,0,2.411,0c0.313,0,0.426,0.117,0.426,0.431c0,0.458,0,0.917,0,1.39h1.764
	c0.086-0.543,0.172-1.086,0.259-1.629c0.077-0.488,0.15-0.978,0.23-1.466c0.049-0.3,0.152-0.391,0.461-0.392c1.78,0,3.56,0,5.34,0
	c0.324,0,0.415,0.1,0.471,0.457C18.2,7.526,18.349,8.476,18.5,9.427C18.507,9.484,18.523,9.539,18.542,9.625z M12.064,22.87
	c-0.505,0.768-1.536,0.982-2.304,0.477c-0.08-0.052-0.155-0.112-0.225-0.177c-0.326-0.302-0.51-0.726-0.51-1.17
	c-0.008-0.59,0.301-1.14,0.81-1.439c-1.052-2.067-0.771-4.562,0.714-6.344H4.74v11.1h20.338v-11.1h-5.807
	c1.724,2.055,1.793,5.031,0.166,7.164c-0.729,0.964-1.75,1.665-2.911,2C15.032,23.83,13.418,23.646,12.064,22.87z M4.748,10.34v3.16
	c0.063,0,0.106,0.011,0.149,0.011c2.081,0,4.162,0,6.243,0c0.112-0.008,0.218-0.049,0.306-0.119
	c2.051-1.563,4.895-1.561,6.943,0.006c0.096,0.07,0.21,0.11,0.329,0.114c2.045,0.007,4.09,0.007,6.135,0
	c0.076,0,0.152-0.008,0.227-0.012v-3.16H4.748z M14.927,12.914c-2.767-0.012-5.02,2.221-5.032,4.988s2.221,5.02,4.988,5.032
	c2.753,0.012,5-2.2,5.031-4.953C19.933,15.206,17.702,12.939,14.927,12.914L14.927,12.914z M17.827,9.614
	c-0.141-0.905-0.278-1.8-0.428-2.686c-0.008-0.045-0.12-0.1-0.184-0.1c-0.509-0.009-1.018,0-1.528,0c-1.019,0-2.037,0-3.056,0
	c-0.084,0-0.191-0.042-0.214,0.107c-0.137,0.891-0.278,1.782-0.419,2.686L17.827,9.614z M6.957,8.491v1.12h1.869V8.478H7.114
	C7.066,8.478,7.017,8.486,6.957,8.491z M10.178,21.185c-0.354,0.2-0.532,0.61-0.436,1.005c0.085,0.382,0.395,0.672,0.782,0.732
	c0.363,0.065,0.728-0.106,0.911-0.426L10.178,21.185z"/>
<path fill="#5E5E5E" d="M20.3,6.069c0.222,0,0.445-0.007,0.666,0c0.188-0.019,0.356,0.118,0.374,0.306
	c0.001,0.009,0.001,0.017,0.002,0.026c0.006,0.191-0.144,0.351-0.334,0.357c-0.014,0-0.028,0-0.042-0.001
	c-0.451,0.009-0.903,0.009-1.354,0c-0.194,0.02-0.367-0.121-0.387-0.315c-0.001-0.01-0.002-0.021-0.002-0.031
	c0-0.2,0.146-0.329,0.39-0.345H20.3V6.069z"/>
<path fill="#5E5E5E" d="M20.471,4.309c-0.043,0.095-0.095,0.185-0.157,0.269c-0.288,0.299-0.581,0.594-0.879,0.883
	c-0.124,0.146-0.343,0.165-0.489,0.041C18.8,5.379,18.781,5.16,18.905,5.013c0.013-0.015,0.026-0.029,0.041-0.041
	c0.29-0.3,0.586-0.589,0.882-0.881c0.1-0.123,0.276-0.152,0.41-0.068C20.329,4.106,20.408,4.203,20.471,4.309z"/>
<path fill="#5E5E5E" d="M20.453,8.537c-0.075,0.088-0.135,0.223-0.234,0.262c-0.116,0.042-0.246,0.029-0.351-0.036
	c-0.335-0.3-0.651-0.623-0.963-0.949c-0.124-0.142-0.11-0.357,0.032-0.481c0.127-0.112,0.318-0.113,0.446-0.003
	c0.327,0.31,0.642,0.633,0.955,0.957C20.388,8.364,20.427,8.449,20.453,8.537z"/>
<path fill="#5E5E5E" d="M23.752,19.672c0,1.333,0,2.667,0,4c0.012,0.106-0.006,0.213-0.052,0.309
	c-0.066,0.096-0.169,0.161-0.285,0.179c-0.116-0.016-0.221-0.078-0.292-0.171c-0.05-0.086-0.073-0.186-0.064-0.286
	c0-2.689,0.002-5.379,0.005-8.068c0.012-0.152,0.079-0.294,0.188-0.4c0.101-0.057,0.224-0.057,0.325,0
	c0.1,0.103,0.16,0.239,0.169,0.383c0.015,0.81,0.008,1.621,0.008,2.431L23.752,19.672z"/>
<path fill="#5E5E5E" d="M23.752,11.832c0,0.229,0,0.458,0,0.687s-0.138,0.387-0.342,0.386c-0.194-0.001-0.35-0.159-0.349-0.353
	c0-0.011,0.001-0.022,0.002-0.033c-0.008-0.458-0.007-0.917,0-1.375c-0.02-0.199,0.125-0.378,0.324-0.398
	c0.011-0.001,0.022-0.002,0.033-0.002c0.2,0.007,0.327,0.158,0.332,0.4S23.752,11.6,23.752,11.832z"/>
<path fill="#5E5E5E" d="M18.767,17.924c-0.004,2.129-1.733,3.852-3.862,3.848c-2.129-0.004-3.852-1.733-3.848-3.862
	c0.004-2.129,1.733-3.852,3.862-3.848c0.002,0,0.003,0,0.005,0c2.126,0.004,3.847,1.731,3.843,3.857
	C18.767,17.921,18.767,17.922,18.767,17.924z M14.915,14.765c-1.744,0.002-3.156,1.418-3.154,3.162s1.418,3.156,3.162,3.154
	c1.733-0.002,3.141-1.401,3.154-3.134c0.01-1.747-1.397-3.171-3.144-3.182C14.927,14.765,14.921,14.765,14.915,14.765z"/>
<path fill="#5E5E5E" d="M17.392,17.942c-0.027,0.191-0.043,0.384-0.083,0.572c-0.021,0.191-0.194,0.328-0.385,0.307
	c-0.005-0.001-0.01-0.001-0.015-0.002c-0.2-0.039-0.3-0.2-0.282-0.435c0.037-0.275,0.041-0.553,0.011-0.829
	c-0.147-0.775-0.801-1.351-1.588-1.4l-0.064-0.006c-0.287-0.028-0.437-0.165-0.419-0.382s0.19-0.33,0.476-0.308
	C16.363,15.527,17.397,16.62,17.392,17.942z"/>
<path fill="#5E5E5E" d="M15.014,20.389c-0.042,0.003-0.084,0.003-0.126,0c-0.189-0.006-0.338-0.165-0.332-0.354
	c0.006-0.189,0.165-0.338,0.355-0.332c0.478-0.008,0.934-0.2,1.274-0.535c0.118-0.14,0.327-0.157,0.466-0.04
	c0.012,0.01,0.023,0.021,0.034,0.033c0.134,0.137,0.131,0.357-0.006,0.491c-0.009,0.009-0.018,0.017-0.028,0.024
	C16.214,20.111,15.63,20.366,15.014,20.389z"/>
</svg>
