<svg id="guias" xmlns="http://www.w3.org/2000/svg" viewBox="0 0 30 30"><title>iconos</title><path d="M25.1,4.811H8.491A2.313,2.313,0,0,0,6.186,7.117v.808L3.51,8.664A2.255,2.255,0,0,0,2.1,9.725a2.318,2.318,0,0,0-.231,1.752L5.1,23.518a2.26,2.26,0,0,0,1.061,1.4,2.3,2.3,0,0,0,1.153.324,2.748,2.748,0,0,0,.6-.07L18.479,22.34H25.1A2.313,2.313,0,0,0,27.4,20.033V7.117A2.313,2.313,0,0,0,25.1,4.811ZM7.685,24.275a1.383,1.383,0,0,1-1.061-.139,1.345,1.345,0,0,1-.646-.85L2.749,11.246a1.407,1.407,0,0,1,.14-1.061,1.341,1.341,0,0,1,.853-.646L6.186,8.87V20.033A2.313,2.313,0,0,0,8.491,22.34H14.9Zm18.8-4.242A1.387,1.387,0,0,1,25.1,21.416H8.491a1.388,1.388,0,0,1-1.384-1.383V7.117A1.387,1.387,0,0,1,8.491,5.735H25.1a1.386,1.386,0,0,1,1.384,1.382v6.551l-2.19-2.191a.89.89,0,0,0-1.292,0l-5.282,5.257-.023-.024L15.02,14.037a.935.935,0,0,0-1.293,0l-2.259,2.258a.457.457,0,0,0,.646.647l2.259-2.258,2.677,2.674.021.022L15.2,19.246a.448.448,0,0,0,0,.647.455.455,0,0,0,.322.141.45.45,0,0,0,.323-.141l7.8-7.771,2.743,2.745c.024.023.07.046.093.069Zm0,0" fill="#5e5f5e"/><path d="M10.36,17.4l-.461.463a.442.442,0,0,0,0,.643.437.437,0,0,0,.646,0l.461-.459a.457.457,0,0,0-.646-.646Zm0,0" fill="#5e5f5e"/><path d="M13.566,9.885a2.307,2.307,0,1,0-2.307,2.306,2.314,2.314,0,0,0,2.307-2.306ZM11.26,11.269a1.384,1.384,0,1,1,1.383-1.384,1.389,1.389,0,0,1-1.383,1.384Zm0,0" fill="#5e5f5e"/></svg>