<svg id="guias" xmlns="http://www.w3.org/2000/svg" viewBox="0 0 30 30"><title>iconos</title><path d="M23.429,19A1.705,1.705,0,0,1,21.8,20.637H15.767l-.71,6.1a.285.285,0,0,1-.142.285.4.4,0,0,1-.283.072.4.4,0,0,1-.426-.358l-.994-6.1H7.467a1.685,1.685,0,0,1-1.206-.568A1.435,1.435,0,0,1,5.835,19a5.835,5.835,0,0,1,1.277-3.547A4.5,4.5,0,0,1,9.454,13.9V8.009A2.966,2.966,0,0,1,8.39,7.3a2.408,2.408,0,0,1-.71-1.773,2.832,2.832,0,0,1,.639-1.7,2.653,2.653,0,0,1,1.845-.708H19.1a2.558,2.558,0,0,1,1.774.637,2.951,2.951,0,0,1,.71,1.775,2.408,2.408,0,0,1-.71,1.773,2.978,2.978,0,0,1-1.065.71V13.9a4.519,4.519,0,0,1,2.343,1.561A5.84,5.84,0,0,1,23.429,19m-1.349.072L22.01,19a4.046,4.046,0,0,0-.923-2.623A2.586,2.586,0,0,0,19.1,15.246h-.709V6.661H19.1a.944.944,0,0,0,.781-.356,1.087,1.087,0,0,0,.356-.779,1.192,1.192,0,0,0-.429-.782.962.962,0,0,0-.709-.282H10.163a1.45,1.45,0,0,0-.781.282,1.537,1.537,0,0,0-.354.782,1.076,1.076,0,0,0,.354.779.943.943,0,0,0,.781.356h.709v8.586h-.709a2.588,2.588,0,0,0-1.988,1.135A4.045,4.045,0,0,0,7.253,19l.072.215H21.8l.072-.072ZM13.355,8.009v6.456a.628.628,0,0,1-.709.709.628.628,0,0,1-.71-.709V8.009a.627.627,0,0,1,.71-.71.627.627,0,0,1,.709.71" fill="#5e5e5e"/></svg>