<?xml version="1.0" encoding="utf-8"?>
<!-- Generator: Adobe Illustrator 21.0.2, SVG Export Plug-In . SVG Version: 6.00 Build 0)  -->
<svg version="1.1" id="guias" xmlns="http://www.w3.org/2000/svg" xmlns:xlink="http://www.w3.org/1999/xlink" x="0px" y="0px"
	 viewBox="0 0 30 30" enable-background="new 0 0 30 30" xml:space="preserve">
<path fill="#5E5E5E" d="M25.418,13.431H16.57v-8.85c0-0.866-0.703-1.57-1.57-1.57c-0.865,0-1.57,0.704-1.57,1.57v8.85H4.581
	c-0.865,0-1.57,0.702-1.57,1.568c0,0.865,0.705,1.571,1.57,1.571h8.849v8.85c0,0.865,0.705,1.57,1.568,1.57H15
	c0.867,0,1.57-0.705,1.57-1.57v-8.85h8.848c0.863,0,1.57-0.706,1.57-1.571C26.988,14.133,26.281,13.431,25.418,13.431"/>
</svg>
