<svg id="guias" xmlns="http://www.w3.org/2000/svg" viewBox="0 0 30 30"><title>iconos nuevos</title><path d="M12.54,12.925h-.78l-.406,0-.037,0a1.259,1.259,0,0,0-.518.095,1.093,1.093,0,0,0-.689.773c-.029.123-.052.248-.074.37-.01.052-.02.1-.031.158l-.035.187c-.05.255-.1.509-.146.762l-.041.207c-.035.175-.072.356-.094.536a1.206,1.206,0,0,0,.006.477.7.7,0,0,0,.709.508h.834c.057,0,.113,0,.17,0s.14,0,.21,0a1.156,1.156,0,0,0,.739-.2,1.071,1.071,0,0,0,.494-.7l.022-.118c.026-.146.053-.293.082-.439.018-.091.036-.182.058-.27.025-.127.054-.253.077-.381s.046-.282.069-.424c.013-.086.025-.173.039-.259l.01-.056a2.131,2.131,0,0,1,.054-.272.693.693,0,0,0-.04-.53A.715.715,0,0,0,12.54,12.925Z" fill="#5e5f5e"/><path d="M10.32,11.51s.3,0,.358,0a.106.106,0,0,0,.042-.013c.02-.076.035-.155.051-.239l.008-.035c-.038,0-.418,0-.49,0a.136.136,0,0,0-.082.057.19.19,0,0,0-.056.115C10.158,11.466,10.225,11.51,10.32,11.51Z" fill="#5e5f5e"/><path d="M5.555,14.744c-.162-.2-.3-.385-.445-.565s-.293-.365-.436-.552a.218.218,0,0,0-.191-.1c-.437,0-.874,0-1.313,0-.047.4-.076.815-.084,1.23H5.422A1.184,1.184,0,0,0,5.555,14.744Z" fill="#5e5f5e"/><path d="M15.015,3.052A11.931,11.931,0,0,0,4.486,9.364a.332.332,0,0,1,.178.108.542.542,0,0,1,.021.765.529.529,0,0,1-.679.141q-.2.472-.356.965a.47.47,0,0,1,.1.294.584.584,0,0,1-.318.476c-.089.362-.163.729-.218,1.1.471,0,.942,0,1.415,0a.3.3,0,0,1,.26.124c.333.429.67.854,1,1.285a.314.314,0,0,0,.275.143c.767,0,1.533,0,2.3,0h.17A.973.973,0,0,1,8.574,15c-.02.034-.093.049-.143.049-.4,0-.8.006-1.2,0A.225.225,0,0,0,7,15.2c-.253.483-.517.959-.773,1.44a.171.171,0,0,1-.17.1c-.353,0-.707,0-1.061,0a.18.18,0,0,0-.2.114.539.539,0,0,1-.516.306.55.55,0,0,1-.5-.295.519.519,0,0,1,.285-.735.572.572,0,0,1,.734.246.222.222,0,0,0,.152.083c.29.009.58,0,.871,0a.178.178,0,0,0,.179-.113c.186-.382.376-.762.565-1.143.061-.123.047-.151-.091-.151h-3.4A11.98,11.98,0,0,0,3.4,17.737a.4.4,0,0,1,.326.41.422.422,0,0,1-.129.318q.146.482.333.945a.558.558,0,0,1,.362-.1.531.531,0,0,1,.07,1.06A11.933,11.933,0,1,0,15.015,3.052Zm-9.608,9.13A.542.542,0,1,1,5.422,11.1a.562.562,0,0,1,.566.539A.571.571,0,0,1,5.406,12.182Zm.014,6.5a.55.55,0,0,1-.567-.532.538.538,0,0,1,.571-.535.546.546,0,0,1,.564.535A.555.555,0,0,1,5.42,18.687Zm7.063-8.543.046-.016.087-.033-.073.489H12.9a.4.4,0,0,1,.335.135.418.418,0,0,1,.029.38c-.023.084-.129.509-.144.542a.123.123,0,0,1-.127.115c-.115,0-.055-.143-.055-.167a1.6,1.6,0,0,1,.03-.185,3.33,3.33,0,0,1,.083-.37c.027-.1.027-.165,0-.2s-.088-.053-.185-.053h-.128c-.191,0-.259.061-.293.255s-.067.367-.107.548c-.006.033-.032.156-.137.156s-.08-.138-.08-.138.2-.988.281-1.4C12.411,10.166,12.447,10.154,12.483,10.144Zm-1.4,1.264a3.4,3.4,0,0,1,.094-.532.372.372,0,0,1,.362-.287c.134,0,.361,0,.5,0a.122.122,0,0,1,.129.112c0,.075-.113.08-.149.081-.06,0-.388,0-.388,0-.173,0-.241.053-.277.213a3.264,3.264,0,0,0-.062.34.167.167,0,0,0,.019.137.169.169,0,0,0,.131.038s.359,0,.414,0c.037,0,.152.037.152.1s-.187.1-.187.1c-.074,0-.375,0-.449,0a.306.306,0,0,1-.225-.1A.274.274,0,0,1,11.088,11.407Zm-1.063-.21a.392.392,0,0,1,.354-.18s.242,0,.352,0h.012c.063,0,.1-.019.1-.112s-.033-.117-.11-.12c-.042,0-.542-.008-.555-.01s-.046-.01-.062-.082c.011-.1.07-.1.07-.1s.506,0,.648,0a.217.217,0,0,1,.157.091.305.305,0,0,1,.062.241c-.013.068-.1.5-.127.648a.154.154,0,0,1-.172.144h-.479a.319.319,0,0,1-.3-.194C9.9,11.4,10.025,11.2,10.025,11.2Zm3.681,4.5c-.019.09-.035.182-.052.274s-.034.185-.053.277a1.826,1.826,0,0,1-.607,1,2.171,2.171,0,0,1-.848.466,1.508,1.508,0,0,1-.408.055c-.191,0-.383,0-.574,0-.252,0-.506,0-.76,0a1.582,1.582,0,0,1-.98-.289c-.017.088-.031.178-.047.269-.019.108-.035.216-.057.324s-.041.221-.063.329c-.024.124-.05.25-.071.375-.019.1-.035.2-.051.3-.02.122-.039.246-.062.369l-.009.045a1.289,1.289,0,0,1-.1.36.423.423,0,0,1-.368.245.334.334,0,0,1-.232-.095.443.443,0,0,1-.123-.3,1.2,1.2,0,0,1,.045-.243c.013-.045.023-.089.033-.134.018-.108.034-.217.051-.324.018-.129.037-.259.061-.388.029-.166.063-.331.095-.5s.062-.308.09-.463c.021-.116.04-.233.057-.351s.034-.222.053-.333.046-.234.07-.353.042-.211.062-.315.041-.236.061-.354.034-.213.055-.318c.025-.146.053-.29.08-.437.018-.089.035-.178.051-.267.009-.047.017-.094.025-.14.011-.069.023-.137.035-.206.02-.093.037-.187.056-.28.042-.231.087-.47.151-.7a1.913,1.913,0,0,1,1.018-1.213,1.77,1.77,0,0,1,.779-.213l.445-.016c.24-.01.488-.019.732-.019.128,0,.245,0,.356.007a1.356,1.356,0,0,1,1.264.837,1.317,1.317,0,0,1,.1.832c-.041.19-.072.388-.1.58-.021.134-.041.27-.066.4-.034.183-.073.366-.111.543C13.754,15.46,13.729,15.577,13.706,15.694Zm5-2.827a1.052,1.052,0,0,1-.178.01H17.218c-.318,0-.634,0-.951,0a1.121,1.121,0,0,0-.787.292.917.917,0,0,0-.341.749.578.578,0,0,0,.373.534,1.2,1.2,0,0,0,.46.089c.138,0,.275.005.413.005l.48,0c.2,0,.445,0,.691.016a1.234,1.234,0,0,1,1.066.883,1.7,1.7,0,0,1-.541,1.764,1.95,1.95,0,0,1-1.389.561h-.026c-.146,0-.293,0-.439,0H14.2c-.331,0-.4-.177-.407-.323a.41.41,0,0,1,.11-.295.419.419,0,0,1,.307-.12c.222,0,.443,0,.665,0h1.11c.066,0,.135,0,.2,0l.2,0c.149,0,.326,0,.506-.019a1.081,1.081,0,0,0,.907-.577.742.742,0,0,0-.187-1.046.7.7,0,0,0-.444-.109c-.111.008-.233.012-.369.012s-.246,0-.369-.006c-.067,0-.134,0-.2,0a7.514,7.514,0,0,1-.793-.043,1.226,1.226,0,0,1-.991-.855,1.724,1.724,0,0,1,.616-1.778,1.751,1.751,0,0,1,1.079-.43c.6-.012,1.208-.021,1.8-.027l.722-.009h.02a.351.351,0,0,1,.35.3A.4.4,0,0,1,18.705,12.867Zm5.389,1.364a7.519,7.519,0,0,1-.1.807.4.4,0,0,1-.439.315H19.95a.521.521,0,0,0-.061,0,.613.613,0,0,0-.017.083c-.042.265-.086.477-.133.667a.833.833,0,0,0,.227.693.952.952,0,0,0,.619.219l.955,0,1.241,0h.357a.319.319,0,0,1,.345.309.4.4,0,0,1-.287.393,4.44,4.44,0,0,1-.553.044l-.384,0c-.309,0-.621,0-.932,0-.361,0-.676,0-.961-.01a1.361,1.361,0,0,1-1.316-.946,1.44,1.44,0,0,1-.046-.787c.044-.2.077-.4.108-.6.018-.124.038-.247.061-.37.063-.341.121-.639.18-.916.011-.048.021-.1.03-.146a3.276,3.276,0,0,1,.142-.547,1.977,1.977,0,0,1,1.116-1.13,2.67,2.67,0,0,1,1.017-.183c.349,0,.7-.007,1.043,0a1.6,1.6,0,0,1,1.064.362.794.794,0,0,1,.336.686c-.011.179-.009.363-.006.542C24.1,13.9,24.1,14.064,24.094,14.231Z" fill="#5e5f5e"/><path d="M22.69,12.887a13.918,13.918,0,0,0-1.528.038,1.086,1.086,0,0,0-.893.643,2.247,2.247,0,0,0-.189.709c-.015.094-.029.188-.047.278,0,.013-.008.04-.011.064h2.484c.241,0,.484,0,.727,0h0c.074,0,.093-.009.106-.092.03-.174.066-.381.107-.588a.9.9,0,0,0-.018-.569A.775.775,0,0,0,22.69,12.887Z" fill="#5e5f5e"/></svg>