<svg id="guias" xmlns="http://www.w3.org/2000/svg" viewBox="0 0 30 30"><title>iconos</title><path d="M15,3.084a12,12,0,1,0,12,12,12.014,12.014,0,0,0-12-12ZM15,25.75A10.666,10.666,0,1,1,25.665,15.085,10.677,10.677,0,0,1,15,25.75Zm0-.238" fill="#5e5f5f"/><path d="M15,8.165a4.02,4.02,0,0,0-4.015,4.016.726.726,0,1,0,1.452,0A2.563,2.563,0,1,1,15,14.743a.726.726,0,0,0-.726.726v2.965a.727.727,0,1,0,1.453,0v-2.3l.1-.02A4.015,4.015,0,0,0,15,8.165Z" fill="#5e5f5f"/><circle cx="15" cy="20.943" r="0.943" fill="#5e5f5f"/></svg>