<svg id="guias" xmlns="http://www.w3.org/2000/svg" viewBox="0 0 30 30"><title>iconos</title><path d="M14.954,10.749a3.576,3.576,0,1,0-3.577-3.576,3.58,3.58,0,0,0,3.577,3.576Zm0-6.427A2.851,2.851,0,1,1,12.1,7.173a2.855,2.855,0,0,1,2.853-2.852Zm0,0" fill="#5e5f5e"/><path d="M14.954,11.474a6.194,6.194,0,0,0-6.187,6.187.363.363,0,0,0,.361.364h11.65a.363.363,0,0,0,.362-.364A6.2,6.2,0,0,0,14.954,11.474ZM13,17.3H9.5a5.463,5.463,0,0,1,10.9,0Z" fill="#5e5f5e"/><path d="M10.383,21.85l-1.988-.334L7.462,19.73a.36.36,0,0,0-.642,0l-.933,1.786L3.9,21.85a.362.362,0,0,0-.2.611L5.114,23.9l-.3,1.993a.365.365,0,0,0,.145.345.359.359,0,0,0,.376.034l1.8-.9,1.8.9a.383.383,0,0,0,.164.037.369.369,0,0,0,.213-.071.363.363,0,0,0,.144-.345l-.3-1.993,1.413-1.44a.358.358,0,0,0,.087-.366.364.364,0,0,0-.284-.245ZM8.524,23.521a.368.368,0,0,0-.1.308l.223,1.485L7.3,24.644a.366.366,0,0,0-.322,0l-1.344.67.221-1.485a.365.365,0,0,0-.1-.308L4.706,22.45,6.186,22.2a.362.362,0,0,0,.263-.191l.693-1.332.693,1.332A.357.357,0,0,0,8.1,22.2l1.479.249Zm0,0" fill="#5e5f5e"/><path d="M18.2,21.85l-1.989-.334-.93-1.786a.363.363,0,0,0-.645,0L13.7,21.516l-1.987.334a.364.364,0,0,0-.2.611L12.927,23.9l-.3,1.993a.361.361,0,0,0,.146.345.357.357,0,0,0,.375.034l1.8-.9,1.8.9a.367.367,0,0,0,.161.037.366.366,0,0,0,.358-.416l-.3-1.993,1.412-1.44a.359.359,0,0,0,.086-.366.364.364,0,0,0-.284-.245Zm-1.856,1.671a.363.363,0,0,0-.1.308l.223,1.485-1.344-.67a.372.372,0,0,0-.324,0l-1.344.67.222-1.485a.363.363,0,0,0-.1-.308l-1.051-1.07L14,22.2a.359.359,0,0,0,.262-.191l.694-1.332.692,1.332a.362.362,0,0,0,.263.191l1.481.249Zm0,0" fill="#5e5f5e"/><path d="M26.293,22.095a.365.365,0,0,0-.286-.245l-1.987-.334-.932-1.786a.362.362,0,0,0-.644,0l-.932,1.786-1.987.334a.362.362,0,0,0-.2.611L20.738,23.9l-.3,1.993a.365.365,0,0,0,.52.379l1.8-.9,1.8.9a.377.377,0,0,0,.162.037.372.372,0,0,0,.214-.071.363.363,0,0,0,.145-.345l-.3-1.993,1.413-1.44a.362.362,0,0,0,.087-.366ZM24.15,23.521a.359.359,0,0,0-.1.308l.221,1.485-1.344-.67a.367.367,0,0,0-.322,0l-1.345.67.221-1.485a.364.364,0,0,0-.1-.308l-1.052-1.07,1.48-.249a.357.357,0,0,0,.261-.191l.694-1.332.693,1.332a.359.359,0,0,0,.261.191l1.481.249Zm0,0" fill="#5e5f5e"/><path d="M14.954,8.816a1.645,1.645,0,0,0,1.24-.566.363.363,0,1,0-.548-.476.917.917,0,0,1-1.387,0,.362.362,0,1,0-.546.476,1.642,1.642,0,0,0,1.24.566Zm0,0" fill="#5e5f5e"/></svg>