<svg id="guias" xmlns="http://www.w3.org/2000/svg" viewBox="0 0 30 30"><title>iconos</title><path d="M21.722,20.387a1.045,1.045,0,0,0-.92.4,8.023,8.023,0,0,1-6.775,2.35,8.218,8.218,0,0,1-7-6.257l.266.182q.987.671,1.974,1.345a.921.921,0,0,0,1.019.063.865.865,0,0,0,.461-.711,1.061,1.061,0,0,0-.5-.9q-1.863-1.277-3.731-2.544a.927.927,0,0,0-1.446.272Q3.794,16.451,2.53,18.3a.91.91,0,0,0,.186,1.338.922.922,0,0,0,1.317-.3c.1-.15.206-.3.31-.456l.191-.282c.248-.363.5-.726.757-1.1.035.126.07.246.1.363a10.077,10.077,0,0,0,9.565,7.166H15a9.894,9.894,0,0,0,4.846-1.243,10,10,0,0,0,2.393-1.847.906.906,0,0,0,.211-.946.873.873,0,0,0-.729-.6M15,24.853h0v0Z" fill="#5e5e5e"/><path d="M27.265,10.348a.921.921,0,0,0-1.295.307c-.107.149-.208.3-.311.455l-.953,1.4a9.9,9.9,0,0,0-2.47-4.434A10.07,10.07,0,0,0,15,4.975,9.94,9.94,0,0,0,9.889,6.388a12.4,12.4,0,0,0-1.6,1.205l-.318.268a.888.888,0,0,0-.333.634.92.92,0,0,0,1.553.712c.06-.051.115-.1.171-.158l.1-.092a7.962,7.962,0,0,1,6.927-2.03,8,8,0,0,1,5.822,4.19,7.481,7.481,0,0,1,.762,2l-.035-.023c-.721-.493-1.445-.989-2.171-1.479a.94.94,0,0,0-1.344.174.881.881,0,0,0-.155.664,1.054,1.054,0,0,0,.479.673q1.887,1.291,3.781,2.575a1.074,1.074,0,0,0,.605.209.933.933,0,0,0,.781-.474q1.286-1.873,2.563-3.755a1.013,1.013,0,0,0,.184-.765.886.886,0,0,0-.4-.57" fill="#5e5e5e"/></svg>