<svg id="guias" xmlns="http://www.w3.org/2000/svg" viewBox="0 0 30 30"><title>iconos</title><path d="M26.707,26.732a1.1,1.1,0,0,1-.814.3.974.974,0,0,1-.816-.371L18.486,19.7A8.721,8.721,0,0,1,13.744,21.1h-.073A8.693,8.693,0,0,1,7.3,18.436a8.561,8.561,0,0,1-2.592-6.294A8.664,8.664,0,0,1,7.3,5.77a8.818,8.818,0,0,1,6.223-2.592h.148A8.633,8.633,0,0,1,20,5.808a8.634,8.634,0,0,1,2.63,6.333,8.548,8.548,0,0,1-2.371,6.074L26.78,25.1a.993.993,0,0,1-.073,1.629M18.338,7.474a6.364,6.364,0,0,0-4.667-1.926A6.328,6.328,0,0,0,9.079,7.437a6.478,6.478,0,0,0-.073,9.3,6.77,6.77,0,0,0,4.591,2,6.48,6.48,0,0,0,4.741-2,5.965,5.965,0,0,0,1.925-4.591,6.366,6.366,0,0,0-1.925-4.667" fill="#5e5e5e"/></svg>