<svg id="guias" xmlns="http://www.w3.org/2000/svg" viewBox="0 0 30 30"><title>iconos</title><path d="M2.934,15.17a.554.554,0,1,0,1.107,0A10.971,10.971,0,0,1,14.82,4.218l-.756.755a.553.553,0,0,0,0,.783.562.562,0,0,0,.393.162.556.556,0,0,0,.391-.162l1.7-1.7a.551.551,0,0,0,0-.783l-1.7-1.7a.554.554,0,1,0-.783.783l.762.761A12.065,12.065,0,0,0,2.934,15.17Zm0,0" fill="#5e5f5f"/><path d="M26.512,14.617a.551.551,0,0,0-.554.553A10.97,10.97,0,0,1,15.179,26.123l.755-.756a.553.553,0,0,0-.783-.781l-1.7,1.7a.554.554,0,0,0,0,.783l1.7,1.7a.554.554,0,0,0,.783-.783l-.761-.76A12.069,12.069,0,0,0,27.065,15.17a.551.551,0,0,0-.554-.553Zm0,0" fill="#5e5f5f"/><path d="M13.635,11.877A3.567,3.567,0,0,0,15,18.738a3.5,3.5,0,0,0,1.364-.271,3.566,3.566,0,1,0-2.729-6.59Zm3.636,2.353a2.461,2.461,0,0,1-1.331,3.217,2.479,2.479,0,0,1-.94.191,2.463,2.463,0,0,1-.94-4.738,2.481,2.481,0,0,1,.94-.191,2.455,2.455,0,0,1,2.27,1.521Zm0,0" fill="#5e5f5f"/><path d="M16.119,7.793l-.23.553a6.741,6.741,0,0,0-1.774,0l-.229-.553a1.225,1.225,0,0,0-1.605-.661l-1.047.431a1.229,1.229,0,0,0-.665,1.605l.229.554a6.824,6.824,0,0,0-1.254,1.252l-.553-.229a1.23,1.23,0,0,0-1.606.66l-.431,1.047a1.232,1.232,0,0,0,.665,1.606l.555.229a6.656,6.656,0,0,0,0,1.773l-.555.229a1.23,1.23,0,0,0-.665,1.605l.431,1.047a1.223,1.223,0,0,0,1.135.754,1.261,1.261,0,0,0,.471-.094l.553-.231A6.838,6.838,0,0,0,10.8,20.625l-.229.553a1.224,1.224,0,0,0,.665,1.6l1.047.432a1.213,1.213,0,0,0,.47.1,1.227,1.227,0,0,0,1.136-.756L14.115,22a6.741,6.741,0,0,0,1.774,0l.23.553a1.223,1.223,0,0,0,1.6.66l1.046-.432a1.226,1.226,0,0,0,.666-1.6l-.229-.555a6.873,6.873,0,0,0,1.252-1.252l.554.229a1.224,1.224,0,0,0,1.606-.66l.432-1.047a1.228,1.228,0,0,0-.667-1.605l-.554-.229a6.656,6.656,0,0,0,0-1.773l.554-.229a1.228,1.228,0,0,0,.667-1.605L22.618,11.4a1.223,1.223,0,0,0-1.135-.754,1.258,1.258,0,0,0-.471.094l-.554.231a6.887,6.887,0,0,0-1.252-1.254l.229-.554a1.229,1.229,0,0,0-.666-1.606l-1.046-.431a1.221,1.221,0,0,0-1.6.666Zm.626,1.381.4-.961a.116.116,0,0,1,.112-.073.131.131,0,0,1,.045.011l1.045.43a.1.1,0,0,1,.061.062.094.094,0,0,1,0,.089l-.4.963a.549.549,0,0,0,.2.67,5.727,5.727,0,0,1,1.589,1.59.558.558,0,0,0,.672.207l.961-.4a.131.131,0,0,1,.046-.012.116.116,0,0,1,.111.074l.431,1.045a.129.129,0,0,1-.062.158l-.962.4a.55.55,0,0,0-.33.621,5.729,5.729,0,0,1,0,2.248.56.56,0,0,0,.33.621l.962.4a.108.108,0,0,1,.062.063.1.1,0,0,1,0,.09l-.431,1.045a.116.116,0,0,1-.111.074.133.133,0,0,1-.046-.012l-.961-.4a.556.556,0,0,0-.672.2,5.727,5.727,0,0,1-1.589,1.59.555.555,0,0,0-.206.67l.4.963a.094.094,0,0,1,0,.09.105.105,0,0,1-.066.063l-1.046.43a.129.129,0,0,1-.044.012.119.119,0,0,1-.113-.072l-.4-.963a.551.551,0,0,0-.509-.342.617.617,0,0,0-.105.012,5.893,5.893,0,0,1-2.25,0,.562.562,0,0,0-.621.33l-.4.963a.117.117,0,0,1-.112.072.119.119,0,0,1-.044-.012l-1.047-.43a.116.116,0,0,1-.061-.158l.4-.963a.551.551,0,0,0-.2-.67,5.713,5.713,0,0,1-1.589-1.59.556.556,0,0,0-.671-.2l-.963.4a.122.122,0,0,1-.045.012A.117.117,0,0,1,8.4,18.5l-.431-1.047a.1.1,0,0,1,0-.09.116.116,0,0,1,.062-.062L9,16.906a.554.554,0,0,0,.33-.623,5.729,5.729,0,0,1,0-2.248A.56.56,0,0,0,9,13.414l-.962-.4a.106.106,0,0,1-.062-.062.1.1,0,0,1,0-.088L8.4,11.82a.116.116,0,0,1,.111-.074.124.124,0,0,1,.045.012l.963.4a.553.553,0,0,0,.671-.2,5.729,5.729,0,0,1,1.589-1.59.554.554,0,0,0,.207-.67l-.4-.963a.1.1,0,0,1,0-.089.128.128,0,0,1,.067-.067l1.047-.431a.127.127,0,0,1,.044-.011.115.115,0,0,1,.111.073l.4.962a.554.554,0,0,0,.621.329,5.883,5.883,0,0,1,2.248,0,.541.541,0,0,0,.616-.324Zm0,0" fill="#5e5f5f"/></svg>