<svg id="guias" xmlns="http://www.w3.org/2000/svg" viewBox="0 0 30 30"><title>iconos</title><path d="M21.856,19.8a3.258,3.258,0,0,0-2.382,1.024l-.24.251L10.577,15.83l.05-.317a3.133,3.133,0,0,0,.041-.487,3.466,3.466,0,0,0-.039-.482l-.057-.374,8.686-5.1.207.219a3.259,3.259,0,0,0,2.392,1.035,3.291,3.291,0,1,0-3.29-3.29,3.454,3.454,0,0,0,.039.481l.028.182L9.849,12.855l-.082-.086a3.258,3.258,0,0,0-2.39-1.035,3.291,3.291,0,1,0,2.381,5.558l.123-.129,8.747,5.3-.022.14a3.112,3.112,0,0,0-.041.486,3.291,3.291,0,1,0,3.29-3.289Z" fill="#5e5f5f"/></svg>