<?xml version="1.0" encoding="utf-8"?>
<!-- Generator: Adobe Illustrator 21.0.2, SVG Export Plug-In . SVG Version: 6.00 Build 0)  -->
<svg version="1.1" id="guias" xmlns="http://www.w3.org/2000/svg" xmlns:xlink="http://www.w3.org/1999/xlink" x="0px" y="0px"
	 viewBox="0 0 30 30" style="enable-background:new 0 0 30 30;" xml:space="preserve">
<style type="text/css">
	.st0{fill:#5E5E5E;}
</style>
<path class="st0" d="M26.6,12.2c0.1-0.7-0.4-1.3-1-1.4l-6.8-1l-3-6.1c-0.2-0.4-0.6-0.7-1.1-0.7c-0.5,0-0.9,0.3-1.1,0.7l-3,6.1
	l-6.7,1c-0.3,0-0.5,0.2-0.7,0.4c-0.5,0.5-0.5,1.3,0,1.7l4.9,4.7l-1.1,6.7c0,0.1,0,0.1,0,0.2c0,0.7,0.6,1.2,1.2,1.2l0,0
	c0.2,0,0.4,0,0.6-0.1l6-3.2l6,3.2c0.2,0.1,0.5,0.2,0.8,0.1c0.7-0.1,1.1-0.8,1-1.4l-1.2-6.7l4.9-4.8C26.5,12.7,26.6,12.5,26.6,12.2z
	 M19.2,16.4c-0.3,0.3-0.4,0.7-0.3,1.1l0.9,4.9l-4.4-2.3c-0.4-0.2-0.8-0.2-1.1,0l-4.4,2.3l0.8-4.9c0.1-0.4-0.1-0.8-0.4-1.1L6.7,13
	l4.9-0.7c0.4-0.1,0.7-0.3,0.9-0.7l2.2-4.5l2.2,4.5c0.2,0.4,0.5,0.6,0.9,0.7l4.9,0.7L19.2,16.4z"/>
</svg>
