<svg id="guias" xmlns="http://www.w3.org/2000/svg" viewBox="0 0 30 30"><title>iconos</title><path d="M8.187,26.465a1.24,1.24,0,0,1-1.221-1.441L8.108,18.26,3.182,13.481a1.236,1.236,0,0,1,.681-2.109l6.786-1,3.018-6.162a1.234,1.234,0,0,1,1.105-.694h0a1.243,1.243,0,0,1,1.108.688l3.054,6.144,6.791.965a1.238,1.238,0,0,1,.691,2.11l-4.9,4.8,1.178,6.76a1.235,1.235,0,0,1-1.789,1.307l-6.082-3.176L8.767,26.32a1.257,1.257,0,0,1-.58.145M14.8,20.481a1.2,1.2,0,0,1,.6.139l4.435,2.316L18.974,18a1.236,1.236,0,0,1,.354-1.1l3.572-3.5-4.951-.7a1.242,1.242,0,0,1-.936-.674L14.784,7.545" fill="#5e5e5e"/></svg>