<svg id="guias" xmlns="http://www.w3.org/2000/svg" viewBox="0 0 30 30"><title>iconos</title><path d="M8.132,25.91a1.231,1.231,0,0,1-1.213-1.436l1.136-6.727L3.155,13a1.232,1.232,0,0,1,.677-2.1l6.748-1,3-6.126a1.228,1.228,0,0,1,1.1-.688h0a1.232,1.232,0,0,1,1.1.682l3.039,6.111,6.752.959a1.231,1.231,0,0,1,.689,2.1L21.4,17.711l1.172,6.721a1.23,1.23,0,0,1-1.78,1.3l-6.049-3.156-6.03,3.19a1.227,1.227,0,0,1-.576.143M6.657,12.967l3.574,3.464a1.233,1.233,0,0,1,.356,1.09l-.827,4.9,4.4-2.328a1.225,1.225,0,0,1,1.143,0l4.413,2.3-.854-4.906a1.221,1.221,0,0,1,.35-1.088l3.555-3.484-4.925-.7a1.232,1.232,0,0,1-.93-.669L14.694,7.093,12.5,11.562a1.227,1.227,0,0,1-.924.675Z" fill="#5e5e5e"/></svg>