<svg id="guias" xmlns="http://www.w3.org/2000/svg" viewBox="0 0 30 30"><title>iconos</title><path d="M22.993,24.892H21.9v-.526c0-.53,0-1.05,0-1.571a7.122,7.122,0,0,0-.467-2.653,8.253,8.253,0,0,0-3.328-4,1.39,1.39,0,0,1-.541-1.2,1.221,1.221,0,0,1,.534-1.066A7.619,7.619,0,0,0,20.095,12.1a7.132,7.132,0,0,0,1.8-4.648q.009-.843.01-1.688V5.107s.953,0,1.114,0a1.093,1.093,0,0,0,.925-.493.962.962,0,0,0,.042-.935,1.017,1.017,0,0,0-1.015-.587H6.951a.8.8,0,0,0-.091,0,1.007,1.007,0,0,0-.876,1.369A1.044,1.044,0,0,0,7.006,5.1H8.1l0,.776c0,.458,0,.916,0,1.375a7.137,7.137,0,0,0,1.181,4,9.738,9.738,0,0,0,2.565,2.6,1.6,1.6,0,0,1,.448.445,1.376,1.376,0,0,1-.436,1.829,9.784,9.784,0,0,0-2.091,1.927,7.365,7.365,0,0,0-1.671,4.884c.015.48.01.961.01,1.452l0,.493-.633,0c-.164,0-.324,0-.486,0a1.1,1.1,0,0,0-.9.467.986.986,0,0,0-.1.9,1.046,1.046,0,0,0,1.069.646H22.986s.14,0,.181,0a1.02,1.02,0,0,0,.733-.437,1.016,1.016,0,0,0-.907-1.579m-8.52-9.937a3.284,3.284,0,0,0-1.381-2.683,7.176,7.176,0,0,1-2.532-2.85A5.1,5.1,0,0,1,10.109,7.3c0-.491,0-.983,0-1.478l0-.706H19.9l-.006.67c0,.585-.007,1.169-.016,1.753a5.064,5.064,0,0,1-1.166,3.062,6.983,6.983,0,0,1-1.781,1.648,3.182,3.182,0,0,0-1.393,2.715,3.249,3.249,0,0,0,1.393,2.782,6.612,6.612,0,0,1,2.609,3.057,5.192,5.192,0,0,1,.357,1.916c.006.528,0,1.054,0,1.581l-.006.581H10.109l0-.594c0-.61,0-1.223.017-1.837a4.943,4.943,0,0,1,1.411-3.342,10.83,10.83,0,0,1,1.591-1.4,3.354,3.354,0,0,0,1.343-2.759M11.521,9.115a12.75,12.75,0,0,0,3.421,3.046l2.525-1.517a37.063,37.063,0,0,1-5.946-1.529M11.3,23.85s2.043-3.434,3.911-3.484c1.736-.051,3.569,3.484,3.569,3.484Z" fill="#5e5f5f"/></svg>