<svg id="guias" xmlns="http://www.w3.org/2000/svg" viewBox="0 0 30 30"><title>iconos</title><path d="M19.795,15.014H16.683a1.745,1.745,0,0,0-1.247-1.245V9.347a.436.436,0,1,0-.872,0v4.421a1.74,1.74,0,1,0,2.119,2.118h3.112a.437.437,0,0,0,0-.873ZM15,16.322a.871.871,0,1,1,.872-.872.873.873,0,0,1-.872.872Zm0,0" fill="#5e5f5e"/><path d="M24.2,6.564l1.787,1.784a.434.434,0,0,0,.309.127.439.439,0,0,0,.309-.127A3.541,3.541,0,0,0,21.6,3.34a.445.445,0,0,0-.128.309.437.437,0,0,0,.128.309l1.99,1.988-.741.741a11.744,11.744,0,0,0-15.691,0l-.743-.741L8.4,3.958a.437.437,0,0,0,0-.618A3.541,3.541,0,0,0,3.394,8.347a.436.436,0,0,0,.309.127.426.426,0,0,0,.309-.127L5.8,6.564l.73.729a11.75,11.75,0,0,0,2.51,18.3l-1.322,1.32a.437.437,0,0,0,.31.745.432.432,0,0,0,.308-.128l1.5-1.5a11.735,11.735,0,0,0,10.328,0l1.5,1.5a.436.436,0,0,0,.309.128.426.426,0,0,0,.308-.128.434.434,0,0,0,0-.617l-1.319-1.32a11.748,11.748,0,0,0,2.51-18.3Zm1.787-2.605a2.673,2.673,0,0,1,.283,3.44L22.549,3.675a2.671,2.671,0,0,1,3.441.283ZM3.728,7.4A2.668,2.668,0,0,1,7.451,3.675ZM15,26.349a10.9,10.9,0,1,1,10.9-10.9A10.911,10.911,0,0,1,15,26.349Zm0,0" fill="#5e5f5e"/><path d="M23.666,10.418a10.062,10.062,0,0,0-3.633-3.633c-.01-.007-.014-.014-.021-.018s-.017,0-.022-.009a10,10,0,0,0-9.979,0,.154.154,0,0,1-.025.009c-.006,0-.009.01-.017.018a10.075,10.075,0,0,0-3.635,3.633c-.006.008-.014.013-.019.019s0,.018-.006.023a9.979,9.979,0,0,0,0,9.979c0,.008,0,.018.006.024s.017.018.023.028a10.109,10.109,0,0,0,3.63,3.626c.008,0,.011.013.017.017s.023.008.037.013a9.979,9.979,0,0,0,9.955,0,.258.258,0,0,0,.035-.013c.007,0,.011-.014.021-.017a10.136,10.136,0,0,0,3.629-3.626.314.314,0,0,0,.021-.028c0-.007,0-.017.009-.024a9.992,9.992,0,0,0,0-9.979c0-.006,0-.015-.009-.023s-.014-.011-.018-.019ZM19.942,23.142l-.206-.358a.436.436,0,1,0-.755.436l.208.361a9.136,9.136,0,0,1-3.754,1v-.415a.436.436,0,0,0-.872,0v.415a9.119,9.119,0,0,1-3.754-1l.209-.361a.436.436,0,1,0-.755-.436l-.207.358a9.228,9.228,0,0,1-2.749-2.747l.361-.207a.436.436,0,1,0-.437-.754l-.36.208a9.138,9.138,0,0,1-1-3.755h.414a.436.436,0,1,0,0-.872H5.867a9.054,9.054,0,0,1,1-3.753l.362.208a.411.411,0,0,0,.217.058.436.436,0,0,0,.221-.813l-.361-.209a9.248,9.248,0,0,1,2.747-2.748l.209.359a.435.435,0,0,0,.755-.434l-.209-.362a9.07,9.07,0,0,1,3.752-1v.413a.437.437,0,0,0,.874,0V6.318a9.076,9.076,0,0,1,3.754,1l-.208.362a.433.433,0,0,0,.16.594.422.422,0,0,0,.217.059.434.434,0,0,0,.376-.219l.208-.359a9.219,9.219,0,0,1,2.749,2.748l-.36.209a.435.435,0,0,0-.159.6.44.44,0,0,0,.377.218.453.453,0,0,0,.219-.058l.36-.21a9.073,9.073,0,0,1,1,3.754h-.413a.437.437,0,0,0,0,.873h.413a9.075,9.075,0,0,1-1,3.755l-.36-.211a.436.436,0,0,0-.437.756l.36.208a9.173,9.173,0,0,1-2.749,2.747Zm0,0" fill="#5e5f5e"/></svg>