<svg id="guias" xmlns="http://www.w3.org/2000/svg" viewBox="0 0 30 30"><title>iconos</title><path d="M27.847,5.78a1.6,1.6,0,0,0-.729-.722,2.782,2.782,0,0,0-1.171-.187h-.071c-.454.006-.672,0-1.125,0-.284,0-.565,0-.851,0a2.838,2.838,0,0,0-2.309,1.041,2.294,2.294,0,0,0-.6,1.549c0,.18,0,.361,0,.521a.26.26,0,0,1-.283.278c-.252,0-1.77-.008-2.281-.017a.54.54,0,0,1-.4-.187c-.226-.358-.453-.754-.718-1.249a.618.618,0,0,0-.668-.392.187.187,0,0,0-.113.067.812.812,0,0,0,0,.691c.052.1.114.194.179.295s.115.176.168.27a.56.56,0,0,1,.073.359c-.035.144-.334.148-.338.148-.229,0-1.889.008-1.922.008a.568.568,0,0,1-.647-.419.048.048,0,0,1-.012-.014c-.055-.094-.108-.186-.165-.277a6.561,6.561,0,0,1-.364-.661.672.672,0,0,0-.641-.456H12.84a.144.144,0,0,0-.168.127.869.869,0,0,0,.123.8,2.771,2.771,0,0,1,.248.417l.031.059a.324.324,0,0,1,.039.309.311.311,0,0,1-.276.107c-.815,0-1.482-.009-2.1-.022a.453.453,0,0,1-.349-.155c-.259-.425-.508-.865-.743-1.308a.714.714,0,0,0-.675-.414.144.144,0,0,0-.078.045s-.258.216-.051.667c.049.1.115.2.171.295.069.117.142.238.206.361a1.075,1.075,0,0,1,.09.343l0,.042-.03.037a.358.358,0,0,1-.214.09c-.226,0-1.749,0-2.253-.006A.348.348,0,0,1,6.544,8.1c-.1-.159-.186-.324-.274-.484-.068-.125-.138-.25-.209-.374-.143-.242-.284-.486-.445-.709A.54.54,0,0,0,5.23,6.4c-.1,0-.146.025-.152.036-.112.207-.216.4-.1.609l.049.081c.124.214.254.437.372.662a.466.466,0,0,1,.057.316c-.038.119-.26.129-.3.129l-.27,0c-.172,0-.346.007-.519.007-.2,0-.367,0-.522-.014-.051,0-.1-.005-.149-.005a1.643,1.643,0,0,0-1.2.387,1.409,1.409,0,0,0-.435,1.009c-.006.461-.02,12.9-.011,12.966.039.31.093.358.4.37.12,0,3.528.008,4.334.008.34,0,.492.259.629.459a2.469,2.469,0,0,0,.291.373,2.269,2.269,0,0,0,1.457.71c.107.01.2.013.3.013a2.335,2.335,0,0,0,.919-.168,2.51,2.51,0,0,0,1.077-.864c.134-.183.314-.523.641-.523,0,0,9.273,0,9.33,0,.267,0,.33.265.387.395a2.341,2.341,0,0,0,1.568,1.18,3.464,3.464,0,0,0,.6.055,2.345,2.345,0,0,0,1.091-.256,2.136,2.136,0,0,0,.94-.848c.136-.246.306-.525.52-.525H27.6c.284,0,.445-.068.445-.429.021-.857-.008-15.213-.008-15.213A3.04,3.04,0,0,0,27.847,5.78Zm-.552,2.293c0,.25,0,1.132,0,1.317a.386.386,0,0,1-.1.291.748.748,0,0,1-.3.1c-.312,0-2.406,0-2.583,0-.372,0-.468-.1-.469-.47,0-.143,0-1.054,0-1.36a.353.353,0,0,1,.083-.268.349.349,0,0,1,.261-.087h2.641C27.185,7.6,27.287,7.736,27.295,8.073ZM11.074,22.209a1.851,1.851,0,0,1-1.031,1.369,1.472,1.472,0,0,1-.564.112h0a1.9,1.9,0,0,1-.822-.21,1.59,1.59,0,0,1,.034-2.8,1.8,1.8,0,0,1,.789-.2h0a1.548,1.548,0,0,1,1.426.915A1.5,1.5,0,0,1,11.074,22.209Zm9.261-.409c0,.347-.067.417-.409.418H17.9c-.339,0-.409-.071-.409-.418,0-.9.019-6.506.02-7.409,0-.305.016-.411.323-.411.023,0,1.746-.012,2.129-.006a.35.35,0,0,1,.369.394C20.333,15.237,20.335,21.257,20.335,21.8Zm4.755,1.508a1.578,1.578,0,0,1-1.129.468l-.034,0a1.565,1.565,0,0,1-1.1-.471,1.627,1.627,0,0,1-.462-1.174A1.585,1.585,0,0,1,24,20.551h0a1.616,1.616,0,0,1,1.555,1.56A1.66,1.66,0,0,1,25.09,23.308Zm-2.413-8.981a.382.382,0,0,1,.09-.283.36.36,0,0,1,.267-.089s3.232-.009,3.825,0a.49.49,0,0,1,.342.142.43.43,0,0,1,.1.322c-.018.481.01,2.095,0,2.33-.016.319-.292.328-.6.328,0,0-3.207-.011-3.642-.006h-.01a.375.375,0,0,1-.278-.091.391.391,0,0,1-.092-.294C22.684,16.03,22.684,15.135,22.677,14.327ZM26.931,13.2c-.192,0-4.571-.027-4.684.007-.27.081-.353.2-.353.5,0,.972,0,2.23,0,3.533a.528.528,0,0,0,.6.589c.711,0,4.347,0,4.347,0,.346,0,.469.141.469.533v3.462a.429.429,0,0,1-.081.319.337.337,0,0,1-.247.082c-.407,0-.506-.014-.555-.355a2.266,2.266,0,0,0-1.149-1.807,2.338,2.338,0,0,0-1.81-.3,2.248,2.248,0,0,0-1.931,2.271.194.194,0,0,1-.216.192c-.136,0-.245-.068-.245-.192,0-1.252,0-8.149,0-8.215a.544.544,0,0,0-.543-.609c-.286,0-3.278,0-3.278,0a.4.4,0,0,0-.33.146.575.575,0,0,0-.145.422c.014,1.093.018,7.067,0,8.047a.4.4,0,0,1-.436.418c-.121,0-3.764,0-4.065,0-.257-.009-.366-.2-.379-.464a2.2,2.2,0,0,0-1.011-1.682,2.184,2.184,0,0,0-1.356-.452,3.182,3.182,0,0,0-.86.13,2.27,2.27,0,0,0-1.43,1.3,2.032,2.032,0,0,0-.187.735c-.043.3-.15.434-.6.434L3.112,22.2a.289.289,0,0,1-.315-.327c0-.893,0-1.635,0-2.5a.791.791,0,0,1,.027-.269c.072-.186.324-.146.423-.146,0,0,11.251.014,12.182.021h.04c.3,0,.516-.144.516-.389,0-.321-.315-.379-.6-.379-.029,0-8.245-.012-12.1-.02-.179,0-.357,0-.425-.069s-.067-.169-.066-.352c0-1.66.019-2.971.025-4.63,0-.318.017-.95.547-.95.042,0,22.069-.014,23.515-.005,0,0,.415-.048.415.192v.619C27.3,13.187,27.1,13.2,26.931,13.2Zm-.012-1.767s.1,0-.241,0c0,0-23.193.037-23.368.033-.2-.006-.5-.115-.493-.316,0-.122-.017-.9.013-1.146a1.03,1.03,0,0,1,1.029-.959C4.053,9.024,21.122,9,21.122,9a.769.769,0,0,0,.553-.2.545.545,0,0,0,.107-.433c-.017-.157,0-.481-.006-.574a2,2,0,0,1,1.982-2.068c.4-.016.825-.022,1.26-.022.418,0,.848.024,1.314.02.73-.007.968.291.968.585,0,.31-.059.517-.336.517l-3.286-.007A.6.6,0,0,0,23.1,7.4c0,.856,0,2.483,0,2.483a.594.594,0,0,0,.639.646c.352,0,3.146,0,3.146,0,.328,0,.413.127.413.45C27.314,11.238,27.241,11.429,26.919,11.429Z" fill="#5b5b5b"/><path d="M9.317,16.7V13.7c0-.442-.481-.49-.637-.493C8.356,13.2,4.422,13.2,4.117,13.2a.555.555,0,0,0-.631.574c0,.256,0,2.282,0,3.316a.343.343,0,0,0,.348.3s4.732,0,4.8,0C8.884,17.363,9.317,17.386,9.317,16.7Zm-.751-.309a.279.279,0,0,1-.077.213.4.4,0,0,1-.279.081H4.615a.372.372,0,0,1-.273-.085.34.34,0,0,1-.1-.266c.008-.4,0-1.731,0-1.991,0-.331.119-.4.464-.4H8.135c.261,0,.426.063.43.375Z" fill="#5b5b5b"/><path d="M15.94,16.7V13.7c0-.442-.482-.49-.638-.493-.324-.007-4.259-.008-4.562-.008a.554.554,0,0,0-.632.574c0,.256,0,2.282,0,3.316a.341.341,0,0,0,.348.3s4.731,0,4.8,0C15.506,17.363,15.94,17.386,15.94,16.7Zm-.752-.309a.276.276,0,0,1-.077.213.4.4,0,0,1-.278.081h-3.6a.376.376,0,0,1-.273-.085.34.34,0,0,1-.1-.266c.009-.4,0-1.731,0-1.991,0-.331.12-.4.463-.4h3.433c.261,0,.426.063.43.375Z" fill="#5b5b5b"/></svg>