<svg id="guias" xmlns="http://www.w3.org/2000/svg" viewBox="0 0 30 30"><title>iconos</title><path d="M17.023,19.416a2.533,2.533,0,0,1,.226-.322q.71-.724,1.432-1.436a.86.86,0,0,1,1.354,0c.367.363.73.731,1.1,1.095.255.255.413.266.7.048a1.686,1.686,0,0,1,2.062.026.468.468,0,0,0,.433.1,1.713,1.713,0,0,1,1.91,2.171.473.473,0,0,1-.5.36H23.849c.123.128.189.2.262.273q1.6,1.6,3.205,3.206c.046.046.093.092.139.14.129.138.24.309.116.476a.723.723,0,0,1-.42.259,6.468,6.468,0,0,1-.871.011c-1.8,0-3.6,0-5.405-.006a1.276,1.276,0,0,1-.58-.162c-.522-.289-1.039-.6-1.54-.925a.43.43,0,0,0-.548.009c-.514.326-1.045.622-1.559.948a.581.581,0,0,1-.676.008c-.825-.482-1.66-.945-2.483-1.431a.406.406,0,0,0-.478.007c-.807.474-1.622.941-2.441,1.394a1.217,1.217,0,0,1-.555.152c-2.346.01-4.691.006-7.038.006H2.861c-.2,0-.406-.064-.437-.273a.642.642,0,0,1,.132-.472c.444-.482.921-.936,1.385-1.4.6-.6,1.2-1.191,1.788-1.8a12.3,12.3,0,0,1,1.4-1.379c.142-.146.282-.294.427-.439.354-.357.447-.369.871-.116.529.318,1.063.63,1.587.957a.361.361,0,0,0,.411.015c.8-.43.755-.382,1.3.281.51.613,1.021,1.225,1.516,1.816,1.024-1.026,2.044-2.046,3.083-3.084a1.926,1.926,0,0,0-.13-.148q-3.293-3.3-6.589-6.591a.905.905,0,0,0-1.445.006L3.228,18.135a1.221,1.221,0,0,1-.208.188.384.384,0,0,1-.532-.064.366.366,0,0,1-.013-.512,1.853,1.853,0,0,1,.155-.161l5-5a1.7,1.7,0,0,1,2.543.006q3.267,3.264,6.529,6.53a2.253,2.253,0,0,1,.2.274C16.94,19.405,16.982,19.411,17.023,19.416Zm2.37-1.2-5.4,5.4c.7.4,1.441.827,2.184,1.24a.371.371,0,0,0,.3-.03c.566-.329,1.131-.664,1.688-1.011a.549.549,0,0,1,.649,0c.574.357,1.149.706,1.735,1.039a1.123,1.123,0,0,0,.523.148c1.605.011,3.211.006,4.816,0,.09,0,.179-.008.289-.014a.522.522,0,0,0-.061-.1q-1.66-1.663-3.328-3.32a.493.493,0,0,0-.323-.112c-.771-.011-1.539-.006-2.309-.006-.573,0-.741-.17-.759-.753a1.737,1.737,0,0,1,.886-1.6C19.97,18.793,19.665,18.487,19.394,18.216Zm-8.409,3.365c-.232.04-.309.124-.231.352.123.352.208.717.308,1.077.085.308,0,.528-.229.605-.246.08-.461-.06-.553-.375-.124-.42-.23-.847-.361-1.266a.55.55,0,0,0-.187-.291c-.538-.338-1.087-.659-1.6-.966-1.432,1.433-2.85,2.85-4.29,4.289h.3c1.659,0,3.32-.023,4.98.012a2.97,2.97,0,0,0,1.8-.477c.543-.362,1.128-.657,1.71-.989Zm14.473-.952a.856.856,0,0,0-1.2-.839c-.393.15-.445.138-.722-.186a.892.892,0,0,0-1.357-.021c-.312.353-.328.357-.761.194a.858.858,0,0,0-1.176.853Z" fill="#5b5b5b"/><path d="M13.1,8.812H9.128c-.39,0-.538-.126-.6-.511a1.719,1.719,0,0,1,2.024-2.018.443.443,0,0,0,.314-.08,1.7,1.7,0,0,1,2.085-.053.576.576,0,0,0,.5.134A1.716,1.716,0,0,1,15.417,7.8a1.8,1.8,0,0,1,1.771,0c.039-.25.07-.486.117-.718a4.329,4.329,0,0,1,8.5.114,5.049,5.049,0,0,1-.483,3,12.294,12.294,0,0,1-1.839,2.879.905.905,0,0,0-.239.658c.019.524.008,1.05.006,1.575a1.253,1.253,0,0,1-1.336,1.336c-.291,0-.582,0-.873,0a1.227,1.227,0,0,1-1.2-1.205c-.006-.618.007-1.237-.007-1.857a.753.753,0,0,0-.138-.377c-.547-.814-1.112-1.618-1.651-2.436a.382.382,0,0,0-.367-.22c-1.389.01-2.775,0-4.165,0-.412,0-.526-.085-.618-.494A1.727,1.727,0,0,1,13.1,8.812Zm8.856,3.956c.038-.012.064-.013.068-.023.073-.151.147-.3.211-.457a10.5,10.5,0,0,0,1.043-4.945,4.313,4.313,0,0,0-.738-2.235,5.377,5.377,0,0,0-.523-.55l-.061.049Zm-.937.008.094-.031V4.518a5.855,5.855,0,0,0-.5.493,4.411,4.411,0,0,0-.818,2.439,7.976,7.976,0,0,0,.422,3.1C20.457,11.3,20.745,12.033,21.017,12.776Zm-2.09-3.051a.875.875,0,0,0-1.211-.843c-.4.156-.442.146-.716-.171A.885.885,0,0,0,15.626,8.7c-.287.335-.318.341-.739.182a.865.865,0,0,0-1.2.846Zm-9.6-1.757h5.254a.9.9,0,0,0-1.188-.845c-.454.179-.456.17-.785-.19a.858.858,0,0,0-1.312,0,.575.575,0,0,1-.817.2A.862.862,0,0,0,9.327,7.968Zm13.925,4.009a.615.615,0,0,0,.108-.068,10.2,10.2,0,0,0,1.439-2.6A3.612,3.612,0,0,0,24.627,6.3a2.778,2.778,0,0,0-1.113-1.174C24.585,7.44,24.085,9.7,23.252,11.978ZM18.946,8.2a7.215,7.215,0,0,1,.593-3.088A3.406,3.406,0,0,0,18.03,7.956C18.341,8.038,18.626,8.112,18.946,8.2Zm3.487,6.742h-1.8v.321c0,.413.167.582.574.584.243,0,.486.007.73,0a.465.465,0,0,0,.491-.492C22.438,15.223,22.434,15.091,22.434,14.94Zm-1.778-.859h1.759v-.458H20.655Zm-1.825-3.5c.333.506.64.973.946,1.441a7.741,7.741,0,0,0-.307-1.076C19.339,10.54,19.339,10.538,18.83,10.578Z" fill="#5b5b5b"/></svg>