<svg id="guias" xmlns="http://www.w3.org/2000/svg" viewBox="0 0 30 30"><title>iconos</title><path d="M26.677,7.389a9.419,9.419,0,0,1-1.644.555,5.127,5.127,0,0,0,1.354-2.156.269.269,0,0,0-.393-.314,9.5,9.5,0,0,1-2.515,1.039.646.646,0,0,1-.156.019.675.675,0,0,1-.441-.168,5.136,5.136,0,0,0-3.4-1.285,5.5,5.5,0,0,0-1.628.252,4.979,4.979,0,0,0-3.358,3.589,5.518,5.518,0,0,0-.123,1.893.178.178,0,0,1-.047.144.184.184,0,0,1-.142.064h-.012A13.486,13.486,0,0,1,4.9,6.072a.269.269,0,0,0-.44.034,5.143,5.143,0,0,0,.837,6.25A4.559,4.559,0,0,1,4.122,11.9a.269.269,0,0,0-.4.232,5.147,5.147,0,0,0,3,4.743h-.11a4.546,4.546,0,0,1-.866-.082.269.269,0,0,0-.307.346,5.157,5.157,0,0,0,4.071,3.506A9.5,9.5,0,0,1,4.2,22.261H3.6a.393.393,0,0,0-.385.3.408.408,0,0,0,.2.45,14.109,14.109,0,0,0,7.091,1.911,14.308,14.308,0,0,0,6.06-1.284A13.4,13.4,0,0,0,21,20.312a14.574,14.574,0,0,0,2.715-4.548,14.345,14.345,0,0,0,.924-4.977v-.078a.879.879,0,0,1,.326-.681A10.183,10.183,0,0,0,27.01,7.784a.269.269,0,0,0-.333-.4Zm0,0" fill="#5b5b5b"/></svg>