<svg id="guias" xmlns="http://www.w3.org/2000/svg" viewBox="0 0 30 30"><title>iconos</title><path d="M9.016,11.58a1.2,1.2,0,0,0,.835-.338l3.985-3.861L13.8,19.138A1.2,1.2,0,0,0,15,20.343h0a1.2,1.2,0,0,0,1.2-1.2l.038-11.752,3.905,3.843a1.2,1.2,0,0,0,1.683-1.715L15.9,3.692l-.008-.01a1.221,1.221,0,0,0-.133-.086,1.154,1.154,0,0,0-.251-.164,1.183,1.183,0,0,0-.456-.093h0c-.018,0-.03.008-.047.008a1.134,1.134,0,0,0-.408.084,1.182,1.182,0,0,0-.23.147,1.173,1.173,0,0,0-.151.1L8.18,9.516a1.2,1.2,0,0,0,.836,2.065" fill="#5e5e5e"/><path d="M25.6,16.589a1.2,1.2,0,0,0-1.2,1.2v6.472H5.606V17.789a1.2,1.2,0,0,0-2.4,0v7.672a1.2,1.2,0,0,0,1.2,1.2H25.6a1.2,1.2,0,0,0,1.2-1.2V17.789a1.2,1.2,0,0,0-1.2-1.2" fill="#5e5e5e"/></svg>