<?xml version="1.0" encoding="utf-8"?>
<!-- Generator: Adobe Illustrator 21.0.2, SVG Export Plug-In . SVG Version: 6.00 Build 0)  -->
<svg version="1.1" id="guias" xmlns="http://www.w3.org/2000/svg" xmlns:xlink="http://www.w3.org/1999/xlink" x="0px" y="0px"
	 viewBox="0 0 30 30" style="enable-background:new 0 0 30 30;" xml:space="preserve">
<style type="text/css">
	.st0{fill:#5E5E5E;}
</style>
<path class="st0" d="M26.1,21.4L22,19.3c-0.3-0.2-0.5-0.5-0.5-0.9v-0.9c0-0.3,0.1-0.6,0.3-0.8l0,0c0.5-0.8,1-1.6,1.3-2.5
	c0.6-0.3,1.1-1,1.1-1.7v-1.7c0-0.4-0.2-0.9-0.4-1.2V7.3c0-0.3,0.1-1.8-1-3c-0.9-1.1-2.4-1.6-4.5-1.6c-2,0-3.5,0.5-4.5,1.6
	c-0.6,0.7-0.8,1.4-0.9,1.9c-0.7-0.3-1.6-0.5-2.5-0.5c-4.7,0-5,3.9-5,4.1l0,1.9c-0.3,0.3-0.4,0.7-0.4,1.1v1.5c0,0.5,0.2,1,0.6,1.3
	C5.9,17,6.7,18,7.1,18.4v1.1c0,0.3-0.1,0.5-0.4,0.7L3.8,22c-1.2,0.6-1.9,1.9-1.9,3.2v0.9c0,0.5,0.4,0.9,0.9,0.9h24.7
	c0.5,0,1-0.4,1-1v-1C28.4,23.5,27.5,22.1,26.1,21.4z M8.3,19.5v-1.4c0-0.2-0.1-0.3-0.2-0.5l0,0c-0.1-0.1-1.1-1.1-1.5-2.5l-0.1-0.3
	l-0.2-0.1c-0.1-0.1-0.2-0.3-0.2-0.4v-1.5c0-0.1,0.1-0.2,0.2-0.4l0.2-0.2V9.9c0-0.1,0.1-0.8,0.5-1.5C7.8,7.4,8.9,7,10.4,7
	c1,0,1.8,0.2,2.4,0.6v1.9c-0.3,0.3-0.4,0.8-0.4,1.2v1.7c0,0.1,0,0.3,0,0.4c0,0,0,0.1,0,0.1c0,0,0,0,0,0c0,0,0,0,0,0
	c0,0,0,0.1,0.1,0.2l0,0.1h0.1c0.1,0.2,0.3,0.4,0.4,0.5c0,0.1,0,0.2,0.1,0.3l0.1,0.2c0,0,0,0.1,0,0.1c0,0.1,0.1,0.2,0.1,0.2
	c0,0,0,0.1,0,0.1l0,0c0,0.1,0.1,0.2,0.1,0.3l0,0c0,0,0,0,0,0.1l0,0.1c0,0,0,0,0,0.1l0,0c0,0.1,0.1,0.2,0.1,0.3l0,0c0,0,0,0,0,0
	c0,0,0,0,0,0.1c0,0,0,0.1,0,0.1c0,0.1,0.1,0.2,0.1,0.3c0,0,0,0.1,0,0.1l0,0c0.1,0.1,0.1,0.2,0.2,0.3c0,0,0,0,0,0.1l0,0
	c0.1,0.2,0.2,0.3,0.3,0.4l0,0c0,0,0,0,0,0v1.4c0,0.4-0.2,0.7-0.5,0.8l-3.9,2.1C8.8,22.1,8,23.5,8,25v0.8H3.3c-0.1,0-0.2-0.1-0.2-0.2
	v-0.4c0-0.9,0.5-1.7,1.3-2.1l2.9-1.8C7.9,20.9,8.3,20.2,8.3,19.5z M9.2,25c0-1.1,0.6-2,1.5-2.5l3.9-2.1c0.7-0.4,1.2-1.1,1.2-1.9
	v-1.6c0-0.1,0-0.3-0.1-0.4l0,0c0,0,0,0-0.1-0.1l0,0c0,0,0,0,0-0.1l0,0c0,0,0,0,0,0l-0.1-0.1h0c0-0.1-0.1-0.1-0.2-0.2l0,0l0,0l0,0
	c0-0.1-0.1-0.1-0.1-0.2l0,0c0,0,0,0,0,0l0,0c-0.1-0.2-0.2-0.3-0.3-0.5l0,0c-0.1-0.1-0.1-0.2-0.2-0.3l0,0c0,0,0,0,0,0l0,0
	c0,0,0-0.1-0.1-0.1l0-0.1c0-0.1,0-0.1-0.1-0.2c0-0.1-0.1-0.2-0.1-0.4l0-0.1c0,0,0,0,0,0c0-0.1-0.1-0.3-0.1-0.4l-0.1-0.2L13.9,13
	c-0.2-0.1-0.3-0.3-0.3-0.6v-1.7c0-0.2,0.1-0.4,0.2-0.5L14,10V7l0,0c0-0.3,0.1-1.2,0.7-1.9c0.7-0.8,1.9-1.2,3.5-1.2
	c1.6,0,2.8,0.4,3.5,1.2c0.8,0.9,0.7,2,0.7,2l0,2.9l0.2,0.2c0.1,0.1,0.2,0.3,0.2,0.5v1.7c0,0.3-0.2,0.6-0.5,0.6L22,13.2l-0.1,0.3
	c-0.3,0.9-0.7,1.7-1.2,2.4c-0.1,0.2-0.3,0.3-0.4,0.5c-0.1,0.1-0.2,0.3-0.2,0.4v1.6c0,0.8,0.5,1.6,1.2,2l4.2,2.1
	c1,0.5,1.6,1.5,1.6,2.6v0.5c0,0.1-0.1,0.2-0.2,0.2H9.2V25z"/>
</svg>
