<?xml version="1.0" encoding="utf-8"?>
<!-- Generator: Adobe Illustrator 21.0.2, SVG Export Plug-In . SVG Version: 6.00 Build 0)  -->
<svg version="1.1" id="guias" xmlns="http://www.w3.org/2000/svg" xmlns:xlink="http://www.w3.org/1999/xlink" x="0px" y="0px"
	 viewBox="0 0 30 30" style="enable-background:new 0 0 30 30;" xml:space="preserve">
<style type="text/css">
	.st0{fill:#5E5E5E;}
</style>
<g>
	<path class="st0" d="M27.7,26c0-0.5-0.1-0.9-0.1-1.4v0c-0.7-4.1-4.2-7-8.4-7c-2.8,0-5.6,0-8.4,0c-0.3,0-0.6,0-0.8,0
		c-2.4,0.2-4.5,1.5-6,3.4c-1.1,1.4-1.6,3.1-1.7,4.9c-0.1,0.4,0.2,0.8,0.6,1C3.1,27,3.3,27,3.5,27c3.8,0,7.6,0,11.5,0h11.4
		c0.1,0,0.2,0,0.3,0c0.5,0,0.9-0.4,0.9-0.8C27.7,26.1,27.7,26,27.7,26z M4.2,25.2c0-0.6,0.2-1.2,0.5-1.7c0.9-2.2,3-3.7,5.3-4
		c0.3,0,0.7-0.1,1-0.1c2.7,0,5.3,0,8,0c3.3-0.1,6.1,2.2,6.7,5.4c0,0.1,0,0.2,0.1,0.4L4.2,25.2z"/>
	<path class="st0" d="M14.8,15.7c0,0,0.1,0,0.1,0c3.5,0,6.3-2.8,6.3-6.3c0-3.5-2.8-6.3-6.3-6.3c-3.5,0-6.3,2.8-6.3,6.2
		C8.6,12.8,11.4,15.7,14.8,15.7z M10.4,9.4c0-2.6,2.1-4.6,4.6-4.6c2.6,0,4.7,2.1,4.7,4.6c0,2.6-2.1,4.7-4.6,4.7
		C12.4,14.1,10.4,12,10.4,9.4C10.4,9.4,10.4,9.4,10.4,9.4z"/>
</g>
</svg>
