<svg id="guias" xmlns="http://www.w3.org/2000/svg" viewBox="0 0 30 30"><title>iconos</title><path d="M27.527,24.621a8.487,8.487,0,0,0-8.36-7.014q-4.189,0-8.381,0a7.025,7.025,0,0,0-.836.037,8.437,8.437,0,0,0-5.958,3.43,8.3,8.3,0,0,0-1.655,4.893.89.89,0,0,0,.588.971,1.99,1.99,0,0,0,.59.064q5.732.006,11.465,0H26.414c.112,0,.22,0,.331-.008a.883.883,0,0,0,.916-1.014,10.662,10.662,0,0,0-.134-1.365m-23.319.572a5.039,5.039,0,0,1,.45-1.705,6.681,6.681,0,0,1,5.32-4.043,6.482,6.482,0,0,1,1.013-.064c2.674-.006,5.349,0,8.022,0a6.725,6.725,0,0,1,6.735,5.445,3.2,3.2,0,0,1,.051.369Z" fill="#5e5e5e" fill-rule="evenodd"/><path d="M14.978,15.711a6.308,6.308,0,1,0-6.3-6.383,6.275,6.275,0,0,0,6.3,6.383M15,4.737a4.658,4.658,0,1,1-4.647,4.649A4.7,4.7,0,0,1,15,4.737" fill="#5e5e5e" fill-rule="evenodd"/></svg>