<svg id="guias" xmlns="http://www.w3.org/2000/svg" viewBox="0 0 30 30"><title>iconos nuevos</title><path d="M26.571,13.446l-2.7-2.7V6.937A1.525,1.525,0,0,0,22.35,5.412H18.536L15.967,2.843a1.524,1.524,0,0,0-2.157,0L11.241,5.412H7.607A1.525,1.525,0,0,0,6.083,6.937V10.57l-2.7,2.7a1.525,1.525,0,0,0,0,2.157l2.7,2.7v3.813a1.525,1.525,0,0,0,1.525,1.525H11.42l2.569,2.569a1.525,1.525,0,0,0,2.157,0l2.569-2.569H22.35a1.525,1.525,0,0,0,1.525-1.525V18.3l2.7-2.7A1.524,1.524,0,0,0,26.571,13.446Zm-5.529-2.409-6.871,6.816a.89.89,0,0,1-.649.268h0a.893.893,0,0,1-.64-.26l-3.33-3.206a.923.923,0,0,1,1.28-1.33l2.681,2.583,6.229-6.179a.922.922,0,1,1,1.3,1.309Z" fill="#5e5f5e"/></svg>