<svg id="guias" xmlns="http://www.w3.org/2000/svg" viewBox="0 0 30 30"><title>iconos</title><path d="M14.475,7.215a15.049,15.049,0,0,1,10.6,4.12,15.4,15.4,0,0,1,2.712,3.489.331.331,0,0,1-.01.388,14.472,14.472,0,0,1-10.41,7.342A14.333,14.333,0,0,1,5.4,19.323,14.531,14.531,0,0,1,1.978,15.2a.31.31,0,0,1-.006-.361,14.623,14.623,0,0,1,9.914-7.28c.984-.214,2-.265,2.589-.34m.4,1.61A6.182,6.182,0,1,0,21.059,15a6.184,6.184,0,0,0-6.18-6.175M8.535,10.509H8.48a12.912,12.912,0,0,0-4.665,4.374.379.379,0,0,0,.041.321,12.731,12.731,0,0,0,3.039,3.274c.508.382,1.055.717,1.585,1.071a8,8,0,0,1,.056-9.041m12.712,9a.372.372,0,0,0,.068-.016,13.226,13.226,0,0,0,4.628-4.334.255.255,0,0,0-.016-.329,13.313,13.313,0,0,0-4.459-4.225,1.629,1.629,0,0,0-.208-.083,7.891,7.891,0,0,1-.014,8.986" fill="#5e5e5e" fill-rule="evenodd"/><path d="M17.537,15.038a2.662,2.662,0,1,1-2.607-2.679,2.661,2.661,0,0,1,2.607,2.679" fill="#5e5e5e" fill-rule="evenodd"/></svg>