<?xml version="1.0" encoding="utf-8"?>
<!-- Generator: Adobe Illustrator 21.0.2, SVG Export Plug-In . SVG Version: 6.00 Build 0)  -->
<svg version="1.1" id="guias" xmlns="http://www.w3.org/2000/svg" xmlns:xlink="http://www.w3.org/1999/xlink" x="0px" y="0px"
	 viewBox="0 0 30 30" enable-background="new 0 0 30 30" xml:space="preserve">
<path fill="#5E5F5F" d="M1.261,7.056h1.88l1.539,4.581l1.656-4.581h1.15l1.626,4.529l1.541-4.529h1.892l-2.793,8.051H8.535
	L6.9,10.519l-1.678,4.588h-1.2L1.261,7.056z"/>
<path fill="#5E5F5F" d="M19.635,11.666h-6.49c0.072,0.533,0.34,1.019,0.751,1.365c0.442,0.35,0.995,0.53,1.558,0.507
	c0.729,0.01,1.431-0.275,1.946-0.792h1.963c-0.014,0.285-0.104,0.561-0.261,0.8c-0.385,0.568-0.91,1.028-1.524,1.336
	c-0.661,0.303-1.382,0.451-2.109,0.433c-1.15,0.043-2.267-0.391-3.086-1.2c-0.792-0.791-1.223-1.874-1.191-2.993
	c-0.035-1.139,0.393-2.243,1.188-3.06c0.778-0.806,1.859-1.247,2.978-1.217c1.156-0.045,2.277,0.397,3.093,1.217
	c0.815,0.867,1.245,2.026,1.191,3.215L19.635,11.666z M17.615,10.075c-0.129-0.446-0.408-0.835-0.789-1.1
	c-0.399-0.283-0.879-0.431-1.368-0.422c-0.533-0.01-1.054,0.157-1.482,0.474c-0.329,0.282-0.583,0.64-0.741,1.043L17.615,10.075z"/>
<path fill="#5E5F5F" d="M21.463,4.4v3.544c0.339-0.347,0.741-0.625,1.184-0.821c0.43-0.184,0.894-0.277,1.362-0.274
	c1.023-0.012,2.001,0.423,2.678,1.191c0.75,0.837,1.145,1.933,1.1,3.056c0.032,1.112-0.377,2.192-1.137,3.004
	c-0.684,0.773-1.668,1.214-2.7,1.21c-0.444,0.004-0.884-0.08-1.295-0.248c-0.443-0.195-0.847-0.469-1.191-0.81v0.851h-2.006V4.4
	H21.463z M23.587,8.717C22.99,8.699,22.413,8.934,22,9.365c-0.429,0.46-0.655,1.072-0.629,1.7C21.343,11.704,21.569,12.328,22,12.8
	c0.409,0.437,0.986,0.678,1.584,0.662c0.592,0.011,1.16-0.234,1.558-0.673c0.429-0.467,0.656-1.084,0.633-1.717
	c0.024-0.626-0.199-1.237-0.622-1.7c-0.403-0.434-0.974-0.674-1.566-0.658V8.717z"/>
<path fill="#5E5F5F" d="M6.02,15v0.866c0.33-0.338,0.723-0.609,1.155-0.8c0.419-0.178,0.87-0.269,1.325-0.266
	c0.999-0.012,1.953,0.413,2.613,1.162c0.733,0.816,1.119,1.886,1.076,2.982c0.032,1.087-0.368,2.142-1.112,2.935
	c-0.668,0.754-1.628,1.184-2.635,1.18c-0.433,0.004-0.862-0.079-1.263-0.242c-0.433-0.19-0.827-0.458-1.162-0.791v3.44H4.064V15
	H6.02z M8.092,16.62c-0.582-0.016-1.143,0.214-1.545,0.635c-0.419,0.449-0.64,1.047-0.614,1.66
	c-0.027,0.623,0.193,1.232,0.614,1.693c0.399,0.427,0.961,0.662,1.545,0.646c0.578,0.011,1.132-0.229,1.52-0.657
	c0.418-0.455,0.64-1.057,0.617-1.675c0.024-0.611-0.194-1.206-0.606-1.657C9.23,16.839,8.671,16.604,8.092,16.62z"/>
<path fill="#5E5F5F" d="M18.233,15h1.72v7.855h-1.72v-0.83c-0.359,0.335-0.774,0.603-1.227,0.791
	c-0.425,0.164-0.878,0.246-1.334,0.242c-1.053,0.009-2.063-0.418-2.79-1.18c-0.781-0.773-1.209-1.834-1.182-2.933
	c-0.041-1.107,0.37-2.184,1.139-2.982c1.084-1.111,2.728-1.466,4.173-0.9c0.452,0.187,0.864,0.459,1.215,0.8L18.233,15z
	 M16.033,16.617c-0.603-0.017-1.186,0.217-1.609,0.646c-0.432,0.441-0.663,1.04-0.641,1.657c-0.022,0.624,0.214,1.23,0.652,1.675
	c0.421,0.432,1.003,0.67,1.606,0.657c0.61,0.018,1.2-0.215,1.632-0.646c0.44-0.451,0.675-1.063,0.648-1.693
	c0.025-0.62-0.21-1.221-0.648-1.66c-0.437-0.424-1.028-0.653-1.637-0.633L16.033,16.617z"/>
<path fill="#5E5F5F" d="M19.952,15h2.014l2.04,4.929L26.258,15h2.02l-4.919,10.731h-2.036l1.615-3.459L19.952,15z"/>
</svg>
