<?xml version="1.0" encoding="utf-8"?>
<!-- Generator: Adobe Illustrator 21.0.2, SVG Export Plug-In . SVG Version: 6.00 Build 0)  -->
<svg version="1.1" id="guias" xmlns="http://www.w3.org/2000/svg" xmlns:xlink="http://www.w3.org/1999/xlink" x="0px" y="0px"
	 viewBox="0 0 30 30" style="enable-background:new 0 0 30 30;" xml:space="preserve">
<style type="text/css">
	.st0{fill:#5B5B5B;stroke:#5B5B5B;stroke-width:0.15;stroke-miterlimit:10;}
</style>
<path class="st0" d="M14.2,0.9C6.5,1.3,0.5,7.8,0.9,15.6c0.1,2,0.6,3.9,1.5,5.7l-1.5,7.2C0.9,28.8,1,29,1.3,29.1c0.1,0,0.2,0,0.2,0
	l7.1-1.7c6.9,3.4,15.3,0.6,18.8-6.3S28,5.8,21.1,2.3C19,1.3,16.6,0.8,14.2,0.9z M23.7,19.7c-0.6,1.1-1.6,2-2.8,2.4
	c-2.1,0.5-5.4,0-9.5-3.8c-3.6-3.3-4.5-6.1-4.3-8.3c0.3-1.2,1-2.3,2-3.1c0.5-0.4,1.2-0.4,1.6,0.1c0.1,0.1,0.1,0.2,0.2,0.3l1.3,3
	c0.2,0.4,0.1,0.8-0.1,1.2l-0.7,0.9c-0.3,0.4-0.3,0.9-0.1,1.3c1.4,2,3.3,3.6,5.4,4.8c0.4,0.2,0.9,0.1,1.2-0.3l0.8-0.8
	c0.3-0.3,0.7-0.4,1.2-0.3l3.1,0.9c0.6,0.2,1,0.8,0.8,1.4C23.8,19.6,23.8,19.7,23.7,19.7L23.7,19.7z"/>
</svg>
