<svg id="guias" xmlns="http://www.w3.org/2000/svg" viewBox="0 0 30 30"><title>iconos</title><path d="M14.4,2.8A12.24,12.24,0,0,0,4.1,20.583L2.8,26.889a.476.476,0,0,0,.576.559l6.179-1.464A12.237,12.237,0,1,0,14.4,2.8Zm7.373,19a9.589,9.589,0,0,1-11.039,1.807l-.86-.429-3.788.9.8-3.871-.425-.83A9.589,9.589,0,0,1,8.227,8.251,9.581,9.581,0,1,1,21.775,21.8Zm0,0" fill="#5b5b5b"/><path d="M20.94,17.679,18.568,17a.882.882,0,0,0-.873.23l-.58.591a.864.864,0,0,1-.939.2,12.659,12.659,0,0,1-4.081-3.6.863.863,0,0,1,.068-.957l.506-.654a.881.881,0,0,0,.108-.9l-1-2.255A.884.884,0,0,0,10.4,9.338,3.98,3.98,0,0,0,8.859,11.69c-.169,1.66.543,3.753,3.236,6.268,3.111,2.9,5.6,3.287,7.225,2.895A3.982,3.982,0,0,0,21.44,19a.885.885,0,0,0-.5-1.325Zm0,0" fill="#5b5b5b"/></svg>