<?xml version="1.0" encoding="utf-8"?>
<!-- Generator: Adobe Illustrator 21.0.2, SVG Export Plug-In . SVG Version: 6.00 Build 0)  -->
<svg version="1.1" id="guias" xmlns="http://www.w3.org/2000/svg" xmlns:xlink="http://www.w3.org/1999/xlink" x="0px" y="0px"
	 viewBox="0 0 30 30" style="enable-background:new 0 0 30 30;" xml:space="preserve">
<style type="text/css">
	.st0{fill:#5E5E5E;}
</style>
<g>
	<path class="st0" d="M5,16.5H2.7l2.5-3.2c0-0.1,0.1-0.1,0.1-0.2v-0.2c0-0.2-0.2-0.4-0.4-0.4H1.8c-0.2,0-0.4,0.2-0.4,0.4v0.2
		c0,0.2,0.2,0.4,0.4,0.4h2.1l-2.5,3.2c0,0.1-0.1,0.1-0.1,0.2v0.2c0,0.2,0.2,0.4,0.4,0.4H5c0.2,0,0.4-0.2,0.4-0.4v-0.2
		C5.4,16.7,5.2,16.5,5,16.5z"/>
	<path class="st0" d="M8.2,12.5c-1.2,0-2.5,0.9-2.5,2.5s1.3,2.5,2.5,2.5s2.5-0.9,2.5-2.5C10.7,13.3,9.4,12.5,8.2,12.5z M8.2,16.6
		L8.2,16.6c-0.8,0-1.6-0.5-1.6-1.6c0-1.1,0.8-1.6,1.6-1.6s1.6,0.5,1.6,1.6C9.7,16.1,8.9,16.6,8.2,16.6z"/>
	<path class="st0" d="M16.7,12.5c-0.8,0-1,0.4-1.6,0.4c-0.6,0-0.7-0.4-1.4-0.4c-0.4,0-0.8,0.1-1.1,0.3c0,0-0.2,0.1-0.3-0.1
		c-0.1-0.1-0.2-0.1-0.3-0.1h-0.2c-0.2,0-0.4,0.2-0.4,0.4v4.1c0,0.2,0.2,0.4,0.4,0.4h0.2c0.2,0,0.4-0.2,0.4-0.4v-2.8
		c0-0.1,0-0.2,0.1-0.2c0.3-0.4,0.7-0.7,1.2-0.7c0.7,0,0.9,0.5,0.9,1v2.7c0,0.2,0.2,0.4,0.4,0.4h0.2c0.2,0,0.4-0.2,0.4-0.4l0,0v-2.7
		c0-0.1,0-0.1,0-0.2c0-0.1,0.1-0.2,0.1-0.3c0.2-0.2,0.6-0.5,1-0.5c0.7,0,0.9,0.5,0.9,1v2.7c0,0.2,0.2,0.4,0.4,0.4h0.2
		c0.2,0,0.4-0.2,0.4-0.4l0,0v-2.7C18.5,13.3,17.8,12.5,16.7,12.5z"/>
	<path class="st0" d="M21.8,12.5c-1.2,0-2.5,0.9-2.5,2.5s1.3,2.5,2.5,2.5s2.5-0.9,2.5-2.5C24.3,13.3,23.1,12.5,21.8,12.5z
		 M21.8,16.6c-0.8,0-1.6-0.5-1.6-1.6c0-1.1,0.8-1.6,1.6-1.6c0.8,0,1.6,0.5,1.6,1.6C23.4,16.1,22.6,16.6,21.8,16.6z"/>
	<path class="st0" d="M28.3,16.5L28.3,16.5H26l2.5-3.2c0-0.1,0.1-0.1,0.1-0.2v-0.2c0-0.2-0.2-0.4-0.4-0.4h-3.1
		c-0.2,0-0.4,0.2-0.4,0.4v0.2c0,0.2,0.2,0.4,0.4,0.4h2.1l-2.5,3.2c0,0.1-0.1,0.1-0.1,0.2v0.2c0,0.2,0.2,0.4,0.4,0.4h3.3
		c0.2,0,0.4-0.2,0.4-0.4v-0.2C28.6,16.7,28.5,16.5,28.3,16.5z"/>
</g>
</svg>
