<svg id="guias" xmlns="http://www.w3.org/2000/svg" viewBox="0 0 743.992 152"><title>iconos</title><path d="M102.011,116.648H40.978l66.238-85.583a9.846,9.846,0,0,0,2.06-6V20.434a9.819,9.819,0,0,0-9.81-9.812H17.055a9.815,9.815,0,0,0-9.8,9.812v5.083a9.805,9.805,0,0,0,9.8,9.809H72.317L6.065,120.92a9.774,9.774,0,0,0-2.053,6.01v4.623a9.809,9.809,0,0,0,9.8,9.8h88.194a9.813,9.813,0,0,0,9.81-9.8V126.46a9.823,9.823,0,0,0-9.81-9.812" fill="#5e5e5e"/><path d="M186.519,8.31c-33.276,0-66.987,23.253-66.987,67.681s33.711,67.679,66.987,67.679,66.989-23.248,66.989-67.679S219.807,8.31,186.519,8.31m0,110.435c-20.815,0-41.823-13.221-41.823-42.754S165.7,33.247,186.519,33.247s41.82,13.213,41.82,42.743-21,42.754-41.82,42.754" fill="#5e5e5e"/><path d="M416.181,8.315c-20.857,0-25.62,9.9-42.573,9.9-15.76,0-19.99-9.9-38.223-9.9-11.467,0-20.993,3.588-28.91,8.031-1.145.644-4.476,2.068-7.41-1.734a9.992,9.992,0,0,0-7.889-3.99h-5.1a9.816,9.816,0,0,0-9.8,9.815V131.553a9.8,9.8,0,0,0,9.8,9.8h5.559a9.8,9.8,0,0,0,9.8-9.8V57.588a12.018,12.018,0,0,1,2.132-6.269c7.038-9.586,18.076-18.306,31.359-18.306,18.028,0,24.446,13.6,24.446,26.309v72.23a9.81,9.81,0,0,0,9.813,9.8h5.553a9.8,9.8,0,0,0,9.81-9.8V59.093c0-2,.1-3.569.1-4.812,0-3.882,2.52-6.522,3.484-7.595,5.959-6.572,15.268-13.672,27.572-13.672,18.037,0,24.467,13.6,24.467,26.309v72.23a9.8,9.8,0,0,0,9.8,9.8h5.555a9.8,9.8,0,0,0,9.81-9.8V59.093c0-29.423-20.681-50.778-49.158-50.778" fill="#5e5e5e"/><path d="M553.705,8.31c-33.289,0-66.978,23.253-66.978,67.681s33.69,67.679,66.979,67.679,66.978-23.248,66.978-67.679S587,8.31,553.705,8.31m0,110.435c-20.812,0-41.817-13.221-41.817-42.754s21-42.743,41.817-42.743,41.82,13.213,41.82,42.743-21,42.754-41.82,42.754" fill="#5e5e5e"/><path d="M726.188,116.648H665.153l66.238-85.583a9.77,9.77,0,0,0,2.043-6V20.437a9.807,9.807,0,0,0-9.793-9.815H641.234a9.819,9.819,0,0,0-9.808,9.815v5.08a9.809,9.809,0,0,0,9.808,9.809h55.254l-66.248,85.6a9.7,9.7,0,0,0-2.049,6.007v4.623a9.8,9.8,0,0,0,9.8,9.8h88.2a9.8,9.8,0,0,0,9.8-9.8V126.46a9.814,9.814,0,0,0-9.8-9.812" fill="#5e5e5e"/></svg>